<?xml version="1.0" encoding="UTF-8"?>
<svg id="Layer_2" data-name="Layer 2" xmlns="http://www.w3.org/2000/svg" width="48.13" height="68.43" viewBox="0 0 48.13 68.43">
  <g id="Layer_1-2" data-name="Layer 1">
    <g>
      <path d="M2.4,68.43c-1.27,0-2.31-1.04-2.31-2.31L0,2.37C0,1.1,1.04.06,2.31.06L45.73,0c1.27,0,2.31,1.04,2.31,2.31l.09,63.76c0,1.27-1.04,2.31-2.31,2.31l-43.43.06Z" style="fill: #fafafa;"/>
      <path d="M41.71,62.14s-.03,0-.05,0l-35.11.05c-.13,0-.23-.1-.23-.23l-.08-55.44c0-.13.11-.23.23-.23l35.11-.05c.06,0,.12.02.16.07.04.04.07.1.07.16l.08,55.44c0,.06-.02.12-.07.16-.03.03-.07.05-.11.06ZM6.78,61.73l34.65-.05-.08-54.98-34.65.05.07,54.98Z" style="fill: #1e1c1c;"/>
      <g>
        <path d="M16.59,41.85c6.4-1.98,8.5-15.26,15.78-15.27l-2.22,2.67c-1.29.05-2.33,1.05-2.46,2.32-1.12.28-1.95,1.29-1.95,2.5,0,.04,0,.07,0,.11-1.07.32-1.85,1.3-1.84,2.47,0,.1,0,.19.02.28-.96.33-1.65,1.22-1.7,2.28-1.2.22-2.11,1.27-2.11,2.54,0,.03,0,.06,0,.09h-3.53Z" style="fill: #c42c27;"/>
        <path d="M31.55,26.58c-6.41,1.98-8.5,15.26-15.78,15.27l2.22-2.67c1.29-.05,2.33-1.05,2.46-2.32,1.12-.28,1.95-1.29,1.95-2.5,0-.04,0-.07,0-.11,1.07-.32,1.85-1.3,1.84-2.47,0-.1,0-.19-.02-.28.96-.33,1.65-1.22,1.7-2.28,1.2-.22,2.11-1.27,2.11-2.54,0-.03,0-.06,0-.09h3.53Z" style="fill: #c42c27;"/>
        <g>
          <g>
            <path d="M19.94,55.71c0-.19.06-.37.16-.52.17-.25.45-.4.76-.4h10.16c.32-.02.6.14.76.39.1.15.16.33.16.52,0,.25-.1.49-.27.65-.17.17-.4.27-.65.27l-10.16.02c-.51,0-.93-.42-.93-.92Z" style="fill: #f1c256;"/>
            <path d="M30.56,56.62c.46,0,.92.83.93,1.85,0,1.02-.82,1.85-1.85,1.85-.21,0-.41-.03-.59-.1.36-.37.59-.92.59-1.52,0-.78.08-1.46-.49-1.82-.27-.17-.57-.26-.9-.26h-4.62c-.33,0-.63.1-.9.27-.56.36-.48,1.04-.48,1.82,0,.6.23,1.15.59,1.52-.18.07-.38.1-.59.1-1.02,0-1.85-.82-1.85-1.84,0-1.02.46-1.85.92-1.85h9.24Z" style="fill: #4a6c76;"/>
            <path d="M22.25,58.71c0,.6.23,1.15.59,1.52.33.35.77.56,1.26.56.22,0,.43-.04.62-.13h0c.32.37.75.59,1.22.59.47,0,.9-.22,1.22-.59h0c.19.08.4.12.62.12.49,0,.92-.21,1.26-.56.36-.37.59-.92.59-1.52,0-.78.08-1.46-.49-1.82-.27-.17-.57-.26-.9-.26h-4.62c-.33,0-.63.1-.9.27-.56.36-.48,1.03-.48,1.81ZM25.94,58.01c.38,0,.69.41.7.92,0,.51-.31.93-.69.93-.38,0-.69-.41-.69-.92,0-.51.31-.92.69-.93Z" style="fill: #f1c256;"/>
            <path d="M24.72,60.66h0c.32.37.75.59,1.22.59.47,0,.9-.22,1.22-.59h0c.38-.43.62-1.04.62-1.73,0-.61-.19-1.17-.51-1.59-.34-.44-.81-.72-1.34-.72-.53,0-1,.28-1.34.72-.31.42-.51.98-.51,1.59,0,.68.24,1.3.62,1.72ZM25.94,58.01c.38,0,.69.41.7.92,0,.51-.31.93-.69.93-.38,0-.69-.41-.69-.92,0-.51.31-.92.69-.93Z" style="fill: #c42c27;"/>
            <path d="M30.15,30.64l.49-.59-.58-.69.08-.1,2.22-2.67,2,2.77-.53.64.53.74c.63,1.78,2.81,7.06-4.4,10.67,3.86-2.82,2.88-6.97,2.42-7.89l-2.31-2.77.09-.1Z" style="fill: #f1c256;"/>
            <path d="M31.45,30.74c0-.51.36-.92.82-.92.45,0,.82.41.82.92,0,.51-.36.92-.82.93-.45,0-.82-.41-.82-.92Z" style="fill: #c42c27;"/>
            <path d="M21.3,41.84s.04,0,.07-.01c4.29-.87,7.89-9.52,8.7-11.09l2.31,2.77c-.62,2.48-2.89,5.99-5.57,8.04-1.32,1.01-2.75,1.67-4.12,1.67h0s0,0,0,0c0-.77-.62-1.38-1.39-1.38Z" style="fill: #f1c256;"/>
            <path d="M26.81,41.56c2.68-2.05,4.96-5.57,5.57-8.04.46.92,1.44,5.07-2.42,7.89,0,0,0,0,0,0-.81.4-1.74.79-2.81,1.14l-.34-1Z" style="fill: #4a6c76;"/>
            <path d="M30.15,30.64c-.53.05-.97.45-1.07.97.17.05.32.12.47.2-.17.36-.38.78-.61,1.25-.18-.11-.4-.17-.62-.18-.14,0-.27.02-.39.07-.47.16-.8.61-.8,1.13,0,.03,0,.06,0,.09.37.09.7.26.98.49-.22.41-.46.82-.7,1.24-.22-.26-.55-.44-.93-.44-.11,0-.2.01-.3.04-.51.13-.89.6-.89,1.15,0,.06,0,.12.02.18.44.09.84.29,1.16.57-.26.39-.54.77-.82,1.13-.22-.23-.52-.36-.86-.36-.12,0-.23.02-.35.05-.48.15-.83.59-.84,1.12.33.12.63.31.87.55-.34.35-.69.66-1.04.93-.2-.17-.46-.26-.75-.26-.06,0-.11,0-.17.01-.58.08-1.02.58-1.02,1.18v.05s-.2.04-.2.04h-1.18s0-.06,0-.09c0-1.27.91-2.32,2.11-2.54.06-1.06.75-1.95,1.7-2.28-.01-.09-.02-.19-.02-.28,0-1.17.78-2.16,1.84-2.47,0-.04,0-.07,0-.11,0-1.21.83-2.22,1.95-2.5.12-1.27,1.17-2.27,2.46-2.32l.49.79-.49.59Z" style="fill: #4a6c76;"/>
          </g>
          <g>
            <path d="M31.27,56.82c-.08.02-.16.03-.24.03h-10.16c-.64.01-1.16-.5-1.16-1.14,0-.23.07-.46.2-.65.21-.31.57-.5.95-.5h10.16c.38-.01.74.17.96.49.13.19.2.42.2.65,0,.31-.12.6-.34.82-.15.16-.35.27-.57.31ZM20.71,55.03c-.17.04-.33.14-.42.29-.08.12-.12.25-.12.39,0,.38.31.69.69.69h10.16c.19-.01.36-.09.49-.22.13-.13.21-.3.21-.49,0-.14-.04-.28-.12-.39-.13-.19-.34-.3-.57-.3h-10.16s-.1.02-.15.03Z" style="fill: #1e1c1c;"/>
            <path d="M26.31,61.44c-.12.02-.24.04-.36.04-.51,0-1-.22-1.37-.63,0,0-.02-.02-.03-.03-.43-.48-.68-1.17-.68-1.88,0-.64.2-1.26.55-1.73.39-.51.95-.81,1.52-.81.57,0,1.13.29,1.52.81.36.47.56,1.09.56,1.73,0,.71-.25,1.39-.68,1.88-.01.01-.02.02-.03.03-.29.31-.63.52-1.01.6ZM24.87,60.48s.02.02.03.03c.29.33.66.51,1.05.51.38,0,.76-.18,1.05-.51.01-.01.02-.02.03-.03.34-.4.54-.96.54-1.54,0-.54-.17-1.06-.46-1.45-.31-.41-.72-.63-1.16-.63-.43,0-.85.23-1.16.63-.3.39-.46.91-.46,1.45,0,.58.2,1.14.54,1.54Z" style="fill: #1e1c1c;"/>
            <path d="M24.48,60.97c-.13.03-.25.04-.38.04-.11,0-.21-.01-.32-.03-.42-.07-.8-.28-1.11-.6-.41-.42-.66-1.04-.66-1.68v-.25c-.01-.71-.02-1.37.59-1.76.32-.2.66-.3,1.02-.3.13,0,.23.1.23.23,0,.13-.1.23-.23.23-.27,0-.53.08-.78.23-.37.24-.39.65-.38,1.36v.26c0,.52.2,1.02.53,1.36.24.25.53.42.85.47.08.01.16.02.24.02.19,0,.36-.04.53-.11.03-.01.07-.02.1-.02.13,0,.23.11.23.24,0,.1-.07.19-.17.22-.1.04-.2.07-.3.09Z" style="fill: #1e1c1c;"/>
            <path d="M22.68,60.51c-.14.03-.28.05-.43.05-.6,0-1.16-.26-1.56-.71-.34-.38-.52-.87-.52-1.37,0-.67.19-1.33.51-1.72.2-.24.41-.36.64-.36.13,0,.23.1.23.23,0,.13-.1.23-.23.23-.08,0-.18.07-.29.19-.25.3-.41.87-.41,1.43,0,.39.14.77.41,1.07.31.35.75.55,1.21.55.18,0,.36-.03.51-.09.12-.04.25.02.3.14.04.12-.02.25-.14.3-.08.03-.16.05-.24.07Z" style="fill: #1e1c1c;"/>
            <path d="M28.19,60.97c-.13.03-.26.04-.4.04-.25,0-.48-.05-.7-.14-.09-.03-.15-.12-.15-.21,0-.13.1-.23.23-.23h0s.06,0,.09.02c.16.07.34.1.53.1.13,0,.26-.02.4-.06.26-.08.49-.22.69-.43.34-.35.53-.84.53-1.36v-.26c0-.71,0-1.13-.38-1.36-.24-.15-.5-.23-.78-.23-.13,0-.23-.1-.23-.23,0-.13.11-.23.23-.23.36,0,.7.1,1.02.3.61.39.61,1.05.6,1.76v.25c0,.64-.24,1.26-.66,1.68-.25.26-.56.46-.9.55-.05.01-.09.02-.13.03Z" style="fill: #1e1c1c;"/>
            <path d="M30.07,60.5c-.13.03-.28.04-.42.04-.23,0-.46-.04-.67-.11-.12-.04-.18-.17-.14-.29.04-.12.17-.18.3-.14.16.06.33.08.51.08.2,0,.38-.03.54-.1.65-.23,1.07-.84,1.07-1.52,0-.94-.42-1.62-.7-1.62-.13,0-.23-.1-.23-.23,0-.13.11-.23.23-.23.63,0,1.16.95,1.16,2.08,0,.87-.55,1.66-1.37,1.95-.09.04-.18.06-.28.08Z" style="fill: #1e1c1c;"/>
            <path d="M26.1,60.07c-.05.01-.1.02-.16.02-.26,0-.5-.13-.67-.36-.16-.21-.25-.49-.25-.79,0-.63.42-1.16.92-1.16.51,0,.92.52.93,1.15,0,.56-.32,1.04-.77,1.14ZM25.88,58.25c-.22.05-.4.35-.4.69,0,.19.06.38.16.51.05.07.16.18.31.18.25,0,.46-.33.46-.69,0-.38-.21-.69-.46-.69-.02,0-.04,0-.06,0Z" style="fill: #1e1c1c;"/>
            <path d="M26.11,60.07c-.05.01-.1.02-.16.02-.51,0-.92-.52-.92-1.15,0-.63.42-1.15.92-1.16.51,0,.93.52.93,1.15,0,.56-.32,1.04-.77,1.14ZM25.88,58.25c-.22.05-.4.35-.4.69,0,.38.21.69.46.69.25,0,.46-.33.46-.69,0-.38-.21-.69-.46-.69-.02,0-.04,0-.06,0Z" style="fill: #1e1c1c;"/>
            <path d="M31.07,55.92s-.03,0-.05,0h-.92c-.13,0-.23-.1-.23-.23s.1-.23.23-.23h.92c.13,0,.23.1.23.23,0,.11-.08.21-.18.23Z" style="fill: #1e1c1c;"/>
            <path d="M26.45,55.92s-.03,0-.05,0h-.92c-.13,0-.23-.1-.23-.23,0-.13.11-.23.23-.23h.92c.13,0,.23.1.23.23,0,.11-.08.2-.18.23Z" style="fill: #1e1c1c;"/>
            <path d="M28.76,55.92s-.03,0-.05,0h-.92c-.13,0-.23-.1-.23-.23,0-.13.11-.23.23-.23h.92c.13,0,.23.1.23.23,0,.11-.08.2-.18.23Z" style="fill: #1e1c1c;"/>
            <path d="M21.83,55.93s-.03,0-.05,0h-.92c-.13,0-.23-.1-.23-.23s.11-.23.23-.23h.92c.13,0,.23.1.23.23,0,.11-.08.2-.18.23Z" style="fill: #1e1c1c;"/>
            <path d="M24.14,55.93s-.03,0-.05,0h-.92c-.13,0-.23-.1-.23-.23s.11-.23.23-.23h.92c.13,0,.23.1.23.23,0,.11-.08.2-.18.23Z" style="fill: #1e1c1c;"/>
            <path d="M30.86,54.97s-.07,0-.11,0c-.12-.04-.19-.16-.16-.29l.53-1.89-.44-.72c-.05-.08-.05-.18,0-.25l1.59-2.29-.3-.29-.67-.12c-.07-.01-.12-.05-.16-.11-.03-.06-.04-.13-.02-.19l.25-.71-.95-.48c-.08-.04-.13-.12-.13-.21,0-.09.06-.17.14-.2l.93-.4-.25-.54s-.02-.07-.02-.12l.07-1.08-.39-.3-3.25-.35c-.1-.01-.18-.08-.2-.17l-.41-1.64-.34-.98c-.04-.12.02-.25.14-.29.12-.04.25.02.29.14l.34,1,.38,1.51,3.15.34s.08.02.11.04l.54.41c.06.05.1.12.09.2l-.07,1.15.33.7c.03.06.03.12,0,.18-.02.06-.07.1-.13.13l-.7.3.69.35c.1.05.15.17.11.28l-.23.64.47.09s.09.03.12.06l.49.47c.08.08.1.21.03.3l-1.62,2.33.42.68c.03.06.04.12.03.18l-.55,1.99c-.03.08-.09.14-.18.16Z" style="fill: #1e1c1c;"/>
            <path d="M29.93,53.86s-.09,0-.14-.01c-.12-.05-.17-.18-.12-.3l.25-.6-1.68-.68c-.08-.03-.14-.11-.14-.2,0-.09.04-.17.11-.21l1.7-1c.11-.07.25-.03.32.08.06.11.03.25-.08.32l-1.3.77,1.46.6c.06.02.1.07.13.13.02.06.02.12,0,.18l-.34.82c-.03.07-.09.12-.16.14Z" style="fill: #1e1c1c;"/>
            <path d="M29.83,52.81c-.05.01-.11,0-.16-.02-.11-.06-.16-.2-.1-.31.09-.17.26-.62-.13-1.03-.09-.09-.08-.24,0-.32.09-.09.24-.08.33,0,.41.43.49,1.02.21,1.56-.03.06-.09.11-.16.12Z" style="fill: #1e1c1c;"/>
            <path d="M26.43,55c-.11.02-.23-.04-.27-.16l-3.69-11.55c-.04-.12.03-.25.15-.29.12-.04.25.03.29.15l3.69,11.54c.04.12-.03.25-.15.29,0,0-.02,0-.02,0Z" style="fill: #1e1c1c;"/>
            <path d="M25.04,55c-.11.02-.23-.04-.27-.16l-.62-1.93c-.04-.12.03-.25.15-.29.12-.04.25.03.29.15l.62,1.93c.04.12-.03.25-.15.29,0,0-.02,0-.02,0Z" style="fill: #1e1c1c;"/>
            <path d="M23.66,55c-.12.02-.23-.04-.27-.16l-.59-1.85c-.04-.12.03-.25.15-.29.12-.03.25.03.29.15l.59,1.85c.04.12-.03.25-.15.29,0,0-.02,0-.02,0Z" style="fill: #1e1c1c;"/>
            <path d="M22.27,55.01c-.11.02-.23-.04-.27-.16l-.59-1.85c-.04-.12.03-.25.15-.29.12-.04.25.03.29.15l.59,1.85c.04.12-.03.25-.15.29,0,0-.01,0-.02,0Z" style="fill: #1e1c1c;"/>
            <path d="M20.88,55.01c-.11.02-.23-.04-.27-.16l-.59-1.85c-.04-.12.03-.25.15-.29.12-.04.25.03.29.15l.59,1.85c.04.12-.03.25-.15.29,0,0-.01,0-.02,0Z" style="fill: #1e1c1c;"/>
            <path d="M21.64,44.81c-.11.02-.23.04-.34.04-.89,0-1.62-.72-1.62-1.61,0-.87.74-1.62,1.61-1.62.08,0,.16,0,.25.02.77.11,1.37.79,1.37,1.59,0,.76-.54,1.42-1.28,1.58ZM21.06,42.1c-.53.11-.91.59-.91,1.13,0,.64.52,1.15,1.16,1.15.63,0,1.15-.53,1.15-1.16,0-.57-.42-1.06-.99-1.14-.07-.01-.12-.02-.17-.02-.08,0-.16.01-.24.03Z" style="fill: #1e1c1c;"/>
            <path d="M20.84,43.23c0-.26.21-.46.46-.46.26,0,.46.21.46.46,0,.26-.21.46-.46.46-.25,0-.46-.21-.46-.46Z" style="fill: #1e1c1c;"/>
            <path d="M15.82,44.85s-.03,0-.05,0c-.43,0-.84-.17-1.15-.47-.3-.31-.47-.71-.47-1.14,0-.43.17-.84.47-1.14.3-.31.71-.47,1.14-.48.13,0,.23.1.23.23,0,.13-.11.23-.23.23-.31,0-.6.12-.82.34s-.34.51-.34.82c0,.31.12.6.34.82.22.22.51.34.82.34.13,0,.23.1.23.23,0,.11-.08.21-.18.23Z" style="fill: #1e1c1c;"/>
            <path d="M21.35,44.84s-.03,0-.05,0h-5.53c-.13,0-.23-.09-.23-.22,0-.13.11-.23.23-.23h5.54c.13,0,.23.1.23.22,0,.11-.08.2-.18.23Z" style="fill: #1e1c1c;"/>
            <path d="M21.35,42.07s-.03,0-.05,0h-5.53c-.13.01-.23-.09-.23-.22,0-.13.11-.23.23-.23h5.53c.13,0,.23.09.23.22,0,.11-.08.2-.18.23Z" style="fill: #1e1c1c;"/>
            <path d="M22.45,47.58c-.11.02-.22.03-.34.04-.89,0-1.62-.72-1.62-1.62,0-.76.53-1.42,1.28-1.58.11-.02.22-.04.34-.04.89,0,1.62.72,1.62,1.61,0,.76-.54,1.43-1.28,1.58ZM21.87,44.87c-.53.11-.91.59-.91,1.13,0,.64.52,1.15,1.16,1.15.63,0,1.15-.53,1.15-1.16,0-.64-.52-1.15-1.16-1.15-.08,0-.16,0-.24.03Z" style="fill: #1e1c1c;"/>
            <path d="M21.65,46c0-.25.2-.46.46-.46.26,0,.46.21.46.46,0,.26-.21.46-.46.46-.26,0-.46-.21-.46-.46Z" style="fill: #1e1c1c;"/>
            <path d="M16.62,47.62s-.03,0-.05,0c-.43,0-.84-.17-1.15-.47-.31-.3-.48-.71-.48-1.14,0-.89.73-1.62,1.61-1.62.13,0,.23.1.23.23,0,.13-.11.23-.23.23-.63,0-1.15.52-1.15,1.16,0,.31.12.6.34.82.22.22.51.34.82.34.13,0,.23.1.23.23,0,.11-.08.21-.18.23Z" style="fill: #1e1c1c;"/>
            <path d="M22.16,47.61s-.03,0-.05,0h-5.53c-.13,0-.23-.1-.23-.22,0-.13.11-.23.23-.23h5.54c.13,0,.23.1.23.22,0,.11-.08.2-.18.23Z" style="fill: #1e1c1c;"/>
            <path d="M22.16,44.84s-.03,0-.05,0h-5.54c-.13,0-.23-.1-.23-.22,0-.13.11-.23.23-.23h5.54c.13,0,.23.1.23.22,0,.11-.08.2-.18.23Z" style="fill: #1e1c1c;"/>
            <path d="M23.34,50.35c-.11.02-.22.03-.34.04-.43,0-.84-.17-1.15-.47-.31-.3-.47-.71-.47-1.14,0-.76.54-1.42,1.28-1.58.11-.02.22-.03.34-.04.89,0,1.62.72,1.62,1.61,0,.76-.54,1.43-1.28,1.58ZM22.76,47.64c-.53.11-.91.59-.91,1.13,0,.31.12.6.34.82.22.22.51.34.82.34.63,0,1.15-.53,1.15-1.16,0-.64-.52-1.15-1.16-1.15-.08,0-.16.01-.24.03Z" style="fill: #1e1c1c;"/>
            <path d="M22.54,48.77c0-.26.21-.46.46-.46.25,0,.46.21.46.46s-.21.46-.46.46c-.26,0-.46-.21-.46-.46Z" style="fill: #1e1c1c;"/>
            <path d="M17.52,50.39s-.03,0-.05,0c-.43,0-.84-.17-1.15-.47s-.47-.71-.47-1.14c0-.43.17-.84.47-1.14.3-.31.71-.47,1.14-.48.13,0,.23.1.23.23,0,.13-.1.23-.23.23-.31,0-.6.12-.82.34-.22.22-.34.51-.34.82,0,.31.12.6.34.82.22.22.51.34.82.34.13,0,.23.1.23.23,0,.11-.08.21-.18.23Z" style="fill: #1e1c1c;"/>
            <path d="M23.05,50.38s-.03,0-.05,0h-5.54c-.13,0-.23-.1-.23-.22s.11-.23.23-.23h5.54c.13,0,.23.1.23.22,0,.11-.08.2-.18.23Z" style="fill: #1e1c1c;"/>
            <path d="M23.05,47.61s-.03,0-.05,0h-5.54c-.13,0-.23-.1-.23-.22,0-.13.11-.23.23-.23h5.54c.13,0,.23.1.23.22,0,.11-.08.2-.18.23Z" style="fill: #1e1c1c;"/>
            <path d="M24.23,53.13c-.11.02-.22.03-.34.04-.89,0-1.62-.72-1.62-1.61,0-.87.73-1.62,1.61-1.62.43,0,.84.17,1.15.47.31.3.47.71.47,1.14,0,.76-.54,1.43-1.28,1.58ZM23.64,50.42c-.53.11-.91.59-.91,1.13,0,.64.52,1.15,1.16,1.15.63,0,1.15-.53,1.15-1.16,0-.31-.12-.6-.34-.82-.22-.22-.51-.34-.82-.34-.08,0-.16,0-.24.03Z" style="fill: #1e1c1c;"/>
            <path d="M23.42,51.54c0-.25.2-.46.46-.46.26,0,.46.21.46.46,0,.26-.21.46-.46.46-.26,0-.46-.21-.46-.46Z" style="fill: #1e1c1c;"/>
            <path d="M18.4,53.16s-.03,0-.05,0c-.89,0-1.62-.72-1.62-1.62,0-.43.17-.84.47-1.14.3-.31.71-.48,1.14-.48.13,0,.23.1.23.23s-.11.23-.23.23c-.31,0-.6.12-.82.34-.22.22-.34.51-.34.82,0,.64.52,1.15,1.16,1.15.13,0,.23.1.23.23,0,.11-.08.21-.18.23Z" style="fill: #1e1c1c;"/>
            <path d="M23.94,53.16s-.03,0-.05,0h-5.54c-.13,0-.23-.09-.23-.22,0-.13.11-.23.23-.23h5.54c.13,0,.23.09.23.22,0,.11-.08.2-.18.23Z" style="fill: #1e1c1c;"/>
            <path d="M23.93,50.38s-.03,0-.05,0h-5.54c-.13,0-.23-.09-.23-.22,0-.13.11-.23.23-.23h5.53c.13,0,.23.09.23.22,0,.11-.08.2-.18.23Z" style="fill: #1e1c1c;"/>
            <path d="M23.72,43.35c-.35.08-.69.11-1.03.11-.13,0-.23-.1-.23-.23,0-.13.1-.23.23-.23,1.22,0,2.6-.56,3.98-1.63,2.82-2.16,4.94-5.69,5.49-7.91.02-.09.1-.16.2-.17.1-.01.19.04.23.13.49.98,1.51,5.24-2.47,8.17-.04.04-.1.06-.15.06-.13,0-.23-.1-.23-.23,0-.07.02-.12.07-.17,0,0,.02-.02.03-.03,3.15-2.31,2.98-5.48,2.57-6.96-.87,2.59-3.11,5.7-5.45,7.49-1.09.84-2.19,1.38-3.23,1.61Z" style="fill: #1e1c1c;"/>
            <path d="M32.43,33.74s-.03,0-.04,0c-.07,0-.14-.03-.19-.08l-2.31-2.77c-.07-.09-.07-.21,0-.29l1.1-1.32s.02-.02.03-.03l1.18-1.42c.05-.06.11-.09.19-.08.07,0,.14.04.18.1l1.99,2.77c.06.08.06.19,0,.27l-1.99,2.77s-.08.08-.14.09ZM30.37,30.74l2,2.39,1.72-2.4-1.72-2.39-1.01,1.22s-.02.02-.03.03l-.95,1.15Z" style="fill: #1e1c1c;"/>
            <path d="M33.88,30.22c-.07.01-.14,0-.2-.05-.1-.08-.11-.23-.03-.32l.42-.5-1.72-2.38-1.99,2.4.46.55c.08.1.07.24-.03.33s-.24.07-.33-.03l-.58-.69c-.07-.09-.07-.21,0-.3l2.31-2.77c.05-.06.11-.09.18-.08.07,0,.14.04.18.09l.1.13,1.9,2.64c.06.09.06.2,0,.28l-.53.64s-.08.07-.13.08Z" style="fill: #1e1c1c;"/>
            <path d="M27.2,42.78c-.11.02-.23-.04-.27-.15-.04-.12.02-.25.15-.29,1-.33,1.93-.71,2.76-1.12,0,0,.02-.01.03-.01,6.79-3.39,5.02-8.33,4.36-10.19l-.07-.19c-.04-.12.02-.25.14-.29.12-.04.25.02.29.14l.07.19c.7,1.96,2.57,7.17-4.56,10.75,0,0-.02.01-.02.02h0c-.85.42-1.81.81-2.84,1.16,0,0-.02,0-.03,0Z" style="fill: #1e1c1c;"/>
            <path d="M21.46,42.05h-.06c-.12.04-.27-.04-.3-.16-.03-.13.02-.25.14-.27.04,0,.08-.01.12-.02,0,0,.03,0,.06-.02.61-.15,1.23-.46,1.87-.94.35-.27.7-.58,1.02-.91.37-.37.73-.79,1.16-1.34.27-.35.54-.73.81-1.12.35-.52.66-1,.92-1.46,0-.01,0-.02.01-.03.25-.42.48-.83.7-1.24.31-.57.59-1.11.82-1.59.16-.32.31-.62.44-.89l.17-.35c.22-.47.4-.84.51-1.07.06-.11.2-.16.31-.1.11.06.16.2.1.31-.11.22-.29.59-.51,1.06l-.17.35c-.13.28-.28.58-.44.9-.24.49-.52,1.03-.83,1.61-.22.4-.45.81-.69,1.23,0,.01,0,.02-.01.03-.28.47-.59.97-.95,1.51-.27.4-.55.78-.82,1.14-.44.57-.82,1-1.2,1.38-.33.34-.69.66-1.07.95-.69.52-1.37.87-2.02,1.02-.02,0-.05.02-.09.02Z" style="fill: #1e1c1c;"/>
            <path d="M15.03,42.32s-.03,0-.05,0c-.13,0-.24-.1-.24-.23,0-.13.09-.23.22-.23h.02c.13,0,.23.1.23.23,0,.11-.08.21-.18.23Z" style="fill: #1e1c1c;"/>
            <path d="M32.47,31.88c-.06.01-.13.02-.2.02-.28,0-.55-.12-.75-.35-.19-.22-.3-.5-.3-.81,0-.63.47-1.15,1.05-1.16.28,0,.55.12.75.35.19.22.3.5.3.81,0,.55-.36,1.03-.85,1.14ZM32.16,30.06c-.28.06-.48.35-.48.68,0,.19.06.37.18.5.11.13.25.19.4.19.32,0,.58-.32.58-.69,0-.19-.06-.37-.18-.5-.11-.12-.25-.19-.4-.19-.03,0-.07,0-.1.01Z" style="fill: #1e1c1c;"/>
            <path d="M30.05,34.92c-.06.01-.12,0-.17-.03-.07-.04-.11-.12-.11-.2l.06-2.1c0-.13.11-.23.24-.22.13,0,.23.11.22.24l-.05,1.72,1.11-.55c.12-.06.25,0,.31.1.06.11.01.25-.1.31l-1.45.72s-.04.02-.05.02Z" style="fill: #1e1c1c;"/>
            <path d="M28.93,37c-.06.01-.12,0-.17-.03-.07-.04-.11-.12-.11-.2l.05-1.97c0-.13.11-.23.24-.22.13,0,.23.11.22.24l-.04,1.57,1.22-.66c.11-.06.25-.02.31.09.06.11.02.25-.09.31l-1.57.84s-.04.02-.06.02Z" style="fill: #1e1c1c;"/>
            <path d="M27.56,38.97c-.06.01-.13,0-.18-.04-.06-.04-.1-.11-.1-.19v-1.54c0-.13.11-.23.23-.23.13,0,.23.1.23.23v1.21s1.33-.49,1.33-.49c.12-.04.25.02.3.14.04.12-.02.25-.14.3l-1.64.6s-.02,0-.03,0Z" style="fill: #1e1c1c;"/>
            <path d="M25.96,40.8c-.08.02-.16,0-.21-.06-.06-.06-.08-.16-.05-.24l.44-1.27c.04-.12.18-.18.29-.14.12.04.19.17.14.29l-.29.83,1.02-.33c.12-.03.25.03.29.15.04.12-.03.25-.15.29l-1.46.47s-.01,0-.02,0Z" style="fill: #1e1c1c;"/>
            <path d="M25.3,41.92h0s-1.27.25-1.27.25c-.09.02-.19-.02-.24-.1-.05-.08-.05-.18,0-.26l.73-1.05c.07-.1.22-.13.32-.06.11.07.13.22.06.32l-.41.58.71-.14c.12-.02.25.06.27.18.02.12-.06.24-.18.27Z" style="fill: #1e1c1c;"/>
            <path d="M34.08,36.89s-.03,0-.05,0c-.1,0-.18-.06-.22-.15l-.39-1.06c-.04-.12.02-.25.14-.3.11-.05.25.01.3.13l.17.47.26-.74c.04-.12.17-.18.29-.14s.18.17.14.29l-.48,1.35c-.03.08-.09.13-.17.15Z" style="fill: #1e1c1c;"/>
            <path d="M34.14,34.63c-.07.02-.15,0-.21-.06l-.9-.84c-.09-.09-.1-.23-.01-.33.09-.09.23-.1.33-.01l.52.48.03-1.37c0-.13.11-.23.23-.23.13,0,.23.11.23.24l-.04,1.89c0,.09-.06.17-.14.21-.01,0-.03,0-.04.01Z" style="fill: #1e1c1c;"/>
            <path d="M33.32,38.32c-.05.01-.11,0-.16-.02-.11-.06-.16-.2-.1-.31l.28-.53c.06-.11.2-.16.31-.1.11.06.16.2.1.31l-.28.53c-.03.06-.09.1-.16.12Z" style="fill: #1e1c1c;"/>
            <path d="M30.85,40.93c-.07.02-.15,0-.21-.06l-1.54-1.54c-.09-.09-.09-.24,0-.33.09-.09.24-.09.33,0l1.54,1.54c.09.09.09.24,0,.33-.03.03-.07.05-.12.06Z" style="fill: #1e1c1c;"/>
            <path d="M29.8,41.73c-.07.02-.15,0-.21-.06l-1.37-1.37c-.09-.09-.09-.24,0-.33.09-.09.24-.09.33,0l1.37,1.37c.09.09.09.24,0,.33-.03.03-.07.05-.12.06Z" style="fill: #1e1c1c;"/>
            <path d="M28.52,42.3c-.07.02-.15,0-.21-.06l-1.03-1.03c-.09-.09-.09-.24,0-.33.09-.09.24-.09.33,0l1.03,1.03c.09.09.09.24,0,.33-.03.03-.07.05-.12.06Z" style="fill: #1e1c1c;"/>
            <path d="M31.71,39.94c-.07.02-.15,0-.21-.06l-1.59-1.59c-.09-.09-.09-.24,0-.32.09-.09.24-.09.33,0l1.59,1.59c.09.09.09.24,0,.33-.03.03-.07.05-.12.06Z" style="fill: #1e1c1c;"/>
            <path d="M32.37,38.75c-.07.02-.15,0-.21-.06l-1.51-1.51c-.09-.09-.09-.24,0-.33.09-.09.24-.09.33,0l1.51,1.51c.09.09.09.24,0,.33-.03.03-.07.05-.12.06Z" style="fill: #1e1c1c;"/>
            <path d="M32.79,37.33c-.07.02-.15,0-.21-.06l-1.27-1.26c-.09-.09-.09-.24,0-.33.09-.09.24-.09.33,0l1.27,1.26c.09.09.09.24,0,.33-.03.03-.07.05-.12.06Z" style="fill: #1e1c1c;"/>
            <path d="M32.86,35.55c-.07.02-.15,0-.21-.06l-.77-.77c-.09-.09-.09-.24,0-.33.09-.09.24-.09.33,0l.77.77c.09.09.09.24,0,.33-.03.03-.07.05-.12.06Z" style="fill: #1e1c1c;"/>
            <path d="M23.97,37.17s0,0-.01,0c-.13.02-.24-.07-.26-.19-.02-.1-.02-.21-.02-.32,0-1.24.82-2.35,2.01-2.7.26-.08.52-.12.8-.12.26,0,.5.03.72.1.39.1.75.28,1.06.54.1.08.11.23.03.32-.08.1-.23.11-.33.03-.26-.22-.56-.37-.89-.45-.19-.05-.39-.08-.6-.08-.23,0-.45.03-.66.1-.99.29-1.68,1.22-1.68,2.25,0,.08,0,.17.02.25.02.12-.06.23-.18.26Z" style="fill: #1e1c1c;"/>
            <path d="M25.35,37.06s0,0-.01,0c-.13.02-.24-.07-.26-.19,0-.07-.02-.14-.02-.21,0-.65.44-1.22,1.07-1.38.11-.03.23-.05.36-.05.42,0,.83.19,1.1.52.03.04.05.09.05.14,0,.13-.1.24-.22.24-.08,0-.16-.04-.2-.11-.19-.21-.46-.33-.73-.33-.08,0-.16.01-.24.03-.43.11-.72.49-.72.93,0,.05,0,.1.01.15.02.12-.06.24-.18.26Z" style="fill: #1e1c1c;"/>
            <path d="M27.74,31.8s-.05,0-.07,0c-.13-.01-.22-.12-.21-.25.13-1.38,1.28-2.47,2.68-2.53.13,0,.24.09.24.22,0,.13-.09.23-.22.24-1.16.05-2.12.95-2.23,2.11,0,.1-.09.18-.18.2Z" style="fill: #1e1c1c;"/>
            <path d="M31.22,29.65s-.03,0-.05,0c-.13,0-.23-.1-.24-.23,0-.13.1-.23.23-.23h0c.13,0,.23.1.24.23,0,.11-.08.21-.18.23Z" style="fill: #1e1c1c;"/>
            <path d="M29.29,32.68s-.03,0-.04,0c-.13,0-.23-.1-.23-.23s.1-.24.23-.24c.13,0,.23.1.24.23h0c0,.12-.07.21-.18.23Z" style="fill: #1e1c1c;"/>
            <path d="M29.13,31.84s-.06,0-.09,0c-.13-.02-.21-.15-.18-.27.12-.62.65-1.1,1.27-1.15.13,0,.24.08.25.21.01.13-.08.24-.21.25-.43.03-.78.36-.86.78-.02.09-.09.16-.18.18Z" style="fill: #1e1c1c;"/>
            <path d="M25.8,34.41h-.02c-.13.02-.24-.07-.26-.19,0-.04,0-.08,0-.12,0-1.31.87-2.43,2.12-2.74.23-.06.45-.08.68-.08.28,0,.56.04.83.12.19.06.36.13.52.22.11.06.15.2.09.31-.06.11-.2.15-.31.09-.13-.07-.27-.13-.43-.18-.23-.07-.46-.1-.69-.11-.19,0-.38.03-.57.07-1.04.26-1.77,1.2-1.77,2.28,0,.03,0,.05,0,.08.02.12-.06.23-.18.26Z" style="fill: #1e1c1c;"/>
            <path d="M27.18,34.36s0,0-.01,0c-.13.02-.24-.04-.26-.17,0-.03,0-.07,0-.11,0-.62.38-1.16.96-1.36.15-.05.31-.08.46-.08.27,0,.52.07.75.21.11.07.14.21.08.32-.06.11-.21.14-.32.08-.15-.09-.33-.14-.5-.14-.11,0-.22.02-.31.05-.39.14-.65.5-.65.91.02.12-.06.26-.18.29Z" style="fill: #1e1c1c;"/>
            <path d="M22.27,39.45s-.04,0-.06,0c-.13,0-.23-.12-.22-.24.06-1.14.79-2.11,1.86-2.49.29-.11.61-.17.94-.17.19,0,.38.02.56.05.47.1.91.31,1.27.62.1.08.11.23.03.33-.08.1-.23.11-.33.03-.3-.26-.66-.43-1.06-.52-.15-.03-.31-.05-.47-.04-.28,0-.54.05-.78.14-.9.31-1.51,1.13-1.55,2.08,0,.11-.08.19-.18.21Z" style="fill: #1e1c1c;"/>
            <path d="M23.65,39.57s-.03,0-.05,0c-.13,0-.23-.11-.23-.23,0-.62.41-1.16,1.01-1.34.14-.04.28-.06.41-.06.39,0,.76.15,1.03.43.09.09.09.24,0,.33-.09.09-.24.09-.33,0-.18-.19-.43-.29-.69-.29-.09,0-.19.01-.28.04-.4.12-.67.49-.68.9,0,.11-.08.2-.18.22Z" style="fill: #1e1c1c;"/>
            <path d="M22.25,44.51s-.03,0-.04,0c-.13,0-.24-.09-.24-.22,0-.13.09-.24.22-.24h0c.13,0,.24.09.24.22,0,.11-.07.21-.18.24Z" style="fill: #1e1c1c;"/>
            <path d="M20.16,42.07h0c-.13.02-.24-.06-.26-.18,0-.04,0-.08,0-.12,0-1.37.96-2.52,2.3-2.78.16-.03.33-.05.5-.05.35,0,.68.06,1,.19.35.13.67.33.95.6.09.09.1.24,0,.33-.09.09-.23.1-.33,0-.23-.22-.5-.39-.8-.5-.27-.1-.55-.16-.83-.15-.14,0-.28.01-.42.04-1.11.2-1.93,1.17-1.92,2.31v.05c.02.12-.06.24-.18.26Z" style="fill: #1e1c1c;"/>
            <path d="M21.55,42.09s-.03,0-.04,0c-.13,0-.23-.1-.23-.23,0-.02,0-.04,0-.06,0,0,0-.05,0-.05,0-.7.53-1.31,1.22-1.41.06-.01.13-.02.2-.02.33,0,.64.11.89.31.1.08.12.23.03.32-.08.1-.23.11-.33.03-.17-.14-.38-.21-.6-.21-.05,0-.09,0-.13.01-.47.06-.83.48-.83.95l-.23.05h.23s0,.05,0,.05c0,.11-.08.21-.18.23Z" style="fill: #1e1c1c;"/>
          </g>
        </g>
        <g>
          <g>
            <path d="M28.2,12.73c0,.19-.06.38-.16.52-.17.25-.45.4-.76.4h-10.16c-.31.01-.6-.14-.76-.39-.1-.15-.16-.33-.16-.52,0-.26.1-.49.27-.65.17-.17.4-.27.65-.27h10.16c.51-.02.93.4.93.91Z" style="fill: #f1c256;"/>
            <path d="M17.57,11.82c-.46,0-.93-.82-.93-1.85s.82-1.85,1.84-1.85c.21,0,.41.03.59.1-.36.37-.59.92-.59,1.52,0,.78-.08,1.46.49,1.81.27.17.57.26.9.26h4.62c.33,0,.63-.1.9-.27.56-.36.48-1.04.48-1.82,0-.6-.23-1.15-.59-1.52.19-.07.38-.1.59-.1,1.02,0,1.85.82,1.85,1.84,0,1.02-.46,1.85-.92,1.85h-9.24Z" style="fill: #4a6c76;"/>
            <path d="M25.88,9.73c0-.6-.23-1.15-.59-1.52-.33-.35-.77-.56-1.26-.56-.22,0-.42.04-.62.12h0c-.32-.36-.75-.58-1.23-.58-.47,0-.9.22-1.22.59h0c-.19-.08-.4-.13-.62-.13-.48,0-.92.21-1.26.56-.36.37-.59.92-.59,1.52,0,.78-.08,1.46.49,1.81.27.17.57.26.9.26h4.62c.33,0,.63-.1.9-.27.56-.35.48-1.03.48-1.81ZM22.19,10.43c-.38,0-.69-.41-.69-.92,0-.51.31-.92.69-.93.38,0,.69.42.69.92,0,.51-.31.92-.69.93Z" style="fill: #f1c256;"/>
            <path d="M23.41,7.78h0c-.32-.36-.75-.58-1.23-.58-.47,0-.9.22-1.22.59h0c-.38.43-.62,1.04-.62,1.72,0,.62.2,1.17.51,1.59.34.44.81.72,1.34.72.53,0,1-.28,1.34-.72.31-.42.51-.98.51-1.59,0-.68-.24-1.3-.62-1.72ZM22.19,10.43c-.38,0-.69-.41-.69-.92,0-.51.31-.92.69-.93.38,0,.69.42.69.92,0,.51-.31.92-.69.93Z" style="fill: #c42c27;"/>
            <path d="M17.98,37.79l-.49.59.58.69-.08.1-2.22,2.67-2-2.77.53-.64-.53-.74c-.63-1.78-2.8-7.06,4.4-10.67-3.85,2.82-2.88,6.97-2.41,7.89l2.31,2.77-.08.1Z" style="fill: #f1c256;"/>
            <path d="M16.68,37.69c0,.51-.36.92-.82.93-.45,0-.82-.41-.82-.92,0-.51.36-.92.81-.92.45,0,.82.41.82.92Z" style="fill: #c42c27;"/>
            <path d="M26.83,26.59s-.04,0-.06,0c-4.29.87-7.89,9.52-8.7,11.09l-2.31-2.77c.61-2.48,2.89-5.99,5.57-8.04,1.32-1.01,2.74-1.67,4.12-1.67h0s0,0,0,0c0,.77.62,1.38,1.39,1.38Z" style="fill: #f1c256;"/>
            <path d="M21.32,26.88c-2.68,2.05-4.96,5.56-5.57,8.04-.46-.92-1.44-5.07,2.41-7.89,0,0,0,0,0,0,.81-.4,1.74-.79,2.81-1.14l.34,1Z" style="fill: #4a6c76;"/>
            <path d="M17.98,37.79c.53-.05.96-.45,1.07-.97-.17-.05-.32-.12-.47-.2.17-.36.38-.79.61-1.25.18.11.4.18.62.18.13,0,.27-.02.39-.06.47-.16.8-.61.8-1.13,0-.03,0-.06,0-.09-.36-.09-.7-.26-.98-.49.22-.41.46-.82.7-1.24.22.26.56.44.93.44.11,0,.2-.01.3-.04.51-.13.89-.6.89-1.15,0-.06,0-.12-.02-.18-.44-.09-.84-.29-1.16-.57.26-.39.54-.77.82-1.13.22.23.52.36.86.36.12,0,.24-.02.35-.05.48-.15.84-.59.84-1.12-.33-.12-.63-.31-.87-.55.34-.35.69-.66,1.04-.93.2.17.46.26.74.26.06,0,.11,0,.17-.02.58-.08,1.02-.58,1.02-1.18v-.05s.2-.04.2-.04h1.18s0,.06,0,.09c0,1.27-.91,2.32-2.11,2.54-.05,1.06-.75,1.95-1.7,2.28.01.09.02.19.02.28,0,1.17-.78,2.16-1.84,2.47,0,.04,0,.07,0,.11,0,1.21-.83,2.22-1.95,2.5-.12,1.27-1.17,2.27-2.46,2.32l-.5-.79.5-.59Z" style="fill: #4a6c76;"/>
          </g>
          <g>
            <path d="M27.52,13.86c-.08.02-.16.03-.24.03h-10.16c-.38.01-.74-.17-.95-.49-.13-.19-.2-.42-.2-.65,0-.31.12-.6.34-.82.21-.21.5-.34.81-.34h10.16c.31-.01.6.11.82.32.22.22.34.51.34.82,0,.23-.07.46-.2.65-.16.25-.42.41-.71.48ZM16.96,12.07c-.13.03-.25.09-.34.19-.13.13-.21.3-.21.49,0,.14.04.27.12.39.13.19.34.3.57.3h10.16c.23-.01.45-.13.57-.32.08-.12.12-.25.12-.39,0-.18-.07-.36-.2-.49-.13-.13-.31-.2-.49-.2h-10.16s-.1.02-.14.03Z" style="fill: #1e1c1c;"/>
            <path d="M22.55,12.01c-.12.03-.24.04-.36.04-.58,0-1.13-.29-1.53-.81-.36-.47-.56-1.09-.56-1.73,0-.71.24-1.39.68-1.88.01-.01.02-.02.03-.03.37-.41.86-.64,1.37-.64.51,0,1,.23,1.37.63.01,0,.02.02.03.03.43.48.68,1.17.68,1.88,0,.64-.2,1.25-.55,1.73-.31.41-.72.68-1.16.78ZM21.11,7.96c-.34.4-.54.96-.53,1.54,0,.54.16,1.05.46,1.45.31.4.72.63,1.16.63.43,0,.85-.23,1.15-.63.3-.39.46-.91.46-1.45,0-.59-.2-1.15-.54-1.54,0,0-.02-.02-.03-.03-.29-.33-.67-.51-1.05-.51-.39,0-.76.18-1.05.51,0,0-.02.02-.03.03Z" style="fill: #1e1c1c;"/>
            <path d="M24.89,12c-.13.03-.26.04-.39.04-.13,0-.23-.1-.23-.23,0-.13.1-.23.23-.23.27,0,.53-.08.78-.23.37-.23.38-.65.37-1.36v-.26c0-.52-.2-1.01-.53-1.36-.24-.25-.54-.41-.85-.47-.08-.01-.16-.02-.24-.02-.19,0-.36.04-.53.11-.03.01-.06.02-.09.02-.13,0-.23-.1-.24-.23,0-.11.07-.2.16-.22.21-.09.45-.14.69-.13.11,0,.21,0,.32.03.42.07.8.28,1.11.6.42.43.66,1.04.66,1.68v.25c.01.71.02,1.37-.59,1.76-.2.13-.41.21-.63.26Z" style="fill: #1e1c1c;"/>
            <path d="M26.94,12.02s-.09.01-.13.01c-.13,0-.23-.1-.23-.23,0-.13.1-.23.23-.23.08,0,.18-.07.28-.19.25-.3.41-.86.41-1.43,0-.39-.14-.77-.41-1.07-.31-.35-.75-.55-1.21-.55-.18,0-.36.03-.51.08-.12.04-.25-.02-.3-.14-.04-.12.02-.25.14-.29.21-.07.43-.11.67-.11.6,0,1.17.25,1.56.7.34.38.52.87.52,1.37,0,.67-.2,1.33-.51,1.72-.16.19-.33.3-.51.34Z" style="fill: #1e1c1c;"/>
            <path d="M19.93,12.04s-.03,0-.05,0c-.36,0-.7-.1-1.02-.3-.61-.39-.61-1.05-.6-1.76v-.25c0-.64.24-1.25.66-1.68.25-.26.56-.46.89-.56.18-.05.35-.07.53-.07.25,0,.48.05.7.14.09.03.15.12.15.21,0,.13-.1.23-.23.23h0s-.06,0-.09-.02c-.16-.07-.34-.11-.53-.11-.14,0-.27.02-.4.06-.26.08-.49.22-.69.43-.33.35-.53.84-.53,1.36v.26c0,.71,0,1.13.38,1.36.24.15.51.23.78.23.13,0,.23.1.23.23,0,.11-.07.2-.18.23Z" style="fill: #1e1c1c;"/>
            <path d="M17.62,12.05s-.03,0-.05,0c-.63,0-1.16-.95-1.16-2.08,0-.87.55-1.66,1.37-1.95.21-.08.45-.13.71-.13.24,0,.46.04.67.11.12.04.18.17.14.29-.04.12-.17.18-.29.14-.16-.05-.33-.08-.51-.08-.2,0-.38.03-.54.1-.65.23-1.07.84-1.07,1.52,0,.94.42,1.62.69,1.62.13,0,.23.1.23.23,0,.11-.08.2-.18.23Z" style="fill: #1e1c1c;"/>
            <path d="M22.35,10.64c-.05.01-.11.02-.16.02-.21,0-.42-.09-.58-.25-.22-.22-.35-.55-.35-.9,0-.63.42-1.15.92-1.16.26,0,.5.13.67.36.16.21.25.49.25.79,0,.56-.32,1.04-.76,1.14ZM22.13,8.82c-.22.05-.4.35-.4.69,0,.23.08.44.21.58.05.05.14.12.25.12.26,0,.46-.33.46-.69,0-.19-.06-.38-.16-.51-.05-.07-.16-.18-.31-.18-.02,0-.04,0-.06,0Z" style="fill: #1e1c1c;"/>
            <path d="M22.35,10.64c-.05.01-.11.02-.16.02-.25,0-.5-.13-.67-.36-.16-.22-.25-.49-.25-.79,0-.63.42-1.15.92-1.16.25,0,.5.13.67.36.16.21.25.49.25.79,0,.56-.32,1.05-.76,1.14ZM22.13,8.82c-.22.05-.4.35-.4.69,0,.19.06.38.16.51.05.07.16.18.3.18.26,0,.46-.33.46-.69,0-.19-.06-.38-.16-.51-.05-.07-.16-.18-.31-.18-.02,0-.04,0-.06,0Z" style="fill: #1e1c1c;"/>
            <path d="M18.08,12.97s-.03,0-.05,0h-.92c-.13,0-.23-.1-.23-.23,0-.13.11-.23.23-.23h.92c.13,0,.23.1.23.23,0,.11-.08.2-.18.23Z" style="fill: #1e1c1c;"/>
            <path d="M22.7,12.96s-.03,0-.05,0h-.92c-.13,0-.23-.1-.23-.23s.11-.23.23-.23h.92c.13,0,.23.1.23.23,0,.11-.08.2-.18.23Z" style="fill: #1e1c1c;"/>
            <path d="M20.39,12.97s-.03,0-.05,0h-.92c-.13,0-.23-.1-.23-.23s.11-.23.23-.23h.92c.13,0,.23.1.23.23,0,.11-.08.2-.18.23Z" style="fill: #1e1c1c;"/>
            <path d="M27.32,12.96s-.03,0-.05,0h-.92c-.13,0-.23-.1-.23-.23,0-.13.11-.23.23-.23h.92c.13,0,.23.1.23.23,0,.11-.08.2-.18.23Z" style="fill: #1e1c1c;"/>
            <path d="M25.01,12.96s-.03,0-.05,0h-.92c-.13,0-.23-.1-.23-.23,0-.13.11-.23.23-.23h.92c.13,0,.23.1.23.23,0,.11-.08.2-.18.23Z" style="fill: #1e1c1c;"/>
            <path d="M21.37,27.11c-.11.02-.23-.04-.27-.15l-.34-1-.38-1.51-3.15-.34s-.08-.02-.11-.04l-.54-.41c-.06-.05-.09-.12-.09-.2l.07-1.15-.33-.7c-.03-.06-.03-.12,0-.18.02-.06.07-.11.12-.13l.7-.3-.69-.35c-.1-.05-.15-.18-.11-.28l.23-.64-.47-.09s-.09-.03-.12-.06l-.5-.47c-.08-.08-.1-.21-.03-.3l1.62-2.33-.42-.68c-.03-.06-.04-.12-.02-.18l.55-1.99c.04-.12.16-.19.29-.16.12.03.19.16.16.28l-.52,1.89.44.72c.05.08.04.18,0,.25l-1.59,2.29.3.29.67.12c.07.01.13.05.16.11.03.06.04.13.02.19l-.25.71.95.48c.08.04.13.12.12.21,0,.09-.06.17-.14.2l-.93.4.25.54s.02.08.02.12l-.07,1.08.39.3,3.24.35c.1.01.17.08.2.17l.41,1.64.34.98c.04.12-.02.25-.14.29,0,0-.02,0-.03.01Z" style="fill: #1e1c1c;"/>
            <path d="M18.15,17.62c-.09.02-.19-.02-.25-.11-.06-.11-.03-.25.08-.32l1.3-.77-1.46-.6c-.06-.02-.1-.07-.13-.13-.02-.06-.02-.12,0-.18l.34-.82c.05-.12.18-.17.3-.12.12.05.17.18.13.3l-.25.6,1.68.69c.08.03.14.11.14.2,0,.09-.04.17-.11.22l-1.7,1s-.05.02-.07.03Z" style="fill: #1e1c1c;"/>
            <path d="M18.57,17.38c-.08.02-.16,0-.22-.07-.41-.43-.49-1.02-.21-1.56.06-.11.2-.16.31-.1.11.06.16.2.1.31-.09.17-.26.62.13,1.03.09.09.08.24,0,.33-.03.03-.07.05-.11.06Z" style="fill: #1e1c1c;"/>
            <path d="M25.49,25.43c-.11.02-.23-.04-.27-.16l-3.69-11.55c-.04-.12.03-.25.15-.29.12-.04.25.03.29.15l3.69,11.55c.04.12-.03.25-.15.29h-.02Z" style="fill: #1e1c1c;"/>
            <path d="M23.81,15.82c-.12.02-.23-.04-.27-.16l-.62-1.93c-.04-.12.03-.25.15-.29.12-.04.25.03.29.15l.62,1.93c.04.12-.03.25-.15.29,0,0-.02,0-.02,0Z" style="fill: #1e1c1c;"/>
            <path d="M25.16,15.73c-.11.02-.23-.04-.27-.16l-.59-1.85c-.04-.12.03-.25.15-.29.12-.03.25.03.29.15l.59,1.85c.04.12-.03.25-.15.29,0,0-.01,0-.02,0Z" style="fill: #1e1c1c;"/>
            <path d="M26.55,15.73c-.11.02-.23-.04-.27-.16l-.59-1.85c-.04-.12.03-.25.15-.29.13-.04.25.03.29.15l.59,1.85c.04.12-.03.25-.15.29,0,0-.02,0-.02,0Z" style="fill: #1e1c1c;"/>
            <path d="M27.94,15.73c-.11.02-.23-.04-.27-.16l-.59-1.85c-.04-.12.03-.25.15-.29.12-.04.25.03.29.15l.59,1.85c.04.12-.03.25-.15.29,0,0-.01,0-.02,0Z" style="fill: #1e1c1c;"/>
            <path d="M27.17,26.79c-.11.02-.22.04-.34.04-.08,0-.16,0-.25-.02-.77-.11-1.37-.79-1.37-1.59,0-.76.54-1.43,1.28-1.58.11-.02.22-.03.34-.04.43,0,.84.17,1.14.47.31.3.48.71.48,1.14,0,.76-.54,1.42-1.28,1.58ZM26.59,24.08c-.53.11-.91.59-.91,1.13,0,.57.42,1.06.98,1.14.07.01.12.02.17.02.62,0,1.15-.53,1.15-1.16,0-.31-.12-.6-.34-.82-.22-.22-.51-.34-.82-.34-.08,0-.16,0-.24.03Z" style="fill: #1e1c1c;"/>
            <path d="M27.3,25.2c0,.25-.21.46-.46.46-.25,0-.46-.21-.46-.46,0-.26.21-.46.46-.46.25,0,.46.21.46.46Z" style="fill: #1e1c1c;"/>
            <path d="M32.71,26.78c-.11.02-.22.04-.34.03-.13,0-.23-.1-.23-.23,0-.13.11-.23.23-.23.31,0,.6-.12.82-.34.22-.22.34-.51.34-.82,0-.64-.52-1.15-1.16-1.15-.13,0-.23-.1-.23-.23,0-.13.11-.23.23-.23.89,0,1.62.72,1.62,1.62,0,.43-.17.84-.47,1.14-.22.22-.5.37-.8.44Z" style="fill: #1e1c1c;"/>
            <path d="M32.42,24.04s-.03,0-.05,0h-5.54c-.13,0-.23-.09-.23-.22,0-.13.11-.23.23-.23h5.54c.13,0,.23.1.23.22,0,.11-.08.2-.18.23Z" style="fill: #1e1c1c;"/>
            <path d="M32.42,26.81s-.03,0-.05,0h-5.53c-.13,0-.23-.09-.23-.22,0-.13.11-.23.23-.23h5.53c.13,0,.23.1.23.22,0,.11-.08.2-.18.23Z" style="fill: #1e1c1c;"/>
            <path d="M26.36,24.02c-.11.02-.22.03-.34.04-.89,0-1.62-.72-1.62-1.61,0-.87.74-1.62,1.62-1.62.43,0,.84.17,1.15.47.31.3.47.71.47,1.14,0,.76-.54,1.42-1.28,1.58ZM25.78,21.3c-.53.11-.91.59-.91,1.13,0,.64.52,1.15,1.16,1.15.63,0,1.15-.53,1.15-1.16,0-.31-.12-.6-.34-.82-.22-.22-.51-.34-.82-.34-.08,0-.16,0-.24.03Z" style="fill: #1e1c1c;"/>
            <path d="M26.49,22.43c0,.25-.21.46-.46.46-.26,0-.46-.21-.46-.46,0-.25.21-.46.46-.46.25,0,.46.21.46.46Z" style="fill: #1e1c1c;"/>
            <path d="M31.9,24.01c-.11.02-.22.03-.34.04-.13,0-.23-.1-.23-.23,0-.13.11-.23.23-.23.31,0,.6-.12.82-.34.22-.22.34-.51.34-.82,0-.31-.12-.6-.34-.82s-.51-.34-.82-.34c-.13,0-.23-.1-.23-.23,0-.13.11-.23.23-.23.43,0,.84.17,1.15.47.31.3.48.71.48,1.14,0,.43-.17.84-.47,1.15-.22.22-.5.37-.8.44Z" style="fill: #1e1c1c;"/>
            <path d="M31.61,21.27s-.03,0-.05,0h-5.54c-.13,0-.23-.1-.23-.22,0-.13.11-.23.23-.23h5.54c.13,0,.23.09.23.22,0,.11-.08.2-.18.23Z" style="fill: #1e1c1c;"/>
            <path d="M31.61,24.04s-.03,0-.05,0h-5.53c-.13,0-.23-.1-.23-.22,0-.13.11-.23.23-.23h5.54c.13,0,.23.1.23.22,0,.11-.08.21-.18.23Z" style="fill: #1e1c1c;"/>
            <path d="M25.47,21.24c-.11.02-.23.03-.34.04-.43,0-.84-.17-1.14-.47-.31-.3-.47-.71-.47-1.14,0-.87.73-1.62,1.61-1.62.43,0,.84.17,1.14.47.31.3.47.71.48,1.14,0,.76-.53,1.42-1.28,1.58ZM24.89,18.53c-.53.11-.91.59-.91,1.13,0,.31.12.6.34.82.22.22.51.34.82.34.63,0,1.15-.53,1.15-1.16,0-.31-.12-.6-.34-.82s-.51-.34-.82-.34c-.08,0-.16,0-.24.03Z" style="fill: #1e1c1c;"/>
            <path d="M25.59,19.66c0,.26-.21.46-.46.46-.25,0-.46-.21-.46-.46,0-.25.21-.46.46-.46.25,0,.46.21.46.46Z" style="fill: #1e1c1c;"/>
            <path d="M31.01,21.24c-.11.02-.22.03-.34.04-.13,0-.23-.1-.23-.23,0-.13.11-.23.23-.23.31,0,.6-.12.82-.34s.34-.51.34-.82c0-.31-.12-.6-.34-.82-.22-.22-.51-.34-.82-.34-.13,0-.23-.1-.23-.23,0-.13.1-.23.23-.23.43,0,.84.17,1.15.47.31.3.47.71.48,1.14,0,.43-.17.84-.47,1.15-.22.22-.5.37-.8.44Z" style="fill: #1e1c1c;"/>
            <path d="M30.72,18.5s-.03,0-.05,0h-5.54c-.13,0-.23-.1-.23-.22,0-.13.11-.23.23-.23h5.54c.13,0,.23.1.23.22,0,.11-.08.21-.18.23Z" style="fill: #1e1c1c;"/>
            <path d="M30.72,21.27s-.03,0-.05,0h-5.54c-.13,0-.23-.1-.23-.22,0-.13.11-.23.23-.23h5.54c.13,0,.23.1.23.22,0,.11-.08.2-.18.23Z" style="fill: #1e1c1c;"/>
            <path d="M24.59,18.47c-.11.02-.23.04-.34.04-.89,0-1.62-.72-1.62-1.62,0-.76.53-1.42,1.28-1.58.11-.02.22-.04.34-.04.89,0,1.62.72,1.62,1.62,0,.76-.54,1.42-1.28,1.58ZM24.01,15.76c-.53.11-.91.59-.91,1.13,0,.64.52,1.15,1.16,1.15.63,0,1.15-.53,1.15-1.16,0-.64-.52-1.15-1.16-1.15-.08,0-.16,0-.24.03Z" style="fill: #1e1c1c;"/>
            <path d="M24.71,16.89c0,.25-.21.46-.46.46-.25,0-.46-.21-.46-.46,0-.26.21-.46.46-.46.26,0,.46.21.46.46Z" style="fill: #1e1c1c;"/>
            <path d="M30.12,18.47c-.11.02-.22.04-.34.04-.13,0-.23-.1-.23-.23,0-.13.11-.23.23-.23.64,0,1.15-.52,1.15-1.16,0-.64-.52-1.15-1.16-1.15-.13,0-.23-.1-.23-.23,0-.13.1-.23.23-.23.89,0,1.62.72,1.62,1.62,0,.78-.55,1.43-1.28,1.58Z" style="fill: #1e1c1c;"/>
            <path d="M29.83,15.72s-.03,0-.05,0h-5.54c-.13,0-.23-.1-.23-.22,0-.13.11-.23.23-.23h5.54c.13,0,.23.1.23.22,0,.11-.08.21-.18.23Z" style="fill: #1e1c1c;"/>
            <path d="M29.84,18.5s-.03,0-.05,0h-5.54c-.13,0-.23-.1-.23-.22,0-.13.11-.23.23-.23h5.54c.13,0,.23.1.23.22,0,.11-.08.2-.18.23Z" style="fill: #1e1c1c;"/>
            <path d="M15.8,35.15s-.02,0-.02,0c-.1,0-.19-.04-.23-.13-.49-.98-1.51-5.24,2.47-8.17.04-.03.1-.06.15-.06.13,0,.23.1.24.23,0,.07-.03.12-.07.17,0,.01-.02.02-.03.03-3.15,2.31-2.98,5.48-2.57,6.96.87-2.59,3.11-5.7,5.45-7.49,1.46-1.12,2.93-1.72,4.26-1.72.13,0,.23.1.23.23,0,.13-.1.23-.23.23-1.22,0-2.6.56-3.98,1.63-2.82,2.16-4.93,5.69-5.49,7.91-.02.09-.09.15-.17.17Z" style="fill: #1e1c1c;"/>
            <path d="M15.81,40.69s-.04,0-.06,0c-.07,0-.14-.04-.18-.1l-2-2.77c-.06-.08-.06-.19,0-.27l1.99-2.78c.04-.06.11-.09.18-.1.07,0,.14.03.19.08l2.31,2.77c.07.09.07.21,0,.29l-1.1,1.32s-.02.02-.03.03l-1.18,1.42s-.08.07-.13.08ZM14.05,37.7l1.72,2.39,1.01-1.22s.02-.02.03-.03l.95-1.14-2-2.39-1.72,2.4Z" style="fill: #1e1c1c;"/>
            <path d="M15.81,42.08s-.04,0-.06,0c-.07,0-.14-.04-.18-.1l-2-2.77c-.06-.09-.06-.2,0-.28l.53-.64c.08-.1.23-.11.32-.03.1.08.11.23.03.33l-.42.51,1.72,2.38,1.99-2.4-.46-.54c-.08-.1-.07-.24.03-.33.1-.08.24-.07.33.03l.58.69c.07.09.07.21,0,.29l-.08.1-2.23,2.67s-.08.07-.13.08Z" style="fill: #1e1c1c;"/>
            <path d="M13.81,37.92c-.11.02-.23-.04-.27-.15l-.07-.19c-.7-1.96-2.57-7.17,4.56-10.75,0,0,.02-.01.02-.01h0c.85-.42,1.81-.81,2.84-1.16.11-.04.25.02.29.14.04.12-.02.25-.14.29-1,.34-1.93.71-2.76,1.12,0,0-.02.01-.03.02-6.79,3.39-5.02,8.33-4.36,10.19l.07.19c.04.12-.02.25-.14.3,0,0-.02,0-.03,0Z" style="fill: #1e1c1c;"/>
            <path d="M18.12,37.92c-.05.01-.1,0-.15-.02-.11-.06-.16-.2-.1-.31.11-.22.29-.59.51-1.06l.13-.27c.14-.3.3-.63.48-.98.24-.48.52-1.03.83-1.61.22-.4.45-.82.7-1.23,0,0,0-.02.01-.02.28-.49.6-.98.95-1.51.27-.4.54-.78.83-1.15.44-.57.82-1.01,1.19-1.38.33-.34.69-.66,1.07-.95.69-.52,1.37-.86,2.02-1.02.03-.01.09-.02.14-.03.13-.03.28.04.31.16.03.12-.01.25-.14.28-.03,0-.07.02-.12.02,0,0-.03,0-.06.02-.61.15-1.23.46-1.87.94-.36.27-.7.58-1.02.91-.36.36-.73.79-1.16,1.34-.27.36-.54.73-.81,1.12-.35.52-.65,1-.93,1.47,0,0,0,.02-.01.02-.25.42-.48.83-.7,1.24-.31.57-.59,1.11-.83,1.59-.17.35-.33.68-.48.98l-.13.27c-.22.47-.4.84-.51,1.07-.03.06-.09.11-.16.12Z" style="fill: #1e1c1c;"/>
            <path d="M33.22,26.56s-.03,0-.04,0c0,0-.03,0-.03,0-.13,0-.23-.11-.22-.24,0-.13.11-.23.24-.22.12,0,.23.11.23.23,0,.11-.07.2-.17.22Z" style="fill: #1e1c1c;"/>
            <path d="M16.07,38.83c-.06.01-.13.02-.2.02-.28,0-.55-.12-.75-.35-.19-.22-.3-.5-.3-.81,0-.62.47-1.15,1.05-1.15.58,0,1.05.52,1.05,1.15,0,.55-.36,1.03-.85,1.14ZM15.76,37.01c-.28.06-.48.35-.48.68,0,.19.06.37.18.5.11.12.25.19.41.19.32,0,.58-.32.58-.69,0-.38-.26-.69-.59-.69-.04,0-.07,0-.1.01Z" style="fill: #1e1c1c;"/>
            <path d="M18.11,36.07s-.04,0-.06,0c-.13,0-.23-.11-.22-.24l.05-1.72-1.11.55c-.12.06-.25,0-.31-.1-.06-.11-.01-.25.1-.31l1.45-.72c.07-.04.16-.03.23.01.07.04.11.12.11.2l-.06,2.1c0,.11-.08.19-.18.22Z" style="fill: #1e1c1c;"/>
            <path d="M19.24,33.85s-.04,0-.05,0c-.13,0-.23-.11-.23-.24l.04-1.57-1.22.66c-.11.06-.25.02-.31-.09-.06-.11-.02-.25.09-.31l1.57-.84c.07-.04.16-.04.23,0,.07.04.11.12.11.2l-.05,1.97c0,.11-.08.2-.18.22Z" style="fill: #1e1c1c;"/>
            <path d="M20.67,31.46s-.03,0-.05,0c-.13,0-.23-.1-.23-.23v-1.21s-1.33.49-1.33.49c-.12.04-.25-.02-.3-.14-.05-.12.02-.25.14-.3l1.64-.6c.07-.03.15-.01.21.03.06.04.1.11.1.19v1.55c0,.11-.07.2-.18.23Z" style="fill: #1e1c1c;"/>
            <path d="M21.84,29.36s-.08,0-.12,0c-.12-.04-.19-.17-.14-.29l.29-.83-1.02.33c-.12.04-.25-.03-.29-.15-.04-.12.03-.25.15-.29l1.46-.46c.09-.03.17,0,.24.06.06.06.08.15.05.24l-.44,1.27c-.03.08-.1.13-.17.15Z" style="fill: #1e1c1c;"/>
            <path d="M23.47,27.77c-.06.01-.13,0-.18-.04-.1-.07-.13-.22-.06-.32l.4-.58-.71.14c-.13.02-.25-.06-.27-.18-.02-.12.06-.25.18-.27l1.27-.25c.09-.02.19.02.24.1.05.08.05.18,0,.26l-.73,1.05c-.03.05-.08.08-.14.09Z" style="fill: #1e1c1c;"/>
            <path d="M13.68,33.35s-.08,0-.12,0c-.12-.04-.18-.18-.14-.29l.47-1.35c.03-.09.12-.15.22-.15.1,0,.19.06.22.15l.39,1.07c.04.12-.02.25-.14.3-.12.04-.25-.02-.3-.14l-.17-.46-.26.74c-.03.08-.09.13-.17.15Z" style="fill: #1e1c1c;"/>
            <path d="M14.05,36.14s-.03,0-.05,0c-.13,0-.23-.11-.23-.23l.04-1.89c0-.09.06-.17.14-.21.08-.04.18-.02.25.04l.9.84c.09.09.1.23.01.33-.09.09-.23.1-.33.01l-.52-.48-.03,1.37c0,.11-.08.2-.18.22Z" style="fill: #1e1c1c;"/>
            <path d="M14.63,31.1c-.05.01-.11,0-.16-.02-.11-.06-.16-.2-.1-.31l.28-.53c.06-.11.2-.15.31-.1.11.06.16.2.1.31l-.28.53c-.03.06-.09.11-.16.12Z" style="fill: #1e1c1c;"/>
            <path d="M18.92,29.49c-.07.02-.15,0-.21-.06l-1.54-1.54c-.09-.09-.09-.24,0-.33.09-.09.24-.09.33,0l1.54,1.54c.09.09.09.24,0,.33-.03.03-.07.05-.11.06Z" style="fill: #1e1c1c;"/>
            <path d="M19.8,28.52c-.07.02-.15,0-.21-.06l-1.37-1.37c-.09-.09-.09-.24,0-.33.09-.09.24-.09.33,0l1.37,1.36c.09.09.09.24,0,.33-.03.03-.07.05-.11.06Z" style="fill: #1e1c1c;"/>
            <path d="M20.74,27.62c-.07.02-.15,0-.21-.06l-1.03-1.03c-.09-.09-.09-.24,0-.33.09-.09.24-.09.33,0l1.03,1.03c.09.09.09.24,0,.33-.03.03-.07.05-.12.06Z" style="fill: #1e1c1c;"/>
            <path d="M18.12,30.53c-.07.02-.15,0-.21-.06l-1.59-1.59c-.09-.09-.09-.24,0-.33s.24-.09.33,0l1.59,1.59c.09.09.09.24,0,.33-.03.03-.07.05-.11.06Z" style="fill: #1e1c1c;"/>
            <path d="M17.38,31.64c-.07.02-.15,0-.21-.06l-1.51-1.51c-.09-.09-.09-.24,0-.33.09-.09.24-.09.33,0l1.51,1.51c.09.09.09.24,0,.33-.03.03-.07.05-.11.06Z" style="fill: #1e1c1c;"/>
            <path d="M16.71,32.82c-.07.02-.15,0-.21-.06l-1.27-1.26c-.09-.09-.09-.24,0-.33.09-.09.24-.09.33,0l1.27,1.26c.09.09.09.24,0,.33-.03.04-.07.05-.12.06Z" style="fill: #1e1c1c;"/>
            <path d="M16.14,34.1c-.07.02-.15,0-.21-.06l-.77-.77c-.09-.09-.09-.24,0-.33.09-.09.24-.09.33,0l.77.77c.09.09.09.24,0,.33-.03.03-.07.05-.12.06Z" style="fill: #1e1c1c;"/>
            <path d="M22.23,34.53c-.19.04-.38.06-.58.06-.26,0-.5-.03-.72-.1-.38-.1-.75-.28-1.06-.54-.1-.08-.11-.23-.03-.33.08-.1.23-.11.33-.03.26.21.57.37.89.45.19.05.39.08.6.08.23,0,.45-.03.66-.1.99-.29,1.68-1.22,1.68-2.25,0-.09,0-.17-.02-.25-.02-.13.07-.24.2-.26.13-.02.24.07.26.2.01.1.02.21.02.32,0,1.24-.82,2.35-2.01,2.69-.07.02-.14.04-.22.06Z" style="fill: #1e1c1c;"/>
            <path d="M21.93,33.18c-.09.02-.18.03-.27.03-.42,0-.83-.19-1.11-.52-.04-.05-.06-.12-.05-.19.02-.13.14-.21.27-.19.07.01.12.05.16.1.19.21.46.33.73.33.08,0,.16-.01.24-.03.43-.11.73-.49.72-.93,0-.05,0-.1,0-.15-.02-.13.06-.24.19-.26.13-.02.24.07.26.19.01.07.02.14.02.22,0,.65-.44,1.22-1.06,1.38-.03,0-.06.01-.08.02Z" style="fill: #1e1c1c;"/>
            <path d="M18.47,39.35c-.15.03-.31.05-.47.06-.13,0-.23-.09-.24-.22,0-.13.09-.23.22-.24,1.16-.05,2.12-.95,2.23-2.11.01-.13.13-.22.25-.21.13.01.22.13.21.25-.12,1.22-1.03,2.22-2.21,2.47Z" style="fill: #1e1c1c;"/>
            <path d="M17.02,39.24s-.02,0-.04,0h0c-.13,0-.23-.09-.24-.22,0-.13.1-.24.22-.24.13,0,.24.09.24.22,0,.11-.07.21-.18.24Z" style="fill: #1e1c1c;"/>
            <path d="M18.94,36.21s-.03,0-.04,0c-.13,0-.23-.09-.24-.22h0c0-.13.1-.24.22-.24.13,0,.23.1.24.22,0,.11-.07.21-.18.24Z" style="fill: #1e1c1c;"/>
            <path d="M18.18,38c-.06.01-.11.02-.17.03-.13.01-.24-.08-.25-.21-.01-.13.08-.24.21-.25.42-.04.78-.36.86-.78.02-.12.15-.21.27-.18s.21.15.18.27c-.11.57-.55,1.01-1.1,1.13Z" style="fill: #1e1c1c;"/>
            <path d="M20.4,37.11c-.19.04-.39.06-.58.06-.28,0-.56-.04-.83-.13-.19-.06-.36-.13-.52-.22-.11-.06-.15-.2-.09-.31.06-.11.2-.15.31-.09.13.07.27.13.42.18.23.07.46.11.69.11.19,0,.38-.02.57-.07,1.04-.26,1.77-1.2,1.77-2.28,0-.04,0-.06,0-.08-.01-.13.08-.25.2-.26.13-.01.24.08.26.2,0,.04,0,.08,0,.11,0,1.31-.87,2.43-2.12,2.75-.03,0-.07.02-.1.02Z" style="fill: #1e1c1c;"/>
            <path d="M20.11,35.75c-.1.02-.2.03-.3.03-.26,0-.52-.07-.74-.21-.11-.07-.14-.21-.08-.32.07-.11.21-.14.32-.08.15.09.33.14.5.14.11,0,.21-.02.31-.05.39-.14.65-.5.65-.91,0-.02,0-.04,0-.05-.02-.13.07-.24.2-.26.13-.02.24.07.26.2,0,.04,0,.08,0,.12,0,.61-.39,1.15-.96,1.35-.05.02-.11.03-.16.05Z" style="fill: #1e1c1c;"/>
            <path d="M23.92,31.82c-.18.04-.38.06-.58.06-.18,0-.37-.02-.56-.05-.47-.1-.91-.31-1.27-.62-.1-.08-.11-.23-.02-.32.08-.1.23-.11.32-.03.3.26.67.43,1.06.52.15.03.32.04.47.05.28,0,.54-.05.78-.14.9-.31,1.5-1.13,1.55-2.07,0-.13.12-.22.24-.22.13,0,.22.11.22.24-.06,1.14-.79,2.11-1.86,2.49-.12.04-.24.08-.36.11Z" style="fill: #1e1c1c;"/>
            <path d="M23.64,30.46c-.1.02-.2.03-.3.03-.39,0-.76-.15-1.03-.43-.09-.09-.09-.24,0-.33s.24-.08.33,0c.18.19.43.29.69.29.09,0,.19-.02.28-.04.4-.12.67-.49.68-.91,0-.13.11-.23.23-.23.13,0,.23.11.23.23,0,.62-.41,1.16-1.01,1.34-.04.01-.08.02-.11.03Z" style="fill: #1e1c1c;"/>
            <path d="M25.99,24.37s-.03,0-.05,0h0c-.13,0-.23-.1-.23-.23,0-.13.11-.23.23-.23.13,0,.24.1.24.23,0,.11-.07.21-.18.23Z" style="fill: #1e1c1c;"/>
            <path d="M26.04,29.43s-.06.01-.09.02c-.16.03-.33.05-.5.05-.35,0-.68-.06-1-.19-.35-.13-.67-.33-.95-.6-.09-.09-.1-.23,0-.33s.24-.1.33,0c.23.22.5.39.79.5.27.1.54.16.83.15.15,0,.29-.01.42-.04,1.14-.19,1.92-1.18,1.92-2.31,0-.02,0-.04,0-.05-.02-.13.07-.24.2-.26.13-.02.24.07.26.19,0,.04,0,.09,0,.13,0,1.33-.92,2.47-2.22,2.74Z" style="fill: #1e1c1c;"/>
            <path d="M25.74,28.07s-.06.01-.09.02c-.06,0-.13.02-.2.02-.32,0-.64-.11-.89-.31-.1-.08-.11-.23-.03-.33.08-.1.23-.11.32-.03.17.14.38.21.6.21.05,0,.09,0,.13-.01.48-.07.83-.48.83-.95,0,0,0-.05,0-.06,0,0,0-.03,0-.05,0-.13.11-.23.23-.23.13,0,.23.1.24.23,0,.02,0,.04,0,.06,0,0,0,.05,0,.05,0,.67-.48,1.25-1.13,1.39Z" style="fill: #1e1c1c;"/>
          </g>
        </g>
      </g>
      <path d="M2.62,9.44c.51-.35.71-.75.71-1.35V3.54s.75,0,.75,0v4.63c0,.84-.28,1.52-1.06,1.95l-.41-.68Z" style="fill: #191818;"/>
      <path d="M45.51,59c-.51.35-.71.75-.71,1.35v4.55s-.75,0-.75,0v-4.63c0-.84.28-1.52,1.06-1.95l.41.68Z" style="fill: #191818;"/>
      <path d="M4.28,15.98c.63,0,1.15-.58,1.14-1.28h0c0-1.28-1.61-1.02-2.18-2.56-.57,1.54-2.18,1.29-2.17,2.57,0,.71.52,1.28,1.15,1.28.36,0,.68-.19.89-.49-.49,1-.47,1.02-1.01,1.26h2.31c-.54-.24-.52-.26-1.01-1.26.21.29.53.49.89.48Z" style="fill: #191818;"/>
      <path d="M43.85,52.58c-.63,0-1.15.57-1.15,1.28h0c0,1.28,1.61,1.02,2.18,2.56.57-1.54,2.18-1.28,2.17-2.57,0-.71-.51-1.28-1.15-1.28-.36,0-.68.19-.89.49.49-1,.47-1.02,1.01-1.26h-2.31c.54.24.52.26,1.01,1.26-.21-.3-.53-.49-.89-.49Z" style="fill: #191818;"/>
      <path d="M12.88,15.16c.95,0,1.72-.86,1.72-1.92h0c0-1.92-2.41-1.54-3.27-3.84-.85,2.31-3.26,1.93-3.26,3.85,0,1.06.77,1.92,1.72,1.92.54,0,1.03-.29,1.34-.73-.73,1.5-.71,1.53-1.52,1.89h3.46c-.81-.36-.78-.39-1.52-1.89.32.44.79.73,1.34.73Z" style="fill: #191818;"/>
      <path d="M35.25,53.25c-.95,0-1.72.86-1.72,1.92h0c0,1.92,2.41,1.53,3.27,3.84.85-2.31,3.26-1.93,3.26-3.85,0-1.06-.77-1.92-1.72-1.92-.55,0-1.03.29-1.34.73.74-1.5.71-1.53,1.52-1.88h-3.46c.81.36.78.39,1.52,1.89-.32-.44-.79-.73-1.34-.73Z" style="fill: #191818;"/>
    </g>
  </g>
</svg>