<?xml version="1.0" encoding="UTF-8"?>
<svg id="Layer_2" data-name="Layer 2" xmlns="http://www.w3.org/2000/svg" width="48.11" height="68.41" viewBox="0 0 48.11 68.41">
  <g id="Layer_1-2" data-name="Layer 1">
    <g>
      <path d="M45.8,68.38l-25.04.02-18.38.02c-1.27,0-2.31-1.04-2.31-2.31L0,2.35C0,1.08,1.04.04,2.31.04h6.6s23.23-.03,23.23-.03h13.6c1.25-.01,2.27.99,2.31,2.22,0,.02,0,.05,0,.07l.06,63.76c0,1.27-1.04,2.31-2.31,2.31Z" style="fill: #fafafa;"/>
      <path d="M6.48,62.17s-.08-.03-.12-.06c-.04-.04-.07-.1-.07-.16l-.05-55.44c0-.06.02-.12.07-.16.04-.04.1-.07.16-.07l35.11-.03c.12,0,.23.1.23.23l.05,55.44c0,.13-.1.23-.23.23l-35.11.03s-.03,0-.05,0ZM6.7,6.73l.05,54.98,34.65-.03-.05-54.98-34.65.03Z" style="fill: #1e1c1c;"/>
      <g>
        <g>
          <path d="M17.13,41.84c-.09,0-1.3-.02-1.39,0,6.08-2.43,9.5-15.26,16.62-15.26l-.19.23-2.03,2.45-.08.1.58.69-2.75.24,1.22,2.42-3.1.23,1.51,2.77h0s0,0,0,0l-3.07.12s1.08,2.7,1.13,2.77l-2.9-.25s.58,2.46.63,2.54l-2.5-.4-.21,1.51c-.2-.12-.44-.18-.69-.18-.25,0-.49.07-.69.18-.2-.11-.44-.18-.69-.18-.25,0-.49.07-.69.18-.2-.11-.44-.18-.69-.18Z" style="fill: #4a6c76;"/>
          <path d="M30.98,26.58c.09,0,1.3.02,1.38,0-6.08,2.43-9.49,15.25-16.61,15.26l.19-.23,2.03-2.45.08-.1-.58-.69,2.75-.24-1.22-2.42,3.1-.23-1.51-2.77h0s0,0,0,0l3.07-.12s-1.08-2.7-1.13-2.77l2.9.25s-.58-2.46-.63-2.54l2.5.4.21-1.51c.2.12.44.18.69.18.25,0,.49-.07.69-.19.2.12.44.18.69.18.25,0,.49-.07.69-.19.2.12.44.18.69.19Z" style="fill: #4a6c76;"/>
        </g>
        <g>
          <g>
            <path d="M20.84,56.62l-.19.97c.06-.03.12-.05.19-.05.25,0,.46.21.46.46,0,.25-.21.46-.46.46-.13,0-.25-.06-.34-.15l-.58,2.92,2.31-2.31,3.7.92,3.7-.93,2.31,2.31-.58-2.92c-.09.09-.21.15-.34.15-.25,0-.46-.21-.46-.46,0-.25.21-.46.46-.46.07,0,.13.01.19.05l-.2-.97c.25,0,.48-.1.65-.27.17-.17.27-.4.27-.65,0-.51-.42-.92-.93-.92h-10.16c-.51,0-.92.43-.92.93,0,.51.42.92.93.92ZM27.77,57.54c.25,0,.46.21.46.46,0,.26-.21.46-.46.46-.26,0-.46-.21-.46-.46,0-.26.21-.46.46-.46ZM24.07,57.54c.25,0,.46.21.46.46,0,.25-.21.46-.46.46-.25,0-.46-.21-.46-.46,0-.25.21-.46.46-.46Z" style="fill: #f1c256;"/>
            <path d="M21.55,59.6l.67-.68,3.7.92,3.7-.93.67.68c-.62.82-2.34,1.41-4.37,1.41-2.03,0-3.75-.58-4.37-1.4Z" style="fill: #c42c27;"/>
            <path d="M26.79,41.55c2.68-2.05,4.96-5.56,5.57-8.04.46.92,1.44,5.07-2.42,7.89,0,0,0,0,0,0-.81.4-1.74.79-2.81,1.14l-.34-1Z" style="fill: #4a6c76;"/>
            <path d="M32.37,33.51l1.99-2.77c.62,1.78,2.8,7.06-4.41,10.66,3.86-2.82,2.88-6.96,2.42-7.89Z" style="fill: #c42c27;"/>
            <path d="M21.29,41.83c4.31-.8,7.95-9.52,8.77-11.1l2.31,2.77c-.62,2.48-2.89,5.99-5.57,8.04-1.32,1.01-2.75,1.67-4.12,1.67,0-.77-.62-1.39-1.39-1.39Z" style="fill: #c42c27;"/>
            <path d="M30.06,30.74c-.18.35-.51,1.07-.95,1.97l-1.22-2.42,2.75-.24-.58.69Z" style="fill: #f1c256;"/>
            <path d="M26,32.94l3.1-.23c-.43.87-.97,1.92-1.6,3l-1.51-2.77Z" style="fill: #f1c256;"/>
            <path d="M27.5,35.72c-.57.99-1.23,1.99-1.93,2.9-.05-.08-1.13-2.77-1.13-2.77l3.07-.12Z" style="fill: #f1c256;"/>
            <path d="M23.3,40.9c-.05-.08-.63-2.54-.63-2.54l2.9.25c-.7.9-1.47,1.7-2.27,2.29Z" style="fill: #f1c256;"/>
            <path d="M20.8,40.5l2.5.4c-.65.47-1.32.8-2.01.93-.25,0-.49.07-.69.19l.21-1.51Z" style="fill: #f1c256;"/>
            <path d="M34.31,35.73c0,.24-.19.43-.43.43-.24,0-.44-.19-.44-.43,0-.24.19-.44.43-.44.24,0,.43.19.44.43Z" style="fill: #f1c256;"/>
            <path d="M33.31,33.72c0-.31.25-.56.56-.56.31,0,.56.25.56.56,0,.31-.25.56-.56.56-.31,0-.56-.25-.56-.56Z" style="fill: #f1c256;"/>
            <path d="M29.63,34.05c0-.42.34-.75.76-.75.41,0,.76.34.76.75,0,.42-.34.76-.76.76-.42,0-.76-.34-.76-.76Z" style="fill: #f1c256;"/>
            <path d="M28.45,36.47c0-.42.34-.76.76-.76.42,0,.75.34.75.76,0,.42-.34.75-.75.75-.42,0-.76-.34-.76-.75Z" style="fill: #f1c256;"/>
            <path d="M27.06,38.52c0-.38.31-.69.69-.69.38,0,.69.31.69.69,0,.38-.31.69-.69.69-.38,0-.69-.31-.69-.69Z" style="fill: #f1c256;"/>
            <path d="M25.44,40.5c0-.31.25-.56.56-.56.31,0,.56.25.56.56,0,.31-.25.56-.56.56-.31,0-.56-.25-.56-.56Z" style="fill: #f1c256;"/>
            <path d="M23.75,41.78c0-.24.19-.43.43-.43.24,0,.44.19.43.43,0,.24-.19.44-.43.44-.24,0-.43-.19-.43-.43Z" style="fill: #f1c256;"/>
            <polygon points="30.63 30.04 30.05 29.35 30.14 29.25 32.36 26.58 34.36 29.35 33.83 29.99 34.36 30.73 32.37 33.51 30.06 30.74 30.14 30.64 30.63 30.04" style="fill: #f1c256;"/>
            <path d="M31.44,30.74c0-.51.36-.92.82-.93.45,0,.81.42.81.92,0,.51-.36.92-.81.92-.45,0-.82-.41-.82-.92Z" style="fill: #c42c27;"/>
          </g>
          <g>
            <path d="M20.6,56.83c-.53-.11-.92-.59-.92-1.13,0-.31.12-.6.34-.82.22-.22.51-.34.82-.34h10.16c.62,0,1.15.52,1.16,1.14,0,.31-.12.6-.34.82-.21.22-.5.34-.81.34h-10.16c-.08,0-.16,0-.24-.02ZM31.15,55.01s-.1-.01-.14-.01h-10.16c-.18,0-.36.08-.49.21-.13.13-.2.31-.2.49,0,.37.31.69.69.69h10.16c.19,0,.36-.08.49-.21.13-.13.21-.3.21-.49,0-.32-.23-.61-.55-.68Z" style="fill: #1e1c1c;"/>
            <path d="M19.87,61.46s-.04-.01-.06-.02c-.09-.05-.14-.15-.12-.25l.92-4.62c.03-.12.15-.21.27-.18.12.02.21.15.18.27l-.77,3.87,1.77-1.77c.06-.06.15-.08.22-.06l3.64.91,3.64-.91c.08-.02.16,0,.22.06l1.77,1.77-.78-3.87c-.03-.13.06-.25.18-.27.12-.03.25.06.27.18l.93,4.62c.02.1-.03.2-.12.25-.09.05-.2.03-.27-.04l-2.22-2.22-3.57.9s-.07.01-.11,0l-3.57-.89-2.22,2.22c-.06.06-.13.08-.21.06Z" style="fill: #1e1c1c;"/>
            <path d="M23.92,61.03c-1.17-.25-2.1-.71-2.55-1.29-.08-.1-.06-.25.05-.32.1-.08.24-.06.32.05.59.77,2.31,1.31,4.19,1.31,1.88,0,3.6-.54,4.18-1.32.08-.1.22-.12.32-.04.1.08.12.22.05.32-.68.9-2.51,1.5-4.55,1.5-.71,0-1.39-.07-2.01-.2Z" style="fill: #1e1c1c;"/>
            <path d="M27.63,58.68c-.32-.07-.55-.35-.55-.68,0-.38.31-.69.69-.69.37,0,.69.32.69.69,0,.18-.07.36-.2.49-.13.13-.3.2-.49.2-.05,0-.1,0-.14-.01ZM27.82,57.77s-.03,0-.05,0c-.13,0-.23.1-.23.23,0,.12.1.23.23.23.06,0,.12-.02.16-.07.04-.04.07-.1.07-.16,0-.11-.08-.2-.18-.23Z" style="fill: #1e1c1c;"/>
            <path d="M30.86,58.67c-.13-.03-.25-.09-.34-.19-.13-.13-.2-.31-.2-.49,0-.19.07-.36.2-.49s.3-.2.49-.2c.11,0,.21.02.3.07.11.06.16.2.1.31-.06.11-.2.15-.31.09-.02-.01-.05-.02-.08-.02-.06,0-.12.02-.16.07-.05.04-.07.1-.07.16,0,.06.02.12.07.16.05.04.1.07.16.07.08,0,.14-.04.18-.08.09-.09.23-.1.33,0,.09.09.1.23,0,.33-.14.14-.32.22-.51.22-.05,0-.1,0-.15-.01Z" style="fill: #1e1c1c;"/>
            <path d="M20.69,58.68c-.14-.03-.26-.1-.36-.2-.09-.09-.09-.24,0-.33.09-.09.24-.09.32,0,.03.03.09.08.18.08.06,0,.12-.02.16-.07.04-.05.07-.1.07-.16,0-.06-.02-.12-.07-.16-.04-.04-.1-.07-.16-.07-.04,0-.06,0-.08.02-.11.06-.25.02-.31-.09-.06-.11-.02-.25.09-.31.09-.05.19-.08.3-.08.18,0,.36.07.49.2.13.13.2.3.2.49,0,.19-.07.36-.2.49-.13.13-.31.2-.49.2-.05,0-.1,0-.14-.01Z" style="fill: #1e1c1c;"/>
            <path d="M23.93,58.68c-.32-.07-.55-.35-.55-.68,0-.38.31-.69.69-.69.37,0,.69.32.69.69,0,.38-.31.69-.69.69-.05,0-.1,0-.14-.02ZM24.12,57.77s-.03,0-.05,0c-.13,0-.23.1-.23.23,0,.12.1.23.23.23.12,0,.23-.11.23-.23,0-.11-.08-.2-.18-.23Z" style="fill: #1e1c1c;"/>
            <path d="M30.03,55.91c-.1-.02-.18-.12-.18-.23,0-.13.1-.23.23-.23h.92c.13,0,.23.1.23.23,0,.13-.1.23-.23.23h-.92s-.03,0-.05,0Z" style="fill: #1e1c1c;"/>
            <path d="M25.41,55.92c-.1-.02-.18-.11-.18-.23,0-.13.1-.23.23-.23h.92c.13,0,.23.1.23.23,0,.13-.1.23-.23.23h-.92s-.03,0-.05,0Z" style="fill: #1e1c1c;"/>
            <path d="M20.79,55.92c-.1-.02-.18-.11-.18-.23,0-.13.1-.23.23-.23h.92c.12,0,.23.1.23.23,0,.13-.1.23-.23.23h-.92s-.03,0-.05,0Z" style="fill: #1e1c1c;"/>
            <path d="M23.1,55.92c-.1-.02-.18-.11-.18-.23,0-.13.1-.23.23-.23h.92c.12,0,.23.1.23.23,0,.13-.1.23-.23.23h-.92s-.03,0-.05,0Z" style="fill: #1e1c1c;"/>
            <path d="M27.72,55.91c-.1-.02-.18-.11-.18-.23,0-.13.1-.23.23-.23h.92c.13,0,.23.1.23.23,0,.13-.1.23-.23.23h-.92s-.03,0-.05,0Z" style="fill: #1e1c1c;"/>
            <path d="M30.74,54.97h-.01c-.12-.04-.19-.16-.16-.29l.53-1.89-.44-.72c-.05-.08-.05-.18,0-.25l1.39-2.05-.86-.42c-.11-.05-.16-.18-.11-.29l.29-.77-1.02-.41c-.09-.04-.14-.12-.15-.21,0-.09.06-.18.14-.21l.96-.41-.22-.6s-.01-.04-.01-.06l-.07-1.02-.35-.45-3.13-.5c-.09-.02-.16-.08-.19-.17l-.41-1.64-.34-.98c-.04-.12.02-.25.14-.29.12-.04.25.02.29.14l.34,1,.38,1.51,3.07.49c.06,0,.11.04.15.09l.45.58s.05.08.05.13l.07,1.06.28.78c.04.11-.01.24-.13.29l-.64.27.71.29c.12.05.17.18.13.3l-.29.78.91.44c.06.03.1.08.12.15s0,.13-.03.19l-1.45,2.15.42.68c.03.06.04.12.03.18l-.55,1.99c-.03.12-.15.19-.27.16Z" style="fill: #1e1c1c;"/>
            <path d="M29.81,53.85s-.03,0-.04-.01c-.12-.05-.17-.19-.12-.3l.25-.61-1.68-.68c-.08-.03-.14-.11-.14-.2,0-.09.04-.17.11-.22l1.7-1c.11-.06.25-.03.32.08.06.11.03.25-.08.31l-1.3.77,1.46.6c.06.02.1.07.13.12.02.06.02.12,0,.18l-.34.82c-.04.1-.15.16-.26.14Z" style="fill: #1e1c1c;"/>
            <path d="M29.72,52.8s-.04-.01-.06-.02c-.11-.06-.16-.2-.1-.31.09-.17.26-.62-.13-1.03-.09-.09-.08-.24,0-.33.09-.09.24-.08.33,0,.41.43.49,1.02.21,1.56-.05.1-.15.14-.25.12Z" style="fill: #1e1c1c;"/>
            <path d="M22.63,43.44c-.1-.02-.18-.12-.18-.23,0-.31-.12-.6-.34-.82-.22-.22-.51-.34-.82-.34-.2,0-.4.05-.58.16-.11.06-.25.02-.31-.09-.06-.11-.02-.25.09-.31.25-.14.53-.22.81-.22.89,0,1.62.72,1.62,1.62,0,.13-.1.23-.23.23-.02,0-.03,0-.05,0Z" style="fill: #1e1c1c;"/>
            <path d="M21.24,43.45c-.1-.02-.18-.11-.18-.23,0-.41-.22-.8-.58-1-.18-.1-.37-.15-.58-.15-.2,0-.4.05-.58.15-.11.06-.25.03-.31-.09-.06-.11-.02-.25.09-.31.25-.14.53-.22.81-.22.28,0,.56.07.81.22.5.29.81.82.81,1.4,0,.13-.1.23-.23.23-.01,0-.03,0-.05,0Z" style="fill: #1e1c1c;"/>
            <path d="M19.85,43.45c-.1-.02-.18-.12-.18-.23,0-.41-.22-.8-.58-1-.18-.1-.38-.15-.58-.15-.2,0-.4.05-.58.16-.11.06-.25.02-.31-.09-.06-.11-.02-.25.09-.31.25-.14.53-.22.81-.22.28,0,.56.07.81.21.5.29.81.82.81,1.4,0,.13-.1.23-.23.23-.02,0-.03,0-.05,0Z" style="fill: #1e1c1c;"/>
            <path d="M18.47,43.45c-.1-.02-.18-.11-.18-.23,0-.41-.22-.8-.58-1-.18-.1-.37-.15-.58-.15-.07,0-.14,0-.21.02-.13.02-.25.07-.37.13-.11.06-.25.02-.31-.09-.06-.11-.02-.25.09-.31.17-.09.33-.15.51-.18.09-.02.19-.03.3-.03.28,0,.56.07.81.21.5.29.81.83.81,1.4,0,.13-.1.23-.23.23-.02,0-.03,0-.05,0Z" style="fill: #1e1c1c;"/>
            <path d="M15.41,44.81c-.74-.16-1.28-.82-1.28-1.58,0-.89.72-1.62,1.62-1.62.88,0,1.62.74,1.62,1.61,0,.89-.72,1.62-1.62,1.62-.11,0-.23-.01-.34-.04ZM15.99,42.09c-.08-.02-.16-.02-.24-.02-.64,0-1.16.52-1.16,1.16,0,.62.53,1.15,1.16,1.15.64,0,1.15-.52,1.15-1.16,0-.54-.39-1.02-.91-1.13Z" style="fill: #1e1c1c;"/>
            <path d="M24.54,49.43c-.08-.02-.15-.07-.17-.16l-1.91-5.98c-.04-.12.03-.25.15-.29.12-.04.25.03.29.15l1.91,5.98c.04.12-.03.25-.15.29-.04.01-.08.01-.12,0Z" style="fill: #1e1c1c;"/>
            <path d="M22.93,48.75c-.08-.02-.15-.07-.17-.16l-1.69-5.31c-.04-.12.03-.25.15-.29.12-.04.25.03.29.15l1.69,5.31c.04.12-.03.25-.15.29-.04.01-.08.01-.12,0Z" style="fill: #1e1c1c;"/>
            <path d="M21.48,48.53c-.08-.02-.15-.07-.17-.16l-1.62-5.08c-.04-.12.03-.25.15-.29.12-.04.25.03.29.15l1.62,5.09c.04.12-.03.25-.15.29-.04.01-.08.01-.12,0Z" style="fill: #1e1c1c;"/>
            <path d="M20.12,48.63c-.08-.02-.14-.07-.17-.15l-1.66-5.18c-.04-.12.03-.25.15-.29.12-.04.25.03.29.15l1.65,5.18c.04.12-.03.25-.15.29-.04.01-.08.01-.12,0Z" style="fill: #1e1c1c;"/>
            <path d="M20.77,55c-.08-.02-.15-.07-.17-.16l-3.68-11.55c-.04-.12.03-.25.15-.29.12-.04.25.03.29.15l3.68,11.55c.04.12-.03.25-.15.29-.04.01-.08.01-.12,0Z" style="fill: #1e1c1c;"/>
            <path d="M15.28,43.22c0-.25.21-.46.46-.46.26,0,.46.21.46.46,0,.25-.21.46-.46.46-.26,0-.46-.21-.46-.46Z" style="fill: #1e1c1c;"/>
            <path d="M27.72,54.99c-.1-.02-.18-.11-.18-.23,0-1.67-.65-3.23-1.83-4.41-1.18-1.18-2.75-1.83-4.41-1.82-.8,0-1.58.15-2.31.45-.12.05-.25,0-.3-.13-.05-.12,0-.25.13-.3.78-.32,1.62-.48,2.48-.48,1.79,0,3.47.69,4.74,1.96,1.27,1.26,1.97,2.95,1.97,4.73,0,.13-.1.23-.23.23-.02,0-.03,0-.05,0Z" style="fill: #1e1c1c;"/>
            <path d="M26.33,54.99c-.1-.02-.18-.11-.18-.23,0-2.67-2.18-4.85-4.86-4.85-.65,0-1.29.13-1.89.38-.12.05-.25,0-.3-.12-.05-.12,0-.25.12-.3.66-.28,1.35-.42,2.07-.42,2.93,0,5.32,2.38,5.32,5.31,0,.13-.1.23-.23.23-.02,0-.03,0-.05,0Z" style="fill: #1e1c1c;"/>
            <path d="M24.95,54.99c-.1-.02-.18-.11-.18-.23,0-.93-.36-1.8-1.02-2.45-.65-.65-1.53-1.01-2.45-1.01-.5,0-.99.11-1.45.32-.12.05-.25,0-.31-.11-.05-.12,0-.25.11-.31.52-.24,1.08-.36,1.65-.36,1.05,0,2.04.41,2.78,1.15.74.74,1.15,1.73,1.15,2.78,0,.13-.1.23-.23.23-.02,0-.03,0-.05,0Z" style="fill: #1e1c1c;"/>
            <path d="M23.56,54.99c-.1-.02-.18-.11-.18-.23,0-.55-.22-1.08-.61-1.47-.39-.39-.91-.61-1.47-.61-.35,0-.71.09-1.01.26-.11.06-.25.02-.31-.09-.06-.11-.02-.25.09-.31.38-.21.8-.32,1.24-.32.68,0,1.32.26,1.8.74.48.48.75,1.12.75,1.8,0,.13-.1.23-.23.23-.02,0-.03,0-.05,0Z" style="fill: #1e1c1c;"/>
            <path d="M22.18,54.99c-.1-.02-.18-.11-.18-.23,0-.18-.07-.36-.2-.49-.13-.13-.31-.2-.49-.2-.2,0-.38.08-.51.23-.08.09-.23.1-.33.02-.09-.09-.1-.23-.02-.33.22-.24.53-.38.86-.38.31,0,.6.12.81.34.22.22.34.51.34.82,0,.13-.1.23-.23.23-.02,0-.03,0-.05,0Z" style="fill: #1e1c1c;"/>
            <path d="M22.63,43.44c-.1-.02-.18-.12-.18-.23,0-.13.1-.23.23-.23,1.22,0,2.6-.56,3.98-1.62,2.82-2.16,4.94-5.69,5.49-7.91.02-.1.1-.16.2-.17.1-.01.19.04.23.12.49.98,1.51,5.24-2.48,8.17-.04.04-.09.06-.15.06-.13,0-.23-.1-.23-.23,0-.06.02-.12.06-.16.01-.01.02-.02.04-.03,3.15-2.31,2.98-5.48,2.58-6.96-.87,2.59-3.12,5.7-5.46,7.48-1.46,1.12-2.94,1.72-4.26,1.72-.02,0-.03,0-.05,0Z" style="fill: #1e1c1c;"/>
            <path d="M32.32,33.73c-.05-.01-.1-.04-.13-.08l-2.31-2.77c-.07-.08-.07-.21,0-.29l1.1-1.32s.02-.02.03-.03l1.18-1.42c.04-.05.11-.09.19-.08.07,0,.14.04.18.1l1.99,2.77c.06.08.06.19,0,.27l-1.99,2.77c-.04.06-.11.09-.18.1-.02,0-.04,0-.06,0ZM30.35,30.74l2,2.39,1.72-2.4-1.72-2.39-1.01,1.22s-.02.02-.03.03l-.95,1.14Z" style="fill: #1e1c1c;"/>
            <path d="M30.58,30.27s-.1-.04-.13-.08l-.58-.69c-.07-.08-.07-.21,0-.29l.08-.1,2.23-2.67c.04-.05.11-.09.19-.08.07,0,.14.04.18.1l1.99,2.77c.06.08.06.2,0,.28l-.53.64c-.08.1-.23.11-.33.03-.1-.08-.11-.23-.03-.33l.42-.51-1.72-2.38-1.99,2.4.46.55c.08.1.07.24-.03.33-.06.05-.13.06-.19.05Z" style="fill: #1e1c1c;"/>
            <path d="M27.09,42.77c-.08-.02-.14-.07-.17-.15-.04-.12.03-.25.15-.29,1-.34,1.93-.71,2.75-1.12,0,0,.02-.01.03-.02,6.79-3.39,5.02-8.33,4.36-10.19l-.07-.19c-.04-.12.02-.25.14-.3.12-.04.25.02.29.14l.07.19c.7,1.96,2.56,7.18-4.57,10.75,0,0-.02.01-.03.02h0c-.85.42-1.81.81-2.84,1.16-.04.01-.08.01-.12,0Z" style="fill: #1e1c1c;"/>
            <path d="M21.24,42.06c-.09-.02-.16-.09-.18-.18-.02-.13.06-.25.18-.27.62-.12,1.27-.42,1.91-.89.73-.53,1.48-1.29,2.23-2.24.65-.83,1.29-1.8,1.92-2.87,0,0,.01-.02.02-.03.52-.9,1.04-1.87,1.58-2.96.22-.45.41-.84.57-1.18.17-.35.3-.62.39-.8.06-.11.2-.16.31-.1.11.06.16.2.1.31-.09.18-.22.45-.38.79-.16.33-.35.73-.57,1.18-.54,1.11-1.07,2.09-1.6,3,0,.02-.02.03-.03.05-.63,1.08-1.28,2.05-1.93,2.89-.78.99-1.56,1.78-2.32,2.33-.7.51-1.41.84-2.1.97-.03,0-.06,0-.09,0Z" style="fill: #1e1c1c;"/>
            <path d="M32.06,31.87c-.49-.1-.85-.58-.85-1.13,0-.64.47-1.16,1.05-1.16.57,0,1.04.53,1.05,1.15,0,.64-.47,1.16-1.04,1.16-.07,0-.14,0-.2-.02ZM32.36,30.05s-.07-.01-.1-.01c-.32,0-.59.31-.59.69,0,.38.27.69.59.69.32,0,.58-.31.58-.69,0-.33-.21-.62-.48-.68Z" style="fill: #1e1c1c;"/>
            <path d="M30.74,40.92s-.08-.03-.12-.06l-1.54-1.54c-.09-.09-.09-.24,0-.33.09-.09.24-.09.33,0l1.54,1.54c.09.09.09.24,0,.33-.06.06-.14.08-.21.06Z" style="fill: #1e1c1c;"/>
            <path d="M29.69,41.72s-.08-.03-.12-.06l-1.37-1.37c-.09-.09-.09-.24,0-.33.09-.09.24-.09.33,0l1.37,1.37c.09.09.09.24,0,.33-.06.06-.14.08-.21.06Z" style="fill: #1e1c1c;"/>
            <path d="M28.41,42.29s-.08-.03-.12-.06l-1.03-1.03c-.09-.09-.09-.24,0-.33.09-.09.24-.09.33,0l1.03,1.03c.09.09.09.24,0,.33-.06.06-.14.08-.21.06Z" style="fill: #1e1c1c;"/>
            <path d="M31.6,39.93s-.08-.03-.12-.06l-1.59-1.59c-.09-.09-.09-.24,0-.33.09-.09.24-.09.33,0l1.59,1.59c.09.09.09.24,0,.33-.06.06-.14.08-.21.06Z" style="fill: #1e1c1c;"/>
            <path d="M32.26,38.75s-.08-.03-.11-.06l-1.51-1.51c-.09-.09-.09-.24,0-.33.09-.09.24-.09.33,0l1.51,1.51c.09.09.09.24,0,.33-.06.06-.14.08-.21.06Z" style="fill: #1e1c1c;"/>
            <path d="M32.68,37.32s-.08-.03-.12-.06l-1.27-1.26c-.09-.09-.09-.24,0-.33.09-.09.24-.09.33,0l1.27,1.27c.09.09.09.24,0,.33-.06.06-.14.08-.21.06Z" style="fill: #1e1c1c;"/>
            <path d="M32.75,35.55s-.08-.03-.11-.06l-.77-.77c-.09-.09-.09-.24,0-.32.09-.09.24-.09.33,0l.77.77c.09.09.09.24,0,.33-.06.06-.14.08-.21.06Z" style="fill: #1e1c1c;"/>
            <path d="M31.11,29.64c-.11-.02-.19-.12-.18-.23,0-.13.11-.23.23-.22h0c.13,0,.23.11.23.24,0,.13-.11.23-.24.23-.02,0-.03,0-.04,0Z" style="fill: #1e1c1c;"/>
            <path d="M29.19,32.67c-.1-.02-.18-.12-.18-.23,0-.13.11-.23.23-.23.13,0,.23.1.23.23h0c0,.13-.11.24-.24.23-.02,0-.03,0-.04,0Z" style="fill: #1e1c1c;"/>
            <path d="M29,37.43c-.45-.1-.78-.5-.78-.96,0-.54.44-.99.99-.99.53,0,.99.45.98.99,0,.54-.44.98-.98.98-.07,0-.14,0-.21-.02ZM29.32,35.96s-.07-.01-.11,0c-.29,0-.53.24-.53.53,0,.28.24.52.53.52.29,0,.52-.24.52-.52,0-.25-.17-.46-.41-.51Z" style="fill: #1e1c1c;"/>
            <path d="M30.19,35.02c-.45-.1-.78-.5-.78-.97,0-.54.44-.99.99-.98.54,0,.99.45.99.98,0,.55-.44.99-.99.99-.07,0-.14,0-.21-.02ZM30.5,33.54s-.07-.01-.11-.01c-.29,0-.53.23-.53.52,0,.28.24.53.53.53.29,0,.53-.24.52-.53,0-.25-.18-.46-.42-.51Z" style="fill: #1e1c1c;"/>
            <path d="M27.56,39.42c-.42-.09-.73-.47-.73-.9,0-.51.41-.92.92-.92.5,0,.92.42.92.92,0,.51-.41.92-.92.92-.07,0-.13,0-.2-.02ZM27.85,38.08s-.06-.01-.09,0c-.25,0-.46.2-.46.46,0,.25.21.46.46.46.25,0,.46-.2.46-.46,0-.22-.15-.4-.36-.45Z" style="fill: #1e1c1c;"/>
            <path d="M25.84,41.27c-.36-.08-.63-.4-.62-.77,0-.44.35-.79.79-.79.43,0,.79.36.79.79,0,.21-.08.41-.23.56-.15.15-.35.23-.56.23-.06,0-.11,0-.17-.02ZM26.07,40.17s-.05,0-.07,0c-.18,0-.33.15-.33.33,0,.18.15.33.33.33.18,0,.33-.15.33-.33,0-.16-.11-.29-.26-.33Z" style="fill: #1e1c1c;"/>
            <path d="M33.71,34.5c-.36-.08-.63-.4-.63-.77,0-.44.36-.79.79-.79.43,0,.79.36.79.79,0,.44-.35.79-.79.79-.06,0-.11,0-.17-.02ZM33.94,33.4s-.05,0-.07,0c-.18,0-.33.15-.33.33,0,.18.15.33.33.33.18,0,.33-.15.33-.33,0-.15-.11-.29-.26-.32Z" style="fill: #1e1c1c;"/>
            <path d="M24.04,42.43c-.31-.06-.53-.34-.53-.65,0-.37.3-.67.67-.67.36,0,.66.31.67.67,0,.18-.07.35-.19.47-.13.13-.29.2-.47.2-.05,0-.09,0-.14-.02ZM24.22,41.58c-.16,0-.25.09-.25.2,0,.11.1.2.2.2.05,0,.11-.02.14-.06.04-.04.06-.09.06-.15,0-.09-.07-.18-.16-.2Z" style="fill: #1e1c1c;"/>
            <path d="M33.74,36.38c-.31-.06-.53-.34-.53-.65,0-.37.3-.67.67-.67.36,0,.66.31.67.67,0,.37-.3.67-.67.67-.04,0-.09,0-.14-.01ZM33.92,35.53c-.15,0-.25.09-.25.2,0,.11.1.2.2.2.11,0,.2-.09.2-.2,0-.09-.07-.18-.16-.2Z" style="fill: #1e1c1c;"/>
            <path d="M33.19,37.26c0-.2.16-.37.37-.37.2,0,.37.16.37.37,0,.2-.16.37-.37.37-.2,0-.37-.16-.37-.37Z" style="fill: #1e1c1c;"/>
            <path d="M20.55,42.25c-.12-.02-.2-.14-.18-.26l.21-1.51c0-.06.04-.12.09-.16.05-.04.11-.05.17-.04l2.49.4c.12.02.21.14.19.26-.02.13-.14.21-.27.19l-2.26-.36-.17,1.28c-.02.13-.13.22-.26.2,0,0-.01,0-.02,0Z" style="fill: #1e1c1c;"/>
            <path d="M23.27,41.14c-.06-.01-.13-.05-.16-.11-.03-.04-.07-.11-.66-2.61-.02-.07,0-.15.05-.2.05-.06.12-.08.19-.08l2.9.25c.12,0,.22.12.21.25,0,.13-.12.22-.25.21l-2.58-.22c.21.89.49,2.06.54,2.18.07.11.03.24-.08.3-.05.03-.11.04-.16.03Z" style="fill: #1e1c1c;"/>
            <path d="M25.53,38.85c-.06-.01-.11-.05-.15-.1-.02-.03-.07-.1-1.16-2.82-.03-.07-.02-.15.02-.21.04-.06.11-.1.18-.11l3.07-.12v.46s-2.72.11-2.72.11c.4.99.94,2.33,1,2.44.08.1.05.24-.06.31-.05.04-.12.05-.18.04Z" style="fill: #1e1c1c;"/>
            <path d="M27.46,35.94c-.08-.02-.14-.07-.17-.14l-1.49-2.74c-.04-.07-.04-.15,0-.22.04-.07.11-.12.18-.12l3.1-.23c.13-.01.24.09.25.21,0,.13-.09.24-.21.25l-2.75.21,1.34,2.45s.03.07.03.11c0,.13-.11.23-.23.23-.02,0-.03,0-.05,0Z" style="fill: #1e1c1c;"/>
            <path d="M29.05,32.94c-.07-.01-.12-.06-.16-.12l-1.22-2.42c-.04-.07-.03-.15,0-.22.04-.07.11-.11.18-.12l2.75-.24c.13-.01.24.08.25.21s-.08.24-.21.25l-2.41.21,1.06,2.12c.06.12.01.25-.1.31-.05.03-.1.03-.15.02Z" style="fill: #1e1c1c;"/>
          </g>
        </g>
        <g>
          <g>
            <path d="M27.27,11.8l.19-.97c-.06.03-.12.05-.19.05-.25,0-.46-.21-.46-.46,0-.25.21-.46.46-.46.13,0,.25.06.34.15l.58-2.92-2.31,2.31-3.7-.92-3.69.93-2.31-2.31.59,2.92c.09-.09.21-.15.34-.15.25,0,.46.21.46.46,0,.25-.21.46-.46.46-.07,0-.14-.01-.19-.05l.2.97c-.25,0-.49.1-.65.27-.17.17-.27.4-.27.65,0,.51.42.92.93.92h10.16c.51,0,.92-.43.92-.93,0-.51-.42-.92-.93-.92ZM20.34,10.88c-.25,0-.46-.21-.46-.46,0-.25.21-.46.46-.46.26,0,.46.21.46.46,0,.25-.21.46-.46.46ZM24.04,10.88c-.25,0-.46-.21-.46-.46,0-.26.21-.46.46-.46.25,0,.46.21.46.46,0,.26-.21.46-.46.46Z" style="fill: #f1c256;"/>
            <path d="M26.56,8.81l-.67.68-3.7-.92-3.69.93-.68-.67c.62-.82,2.34-1.41,4.37-1.41,2.03,0,3.75.58,4.37,1.4Z" style="fill: #c42c27;"/>
            <path d="M21.32,26.87c-2.68,2.05-4.96,5.56-5.57,8.04-.46-.92-1.44-5.07,2.42-7.89,0,0,0,0,0,0,.81-.4,1.74-.79,2.81-1.14l.34,1Z" style="fill: #4a6c76;"/>
            <path d="M15.74,34.91l-1.99,2.77c-.63-1.78-2.8-7.06,4.41-10.66-3.86,2.82-2.88,6.97-2.42,7.89Z" style="fill: #c42c27;"/>
            <path d="M26.82,26.58c-4.31.8-7.95,9.52-8.77,11.1l-2.31-2.77c.62-2.48,2.89-5.99,5.57-8.04,1.32-1.01,2.75-1.67,4.12-1.67,0,.77.62,1.39,1.39,1.39Z" style="fill: #c42c27;"/>
            <path d="M18.06,37.68c.18-.35.51-1.07.95-1.97l1.22,2.42-2.75.24.58-.69Z" style="fill: #f1c256;"/>
            <path d="M22.11,35.47l-3.1.23c.43-.87.97-1.92,1.6-3l1.51,2.77Z" style="fill: #f1c256;"/>
            <path d="M20.61,32.7c.57-.99,1.23-1.99,1.93-2.9.05.08,1.13,2.77,1.13,2.77l-3.07.12Z" style="fill: #f1c256;"/>
            <path d="M24.81,27.51c.05.08.63,2.54.63,2.54l-2.9-.25c.71-.9,1.47-1.7,2.27-2.29Z" style="fill: #f1c256;"/>
            <path d="M27.31,27.91l-2.5-.4c.65-.47,1.32-.8,2.01-.93.25,0,.49-.07.69-.19l-.21,1.51Z" style="fill: #f1c256;"/>
            <path d="M13.8,32.69c0-.24.2-.43.43-.44.24,0,.43.19.43.43,0,.24-.19.43-.43.43-.24,0-.44-.19-.44-.43Z" style="fill: #f1c256;"/>
            <path d="M14.8,34.69c0,.31-.25.56-.56.56-.31,0-.56-.25-.56-.56,0-.31.25-.56.56-.56.31,0,.56.25.56.56Z" style="fill: #f1c256;"/>
            <path d="M18.48,34.36c0,.42-.34.75-.76.75-.41,0-.76-.34-.76-.75,0-.42.34-.76.76-.76.42,0,.76.34.76.75Z" style="fill: #f1c256;"/>
            <path d="M19.66,31.94c0,.42-.34.76-.76.76-.42,0-.75-.34-.75-.76,0-.42.34-.75.75-.75.42,0,.76.34.76.75Z" style="fill: #f1c256;"/>
            <path d="M21.05,29.89c0,.38-.31.69-.69.69-.38,0-.69-.31-.69-.69,0-.38.31-.69.69-.69.38,0,.69.31.69.69Z" style="fill: #f1c256;"/>
            <path d="M22.67,27.92c0,.31-.25.56-.56.56-.31,0-.56-.25-.56-.56,0-.31.25-.56.56-.56.31,0,.56.25.56.56Z" style="fill: #f1c256;"/>
            <path d="M24.37,26.64c0,.24-.19.43-.43.44-.24,0-.43-.2-.44-.43,0-.24.19-.43.44-.44.24,0,.43.19.43.43Z" style="fill: #f1c256;"/>
            <polygon points="17.48 38.37 18.06 39.06 17.97 39.17 15.75 41.84 13.76 39.07 14.29 38.43 13.75 37.68 15.74 34.91 18.06 37.68 17.97 37.78 17.48 38.37" style="fill: #f1c256;"/>
            <path d="M16.67,37.68c0,.51-.36.92-.82.92-.45,0-.81-.41-.81-.92,0-.51.36-.92.81-.92.45,0,.82.42.82.92Z" style="fill: #c42c27;"/>
          </g>
          <g>
            <path d="M16.87,13.86c-.53-.11-.92-.59-.92-1.13,0-.31.12-.6.34-.82.21-.22.5-.34.81-.34h10.16c.62,0,1.15.52,1.16,1.14,0,.31-.12.6-.34.82-.22.22-.51.34-.82.34h-10.16c-.08,0-.16,0-.24-.02ZM27.41,12.04s-.09-.01-.14-.01h-10.16c-.19,0-.36.08-.49.21-.13.13-.21.31-.21.49,0,.37.31.69.69.69h10.16c.19,0,.36-.08.49-.21.13-.13.2-.31.2-.49,0-.32-.23-.61-.55-.68Z" style="fill: #1e1c1c;"/>
            <path d="M17.06,12.03c-.09-.02-.16-.09-.18-.18l-.93-4.62c-.02-.1.03-.2.12-.25s.2-.03.27.04l2.22,2.21,3.57-.9s.07,0,.11,0l3.57.89,2.22-2.22c.07-.07.18-.09.27-.04.09.05.14.15.12.25l-.92,4.62c-.02.13-.15.21-.27.18h0c-.12-.03-.2-.15-.18-.27l.77-3.87-1.77,1.77c-.06.06-.14.09-.22.06l-3.64-.91-3.64.91c-.08.02-.16,0-.22-.06l-1.77-1.77.78,3.87c.03.13-.06.25-.18.27-.03,0-.06,0-.09,0Z" style="fill: #1e1c1c;"/>
            <path d="M17.77,9.05s-.06-.02-.09-.04c-.1-.08-.12-.22-.05-.32.68-.9,2.51-1.5,4.55-1.5,2.05,0,3.88.6,4.56,1.49.08.1.06.25-.05.32-.1.08-.25.06-.32-.04-.59-.77-2.31-1.31-4.19-1.31-1.88,0-3.6.54-4.19,1.32-.06.07-.15.11-.23.09Z" style="fill: #1e1c1c;"/>
            <path d="M20.2,11.1c-.32-.07-.55-.35-.55-.68,0-.38.31-.69.69-.69.37,0,.69.32.69.69,0,.38-.31.69-.69.69-.05,0-.1,0-.14-.01ZM20.39,10.19s-.03,0-.05,0c-.13,0-.23.1-.23.23,0,.12.1.23.23.23.13,0,.23-.1.23-.23,0-.11-.08-.2-.18-.23Z" style="fill: #1e1c1c;"/>
            <path d="M16.96,11.1c-.06-.01-.11-.03-.16-.06-.11-.06-.15-.2-.09-.31s.2-.15.31-.09c.01,0,.04.02.08.02.13,0,.23-.1.23-.23,0-.13-.1-.23-.23-.23-.08,0-.14.04-.17.08-.09.09-.23.09-.33,0-.09-.09-.1-.23,0-.33.14-.14.32-.22.51-.22.38,0,.69.31.69.69,0,.38-.31.69-.69.69-.05,0-.1,0-.14-.01Z" style="fill: #1e1c1c;"/>
            <path d="M27.13,11.09c-.13-.03-.25-.09-.34-.19-.13-.13-.2-.3-.2-.49,0-.19.07-.36.2-.49.13-.13.31-.2.49-.2.19,0,.38.08.51.22.09.09.09.24,0,.33-.09.09-.24.09-.33,0-.03-.03-.09-.08-.17-.08-.06,0-.12.02-.16.07-.04.05-.07.1-.07.16,0,.06.02.12.07.16.04.04.1.07.16.07.03,0,.06,0,.09-.02.11-.06.25-.02.31.09.06.11.02.25-.09.31-.09.05-.19.07-.3.07-.05,0-.1,0-.15-.02Z" style="fill: #1e1c1c;"/>
            <path d="M23.89,11.09c-.32-.07-.55-.35-.55-.68,0-.38.31-.69.69-.69.37,0,.69.32.69.69,0,.19-.07.36-.2.49s-.31.2-.49.2c-.05,0-.09,0-.14-.01ZM24.08,10.19s-.03,0-.05,0c-.13,0-.23.1-.23.23,0,.12.1.23.23.23.06,0,.12-.02.16-.07s.07-.1.07-.16c0-.11-.08-.2-.18-.22Z" style="fill: #1e1c1c;"/>
            <path d="M17.06,12.96c-.1-.02-.18-.12-.18-.23,0-.13.1-.23.23-.23h.92c.13,0,.23.1.23.23,0,.13-.1.23-.23.23h-.92s-.03,0-.05,0Z" style="fill: #1e1c1c;"/>
            <path d="M21.68,12.95c-.1-.02-.18-.11-.18-.23,0-.13.1-.23.23-.23h.92c.12,0,.23.1.23.23,0,.13-.1.23-.23.23h-.92s-.03,0-.05,0Z" style="fill: #1e1c1c;"/>
            <path d="M26.3,12.95c-.1-.02-.18-.12-.18-.23,0-.13.1-.23.23-.23h.92c.12,0,.23.1.23.23s-.1.23-.23.23h-.92s-.03,0-.05,0Z" style="fill: #1e1c1c;"/>
            <path d="M23.99,12.95c-.1-.02-.18-.11-.18-.23,0-.13.1-.23.23-.23h.92c.13,0,.23.1.23.23,0,.13-.1.23-.23.23h-.92s-.03,0-.05,0Z" style="fill: #1e1c1c;"/>
            <path d="M19.37,12.95c-.1-.02-.18-.11-.18-.23,0-.13.1-.23.23-.23h.92c.13,0,.23.1.23.23,0,.13-.1.23-.23.23h-.92s-.03,0-.05,0Z" style="fill: #1e1c1c;"/>
            <path d="M21.27,27.1c-.08-.02-.14-.07-.17-.15l-.34-1-.38-1.51-3.07-.49c-.06-.01-.11-.04-.15-.08l-.45-.58s-.05-.08-.05-.13l-.07-1.06-.28-.78c-.04-.12.01-.24.13-.29l.64-.27-.71-.29c-.12-.05-.17-.18-.13-.3l.29-.78-.91-.44c-.06-.03-.1-.08-.12-.15-.02-.06,0-.13.03-.19l1.45-2.15-.42-.68c-.03-.06-.04-.12-.03-.18l.55-1.99c.03-.12.15-.19.29-.16.12.03.19.16.16.28l-.53,1.89.44.72c.05.08.04.18,0,.25l-1.39,2.05.86.42c.11.05.16.18.11.29l-.29.77,1.02.41c.09.04.14.12.15.21,0,.09-.06.18-.14.21l-.96.41.22.6s.01.04.01.06l.07,1.02.35.45,3.13.5c.09.01.17.08.19.17l.41,1.64.34.98c.04.12-.02.25-.14.29-.04.01-.08.01-.12,0Z" style="fill: #1e1c1c;"/>
            <path d="M18.05,17.61c-.06-.01-.12-.05-.15-.11-.06-.11-.03-.25.08-.32l1.3-.77-1.46-.59c-.06-.02-.1-.07-.13-.13-.02-.06-.02-.12,0-.18l.34-.82c.05-.12.19-.17.3-.12.12.05.17.18.13.3l-.25.61,1.68.68c.08.03.14.11.14.2,0,.09-.04.17-.11.22l-1.7,1c-.05.03-.11.04-.17.03Z" style="fill: #1e1c1c;"/>
            <path d="M18.47,17.36s-.09-.03-.12-.07c-.41-.43-.49-1.02-.2-1.56.06-.11.2-.16.31-.1.11.06.16.2.1.31-.09.17-.26.62.13,1.03.09.09.08.24,0,.33-.06.05-.14.07-.21.06Z" style="fill: #1e1c1c;"/>
            <path d="M26.48,26.78c-.3-.06-.58-.21-.8-.44-.31-.3-.47-.71-.47-1.14,0-.13.1-.23.23-.23.13,0,.23.1.23.23,0,.31.12.6.34.82.22.22.51.34.82.34.2,0,.4-.05.58-.16.11-.06.25-.02.31.09.06.11.02.25-.09.31-.25.14-.53.21-.81.21-.12,0-.23-.01-.34-.03Z" style="fill: #1e1c1c;"/>
            <path d="M27.88,26.78c-.17-.04-.33-.1-.47-.18-.5-.29-.81-.83-.81-1.4,0-.13.1-.23.23-.23.13,0,.23.1.23.23,0,.41.22.79.58,1,.18.1.38.15.58.15.2,0,.4-.05.58-.15.11-.06.25-.03.31.09.06.11.02.25-.09.31-.25.14-.53.21-.81.21-.11,0-.22-.01-.33-.03Z" style="fill: #1e1c1c;"/>
            <path d="M29.26,26.78c-.16-.03-.32-.1-.47-.18-.5-.29-.81-.83-.81-1.4,0-.13.1-.23.23-.23.13,0,.23.1.23.23,0,.41.22.79.58,1,.18.1.37.15.58.15.2,0,.4-.05.58-.16.11-.06.25-.02.31.09.06.11.02.25-.09.31-.25.14-.53.21-.81.21-.11,0-.22-.01-.33-.04Z" style="fill: #1e1c1c;"/>
            <path d="M30.65,26.77c-.16-.03-.32-.1-.47-.18-.5-.29-.81-.83-.81-1.4,0-.13.1-.23.23-.23.12,0,.23.1.23.23,0,.41.22.79.58,1,.18.1.38.15.58.15.07,0,.14,0,.21-.02.13-.03.25-.07.37-.13.11-.06.25-.02.31.09s.02.25-.09.31c-.16.09-.33.15-.5.18-.09.02-.2.03-.3.03-.11,0-.22-.01-.34-.04Z" style="fill: #1e1c1c;"/>
            <path d="M32.03,26.77c-.74-.16-1.28-.82-1.28-1.58,0-.43.17-.84.47-1.14.3-.31.71-.47,1.14-.47.11,0,.23.01.34.03.74.16,1.28.82,1.28,1.58,0,.89-.72,1.62-1.62,1.62-.12,0-.23-.01-.34-.03ZM32.61,24.06c-.08-.02-.16-.02-.24-.02-.31,0-.6.12-.81.34-.22.22-.34.51-.34.82,0,.62.53,1.15,1.16,1.16.64,0,1.15-.52,1.15-1.16,0-.54-.39-1.02-.91-1.13Z" style="fill: #1e1c1c;"/>
            <path d="M25.39,25.42c-.08-.02-.14-.07-.17-.15l-1.91-5.98c-.04-.12.03-.25.15-.29.12-.04.25.03.29.15l1.91,5.98c.04.12-.03.25-.15.29-.04.01-.08.01-.12,0Z" style="fill: #1e1c1c;"/>
            <path d="M26.77,25.42c-.08-.02-.14-.07-.17-.15l-1.69-5.31c-.04-.12.03-.25.15-.29.12-.04.25.03.29.15l1.69,5.31c.04.12-.03.25-.15.29-.04.01-.08.01-.12,0Z" style="fill: #1e1c1c;"/>
            <path d="M28.16,25.42c-.08-.02-.15-.07-.17-.16l-1.62-5.09c-.04-.12.03-.25.15-.29.12-.04.25.03.29.15l1.62,5.08c.04.12-.03.25-.15.29-.04.01-.08.01-.12,0Z" style="fill: #1e1c1c;"/>
            <path d="M29.55,25.42c-.08-.02-.15-.07-.17-.16l-1.65-5.18c-.04-.12.03-.25.15-.29.12-.04.25.03.29.15l1.65,5.18c.04.12-.03.25-.15.29-.04.01-.08.01-.12,0Z" style="fill: #1e1c1c;"/>
            <path d="M30.93,25.42c-.08-.02-.15-.07-.17-.16l-3.68-11.55c-.04-.12.03-.25.15-.29.12-.04.25.03.29.15l3.68,11.55c.04.12-.03.25-.15.29-.04.01-.08.01-.12,0Z" style="fill: #1e1c1c;"/>
            <path d="M32.83,25.19c0,.26-.21.46-.46.46-.26,0-.46-.21-.46-.46,0-.25.21-.46.46-.46.25,0,.46.21.46.46Z" style="fill: #1e1c1c;"/>
            <path d="M25.42,20.2c-3.03-.64-5.31-3.33-5.31-6.55,0-.13.1-.23.23-.23.12,0,.23.1.23.23,0,3.44,2.8,6.24,6.24,6.23.8,0,1.58-.15,2.31-.45.12-.05.25,0,.3.13.05.12,0,.25-.13.3-.78.32-1.62.48-2.48.48-.48,0-.94-.05-1.39-.14Z" style="fill: #1e1c1c;"/>
            <path d="M25.71,18.85c-2.4-.51-4.21-2.64-4.21-5.19,0-.13.1-.23.23-.23.12,0,.23.1.23.23,0,2.68,2.18,4.85,4.86,4.85.65,0,1.29-.13,1.89-.38.12-.05.25,0,.3.12.05.12,0,.25-.12.3-.66.28-1.35.42-2.07.42-.38,0-.75-.04-1.11-.11Z" style="fill: #1e1c1c;"/>
            <path d="M25.99,17.49c-.73-.16-1.41-.52-1.95-1.06-.74-.74-1.15-1.73-1.15-2.78,0-.13.1-.23.23-.23.12,0,.23.1.23.23,0,.93.36,1.8,1.02,2.45.65.65,1.52,1.01,2.45,1.01.5,0,.99-.11,1.46-.32.12-.05.25,0,.31.11.05.12,0,.25-.11.31-.52.24-1.08.36-1.65.36-.28,0-.56-.03-.82-.08Z" style="fill: #1e1c1c;"/>
            <path d="M26.29,16.13c-1.15-.24-2.01-1.26-2.01-2.48,0-.13.1-.23.23-.23.12,0,.23.1.23.23,0,1.15.94,2.08,2.08,2.08.36,0,.7-.09,1.02-.26.11-.06.25-.02.31.09.06.11.02.25-.09.31-.38.21-.81.32-1.24.32-.18,0-.36-.02-.53-.05Z" style="fill: #1e1c1c;"/>
            <path d="M26.57,14.78c-.22-.05-.42-.15-.58-.31-.22-.22-.34-.51-.34-.82,0-.13.1-.23.23-.23.12,0,.23.1.23.23,0,.18.07.36.21.49s.3.2.49.2c.19,0,.38-.08.51-.23.09-.1.23-.1.32-.02.09.09.1.23.02.33-.22.24-.53.38-.86.38-.08,0-.16,0-.24-.03Z" style="fill: #1e1c1c;"/>
            <path d="M15.7,35.13c-.07-.01-.13-.06-.16-.12-.49-.98-1.51-5.24,2.48-8.17.04-.04.1-.06.15-.06.12,0,.23.11.23.23,0,.07-.03.12-.07.16,0,0-.02.02-.03.02-3.15,2.31-2.98,5.48-2.58,6.96.87-2.59,3.12-5.7,5.46-7.48,1.46-1.12,2.94-1.72,4.26-1.72.12,0,.23.1.23.23,0,.13-.1.23-.23.23-1.22,0-2.59.56-3.98,1.62-2.82,2.16-4.94,5.69-5.49,7.91-.02.1-.1.16-.2.17-.03,0-.05,0-.07,0Z" style="fill: #1e1c1c;"/>
            <path d="M15.7,40.68c-.06-.01-.1-.04-.14-.09l-2-2.77c-.06-.08-.06-.19,0-.27l1.99-2.77c.04-.06.11-.09.18-.1.07,0,.14.03.19.08l2.31,2.77c.07.08.07.21,0,.29l-1.1,1.32s-.02.02-.03.03l-1.18,1.42c-.04.06-.11.09-.19.08-.02,0-.03,0-.04,0ZM14.04,37.68l1.72,2.39,1.01-1.22s.02-.02.03-.03l.95-1.14-2-2.39-1.72,2.4Z" style="fill: #1e1c1c;"/>
            <path d="M15.7,42.07c-.06-.01-.11-.04-.14-.09l-1.99-2.77c-.06-.09-.06-.2,0-.28l.53-.64c.08-.1.23-.11.33-.03.1.08.11.23.03.33l-.42.51,1.72,2.38,1.99-2.4-.46-.55c-.08-.1-.07-.24.03-.32s.24-.07.33.03l.58.69c.07.08.07.21,0,.29l-.08.1-2.23,2.68c-.04.05-.11.09-.19.08-.01,0-.03,0-.04,0Z" style="fill: #1e1c1c;"/>
            <path d="M13.71,37.91c-.08-.02-.14-.07-.17-.15l-.07-.18c-.7-1.96-2.56-7.18,4.57-10.75,0,0,.02,0,.02-.02h0c.85-.42,1.81-.81,2.84-1.16.12-.04.25.02.29.15.04.12-.03.25-.15.29-1,.33-1.93.71-2.76,1.12,0,0-.02.01-.02.02-6.79,3.39-5.02,8.33-4.36,10.19l.07.19c.04.12-.02.25-.14.29-.04.02-.08.02-.12,0Z" style="fill: #1e1c1c;"/>
            <path d="M18.01,37.9s-.04-.01-.06-.02c-.11-.06-.16-.2-.1-.31.09-.17.22-.44.38-.78.16-.34.35-.74.57-1.19.55-1.12,1.07-2.1,1.59-3,0-.02.02-.03.03-.04.63-1.09,1.28-2.06,1.94-2.9.78-.99,1.55-1.78,2.32-2.33.7-.51,1.41-.84,2.1-.97.12-.02.25.06.27.18.02.12-.06.25-.18.27-.62.12-1.27.42-1.92.89-.73.53-1.48,1.29-2.22,2.24-.64.83-1.29,1.79-1.92,2.87,0,0-.01.02-.02.02-.52.89-1.03,1.86-1.58,2.97-.22.45-.41.85-.57,1.19-.16.34-.29.61-.39.79-.05.09-.16.14-.25.12Z" style="fill: #1e1c1c;"/>
            <path d="M15.65,38.82c-.49-.1-.85-.58-.85-1.13,0-.64.47-1.16,1.04-1.16.57,0,1.05.53,1.05,1.15,0,.3-.1.59-.3.81-.2.23-.46.35-.75.35-.07,0-.13,0-.2-.02ZM15.95,37s-.07-.01-.1-.01c-.32,0-.58.31-.58.69,0,.37.27.69.58.69.15,0,.3-.07.41-.19.12-.13.18-.31.18-.5,0-.34-.2-.62-.48-.68Z" style="fill: #1e1c1c;"/>
            <path d="M18.82,29.48s-.08-.03-.12-.06l-1.54-1.54c-.09-.09-.09-.24,0-.33.09-.09.24-.09.33,0l1.54,1.54c.09.09.09.24,0,.33-.06.06-.13.08-.21.06Z" style="fill: #1e1c1c;"/>
            <path d="M19.7,28.51s-.08-.03-.12-.06l-1.37-1.37c-.09-.09-.09-.24,0-.33.09-.09.24-.09.33,0l1.37,1.37c.09.09.09.24,0,.33-.06.06-.14.08-.21.06Z" style="fill: #1e1c1c;"/>
            <path d="M20.64,27.61s-.08-.03-.12-.06l-1.03-1.03c-.09-.09-.09-.24,0-.33.09-.09.24-.09.33,0l1.03,1.03c.09.09.09.24,0,.32-.06.06-.14.08-.21.06Z" style="fill: #1e1c1c;"/>
            <path d="M18.01,30.52s-.08-.03-.12-.06l-1.59-1.59c-.09-.09-.09-.24,0-.33.09-.09.24-.09.33,0l1.59,1.59c.09.09.09.24,0,.33-.06.06-.14.08-.21.06Z" style="fill: #1e1c1c;"/>
            <path d="M17.27,31.63s-.08-.03-.12-.06l-1.51-1.51c-.09-.09-.09-.24,0-.33.09-.09.24-.09.33,0l1.51,1.51c.09.09.09.24,0,.33-.06.06-.14.08-.21.06Z" style="fill: #1e1c1c;"/>
            <path d="M16.6,32.81s-.08-.03-.12-.06l-1.27-1.27c-.09-.09-.09-.24,0-.33.09-.09.24-.09.33,0l1.27,1.27c.09.09.09.24,0,.32-.06.06-.14.08-.21.06Z" style="fill: #1e1c1c;"/>
            <path d="M16.03,34.09s-.08-.03-.12-.06l-.77-.77c-.09-.09-.09-.24,0-.33.09-.09.24-.09.33,0l.77.77c.09.09.09.24,0,.33-.06.06-.14.08-.21.06Z" style="fill: #1e1c1c;"/>
            <path d="M16.9,39.23c-.11-.02-.19-.12-.18-.24,0-.13.11-.23.24-.22.13,0,.23.11.22.24,0,.13-.11.23-.24.22h0s-.02,0-.04,0Z" style="fill: #1e1c1c;"/>
            <path d="M18.83,36.2c-.1-.02-.18-.11-.18-.23h0c0-.13.11-.23.24-.23.12,0,.23.11.23.23,0,.13-.11.23-.23.23-.01,0-.03,0-.05,0Z" style="fill: #1e1c1c;"/>
            <path d="M18.7,32.91c-.45-.1-.78-.5-.78-.97,0-.26.1-.51.29-.7.19-.19.43-.29.69-.29.54,0,.99.45.99.98,0,.54-.44.99-.99.99-.07,0-.14,0-.2-.02ZM19.02,31.43s-.07-.01-.11-.01c-.14,0-.27.05-.37.15-.1.1-.15.23-.15.37,0,.28.24.53.52.53.29,0,.53-.23.53-.53,0-.25-.17-.46-.42-.51Z" style="fill: #1e1c1c;"/>
            <path d="M17.52,35.32c-.45-.1-.78-.5-.78-.96,0-.26.1-.51.29-.7.19-.19.44-.29.7-.29.53,0,.99.45.99.99,0,.54-.44.98-.99.99-.07,0-.14,0-.21-.02ZM17.83,33.85s-.07-.01-.11-.01c-.14,0-.27.05-.37.15-.1.1-.16.23-.15.37,0,.28.24.52.53.52.29,0,.53-.23.53-.52,0-.25-.18-.46-.42-.52Z" style="fill: #1e1c1c;"/>
            <path d="M20.17,30.79c-.42-.09-.73-.47-.73-.9,0-.51.41-.92.92-.92.5,0,.93.42.93.92,0,.25-.1.48-.27.65-.17.17-.41.27-.65.27-.07,0-.13,0-.19-.02ZM20.46,29.44s-.07,0-.1-.01c-.25,0-.46.21-.46.46,0,.25.21.46.46.46.12,0,.24-.05.33-.14.09-.09.14-.2.13-.32,0-.22-.15-.4-.36-.45Z" style="fill: #1e1c1c;"/>
            <path d="M21.94,28.7c-.37-.08-.63-.4-.63-.78,0-.44.35-.79.79-.79.43,0,.79.36.79.79,0,.44-.35.79-.79.79-.06,0-.11,0-.17-.02ZM22.18,27.6s-.05,0-.07,0c-.18,0-.33.15-.33.33,0,.18.15.33.33.33.18,0,.33-.15.33-.33,0-.15-.11-.29-.26-.32Z" style="fill: #1e1c1c;"/>
            <path d="M14.07,35.47c-.36-.08-.63-.4-.62-.77,0-.44.35-.79.79-.79.43,0,.79.36.79.79,0,.21-.08.41-.23.56-.15.15-.35.23-.56.23-.06,0-.11,0-.17-.02ZM14.31,34.37s-.05,0-.07,0c-.18,0-.33.15-.33.33,0,.18.15.33.33.33.09,0,.17-.03.24-.1.06-.06.1-.14.09-.23,0-.15-.11-.29-.26-.32Z" style="fill: #1e1c1c;"/>
            <path d="M23.79,27.29c-.31-.06-.53-.34-.53-.65,0-.18.07-.34.2-.47.13-.13.29-.19.47-.2.36,0,.67.31.67.67,0,.18-.07.35-.19.47-.12.12-.29.19-.47.19-.05,0-.09,0-.14-.02ZM23.97,26.44c-.1,0-.15.02-.19.06-.04.04-.06.09-.06.14,0,.11.1.2.2.2.06,0,.11-.02.14-.06.04-.04.06-.09.06-.14,0-.1-.07-.18-.16-.2Z" style="fill: #1e1c1c;"/>
            <path d="M14.1,33.34c-.31-.06-.53-.34-.53-.65,0-.18.07-.35.19-.47.13-.13.29-.2.47-.19.36,0,.67.31.67.67,0,.37-.3.66-.67.66-.05,0-.09,0-.14-.01ZM14.28,32.49c-.1,0-.15.02-.19.06-.04.04-.06.09-.06.14,0,.11.09.2.2.2.11,0,.2-.09.2-.2,0-.1-.07-.18-.16-.2Z" style="fill: #1e1c1c;"/>
            <path d="M14.92,31.15c0,.2-.16.37-.37.37-.2,0-.37-.17-.37-.37,0-.2.17-.37.37-.37.2,0,.37.17.37.37Z" style="fill: #1e1c1c;"/>
            <path d="M24.77,27.74c-.12-.03-.2-.14-.18-.26.02-.13.14-.21.27-.19l2.26.36.17-1.28c.02-.13.13-.22.26-.2.12.02.21.13.2.26l-.21,1.52c0,.06-.04.12-.09.15-.05.04-.11.05-.17.04l-2.49-.4s0,0-.01,0Z" style="fill: #1e1c1c;"/>
            <path d="M22.5,30.03c-.11-.02-.19-.13-.18-.25.01-.13.12-.22.25-.21l2.58.22c-.21-.88-.49-2.06-.54-2.18-.07-.11-.03-.23.08-.3.11-.07.26-.02.33.08.03.04.07.11.66,2.61.02.07,0,.15-.05.2-.05.06-.12.09-.19.08l-2.9-.25s-.02,0-.03,0Z" style="fill: #1e1c1c;"/>
            <path d="M20.62,32.93v-.46s2.72-.11,2.72-.11c-.4-.99-.94-2.33-1-2.44-.07-.1-.04-.24.06-.31.11-.07.26-.04.33.07.02.03.07.1,1.16,2.82.03.07.02.15-.02.21-.04.06-.11.1-.18.11l-3.07.12Z" style="fill: #1e1c1c;"/>
            <path d="M18.96,35.93c-.1-.02-.17-.1-.18-.21,0-.13.09-.24.21-.25l2.75-.21-1.34-2.45s-.03-.07-.03-.11c0-.13.11-.23.23-.23.1,0,.18.06.21.15l1.5,2.74c.04.07.04.15,0,.22-.04.07-.11.11-.18.12l-3.1.23s-.04,0-.07,0Z" style="fill: #1e1c1c;"/>
            <path d="M17.43,38.6c-.1-.02-.17-.1-.18-.21-.01-.13.08-.24.21-.25l2.41-.21-1.06-2.12c-.06-.11-.01-.25.1-.31.11-.06.25-.01.31.1l1.22,2.42c.04.07.03.15,0,.22-.04.07-.11.11-.18.12l-2.75.24s-.05,0-.07,0Z" style="fill: #1e1c1c;"/>
          </g>
        </g>
      </g>
      <path d="M1.57,6.7c0-2.68.99-3.31,1.76-3.31.77,0,1.76.62,1.76,3.31,0,1.2-.2,1.99-.49,2.5l.53.6-.53.43-.45-.5c-.27.21-.56.29-.83.28-.77,0-1.76-.62-1.77-3.31ZM3.66,9.15l-.69-.78.53-.44.56.64c.15-.4.26-1,.25-1.87,0-1.97-.53-2.56-.98-2.56-.45,0-.98.59-.98,2.56,0,1.97.53,2.56.98,2.56.11,0,.22-.03.33-.11Z" style="fill: #191818;"/>
      <path d="M46.54,61.72c0,2.68-.99,3.31-1.76,3.31-.77,0-1.76-.62-1.76-3.31,0-1.2.2-1.99.48-2.5l-.53-.6.53-.44.45.5c.27-.21.56-.28.83-.28.77,0,1.76.62,1.77,3.31ZM44.45,59.27l.69.78-.53.44-.56-.63c-.15.4-.25,1-.25,1.87,0,1.97.53,2.56.98,2.56.45,0,.98-.59.98-2.56,0-1.97-.53-2.56-.98-2.56-.11,0-.22.03-.33.11Z" style="fill: #191818;"/>
      <path d="M4.28,15.96c.63,0,1.15-.57,1.14-1.28h0c0-1.28-1.61-1.02-2.18-2.56-.57,1.54-2.18,1.28-2.18,2.56,0,.71.52,1.28,1.15,1.28.36,0,.68-.19.89-.49-.49,1-.47,1.02-1.01,1.26h2.31c-.54-.24-.52-.26-1.01-1.26.21.29.53.49.89.49Z" style="fill: #191818;"/>
      <path d="M43.83,52.57c-.63,0-1.15.57-1.14,1.28h0c0,1.28,1.6,1.02,2.18,2.56.57-1.54,2.18-1.28,2.18-2.57,0-.71-.51-1.28-1.15-1.28-.36,0-.68.19-.89.49.49-1,.47-1.02,1.01-1.26h-2.31c.54.24.52.26,1.01,1.26-.21-.3-.53-.49-.89-.49Z" style="fill: #191818;"/>
      <path d="M12.88,15.14c.95,0,1.72-.86,1.72-1.92h0c0-1.92-2.41-1.54-3.27-3.84-.86,2.31-3.27,1.93-3.26,3.85,0,1.06.77,1.92,1.72,1.92.54,0,1.02-.29,1.34-.73-.74,1.5-.71,1.53-1.52,1.88h3.46c-.81-.36-.78-.39-1.52-1.89.32.44.79.73,1.34.73Z" style="fill: #191818;"/>
      <path d="M35.23,53.25c-.95,0-1.72.86-1.72,1.92h0c0,1.92,2.41,1.54,3.27,3.84.86-2.31,3.26-1.93,3.26-3.85,0-1.06-.77-1.92-1.72-1.92-.54,0-1.03.29-1.34.73.74-1.5.71-1.53,1.52-1.88h-3.46c.81.36.78.39,1.52,1.89-.31-.44-.8-.73-1.34-.73Z" style="fill: #191818;"/>
    </g>
  </g>
</svg>