<?xml version="1.0" encoding="UTF-8"?>
<svg id="Layer_2" data-name="Layer 2" xmlns="http://www.w3.org/2000/svg" width="48.05" height="68.38" viewBox="0 0 48.05 68.38">
  <g id="Layer_1-2" data-name="Layer 1">
    <g>
      <path d="M2.31,68.37c-1.27,0-2.31-1.04-2.31-2.31V2.31C0,1.04,1.04,0,2.31,0h43.43c1.27,0,2.31,1.04,2.31,2.31v63.76c0,1.27-1.04,2.31-2.31,2.31H2.31Z" style="fill: #fafafa;"/>
      <g>
        <path d="M1.47,4.23l.75-.82v6.62s-.75,0-.75,0v-5.81Z" style="fill: #c42c27;"/>
        <path d="M3.62,6.81c0-2.52.78-3.31,1.69-3.31.91,0,1.69.78,1.69,3.31,0,2.53-.78,3.31-1.69,3.31-.91,0-1.69-.78-1.69-3.31ZM6.22,6.81c0-2.11-.46-2.6-.91-2.6-.45,0-.91.49-.91,2.6,0,2.11.45,2.6.91,2.6.45,0,.91-.49.91-2.6Z" style="fill: #c42c27;"/>
      </g>
      <g>
        <path d="M46.58,64.14l-.75.82v-6.62s.75,0,.75,0v5.81Z" style="fill: #c42c27;"/>
        <path d="M44.43,61.57c0,2.53-.78,3.31-1.69,3.31-.91,0-1.69-.78-1.69-3.31,0-2.52.78-3.31,1.69-3.31.91,0,1.69.78,1.69,3.31ZM41.83,61.57c0,2.11.45,2.6.91,2.6.45,0,.91-.49.91-2.6,0-2.11-.45-2.6-.91-2.6-.45,0-.91.49-.91,2.6Z" style="fill: #c42c27;"/>
      </g>
      <path d="M13.77,10.32c.46.43,2.76,3.44,3.22,3.87-.46.43-2.76,3.44-3.22,3.87-.46-.43-2.77-3.44-3.23-3.87.46-.43,2.77-3.44,3.23-3.87Z" style="fill: #c42c27;"/>
      <path d="M24.02,16.54c.46.43,2.76,3.44,3.22,3.87-.46.43-2.76,3.44-3.22,3.87-.46-.43-2.76-3.44-3.23-3.87.46-.43,2.76-3.44,3.23-3.87Z" style="fill: #c42c27;"/>
      <path d="M34.28,10.33c.46.43,2.76,3.44,3.23,3.87-.46.43-2.76,3.44-3.23,3.87-.46-.43-2.76-3.44-3.22-3.87.46-.43,2.76-3.44,3.22-3.87Z" style="fill: #c42c27;"/>
      <path d="M34.28,22.75c.46.43,2.76,3.44,3.23,3.87-.46.43-2.76,3.44-3.22,3.87-.46-.43-2.76-3.44-3.23-3.87.46-.43,2.76-3.44,3.22-3.87Z" style="fill: #c42c27;"/>
      <path d="M13.77,22.75c.46.43,2.76,3.44,3.23,3.87-.46.43-2.76,3.44-3.22,3.87-.46-.43-2.76-3.44-3.23-3.87.46-.43,2.76-3.44,3.22-3.87Z" style="fill: #c42c27;"/>
      <path d="M34.28,45.62c-.46-.43-2.76-3.44-3.22-3.87.46-.43,2.76-3.44,3.22-3.87.46.43,2.76,3.44,3.23,3.87-.46.43-2.76,3.44-3.23,3.87Z" style="fill: #c42c27;"/>
      <path d="M13.77,45.62c-.46-.43-2.76-3.44-3.22-3.87.46-.43,2.76-3.44,3.22-3.87.46.43,2.76,3.44,3.23,3.87-.46.43-2.76,3.44-3.23,3.87Z" style="fill: #c42c27;"/>
      <path d="M13.77,58.05c-.46-.43-2.76-3.44-3.22-3.87.46-.43,2.76-3.44,3.22-3.87.46.43,2.76,3.44,3.23,3.87-.46.43-2.76,3.44-3.22,3.87Z" style="fill: #c42c27;"/>
      <path d="M24.02,51.84c-.46-.43-2.76-3.44-3.22-3.87.46-.43,2.76-3.44,3.22-3.87.46.43,2.76,3.44,3.22,3.87-.46.43-2.76,3.44-3.22,3.87Z" style="fill: #c42c27;"/>
      <path d="M34.28,58.05c-.46-.43-2.76-3.44-3.22-3.87.46-.43,2.76-3.44,3.22-3.87.46.43,2.76,3.44,3.22,3.87-.46.43-2.76,3.44-3.23,3.87Z" style="fill: #c42c27;"/>
      <path d="M3.23,11.8c.31.29,1.84,2.29,2.15,2.58-.31.29-1.84,2.29-2.15,2.58-.31-.29-1.84-2.29-2.15-2.58.31-.29,1.84-2.29,2.15-2.58Z" style="fill: #c42c27;"/>
      <path d="M44.81,56.57c-.31-.29-1.84-2.29-2.15-2.58.31-.29,1.84-2.29,2.15-2.58.31.29,1.84,2.29,2.15,2.58-.31.28-1.84,2.29-2.15,2.58Z" style="fill: #c42c27;"/>
    </g>
  </g>
</svg>