<?xml version="1.0" encoding="UTF-8"?>
<svg id="Layer_2" data-name="Layer 2" xmlns="http://www.w3.org/2000/svg" width="48.05" height="68.38" viewBox="0 0 48.05 68.38">
  <g id="Layer_1-2" data-name="Layer 1">
    <g>
      <path d="M2.32,68.38c-1.27,0-2.31-1.04-2.31-2.31V2.32C0,1.04,1.04,0,2.31,0h43.43c1.27,0,2.31,1.03,2.31,2.3v63.76c0,1.27-1.03,2.31-2.3,2.31H2.32Z" style="fill: #fafafa;"/>
      <path d="M27.13,27.98c-1.37,0-2.55.81-3.11,1.97-.55-1.16-1.73-1.97-3.11-1.97-1.9,0-3.45,1.55-3.45,3.45h0c0,4.14,6.56,8.97,6.56,8.97,0,0,6.56-4.83,6.56-8.97,0-1.91-1.55-3.45-3.45-3.45Z" style="fill: #c42c27;"/>
      <path d="M3.35,3.44l1.88,6.67h-.81s-.29-1.08-.29-1.08h-1.57s-.28,1.08-.28,1.08h-.81s1.88-6.67,1.88-6.67ZM3.95,8.32l-.44-1.67-.17-.77-.16.77-.44,1.67h1.2Z" style="fill: #c42c27;"/>
      <path d="M44.71,64.94l-1.88-6.67h.81s.28,1.07.28,1.07h1.57s.28-1.08.28-1.08h.81s-1.88,6.67-1.88,6.67ZM44.11,60.06l.43,1.67.17.77.16-.77.44-1.67h-1.2Z" style="fill: #c42c27;"/>
      <path d="M4.27,12.32c-.46,0-.85.27-1.04.66-.19-.39-.58-.66-1.04-.66-.63,0-1.15.51-1.15,1.15h0c0,1.38,2.19,2.99,2.19,2.99,0,0,2.19-1.61,2.19-2.99,0-.64-.52-1.15-1.15-1.15Z" style="fill: #c42c27;"/>
      <path d="M43.79,56.06c.46,0,.85-.27,1.04-.66.19.39.58.66,1.03.66.64,0,1.15-.51,1.15-1.15h0c0-1.38-2.19-2.99-2.19-2.99,0,0-2.19,1.61-2.19,2.99,0,.63.51,1.15,1.15,1.15Z" style="fill: #c42c27;"/>
    </g>
  </g>
</svg>