<?xml version="1.0" encoding="UTF-8"?>
<svg id="Layer_2" data-name="Layer 2" xmlns="http://www.w3.org/2000/svg" width="48.17" height="68.46" viewBox="0 0 48.17 68.46">
  <g id="Layer_1-2" data-name="Layer 1">
    <g>
      <path d="M48.17,66.06c0,1.27-1.04,2.31-2.31,2.32l-25.04.04-18.39.03c-1.27,0-2.31-1.04-2.32-2.31L0,2.39C0,1.12,1.04.08,2.31.08h6.6s23.21-.05,23.21-.05L45.73,0c1.25,0,2.27,1,2.31,2.23,0,.02,0,.05,0,.07l.12,63.75Z" style="fill: #fafafa;"/>
      <path d="M6.56,62.21c-.06,0-.11-.03-.15-.07-.04-.04-.07-.1-.07-.16l-.1-55.44c0-.13.1-.23.23-.23l35.11-.06c.06,0,.12.03.16.07s.07.1.07.16l.1,55.44c0,.13-.1.23-.23.23l-35.11.06s-.01,0-.02,0ZM6.71,6.77l.1,54.98,34.65-.06-.1-54.98-34.65.06Z" style="fill: #1e1c1c;"/>
      <g>
        <g>
          <path d="M17.16,41.86c-.09,0-1.3-.02-1.39,0,6.08-2.43,9.49-15.26,16.6-15.28l-.19.23-2.03,2.45-.08.1.58.69-2.75.25,1.22,2.42-3.11.24,1.51,2.77h0s0,0,0,0l-3.07.13s1.08,2.7,1.14,2.77l-2.9-.24s.58,2.46.63,2.54l-2.49-.4-.21,1.52c-.2-.12-.44-.18-.69-.18-.25,0-.49.07-.69.19-.2-.11-.44-.18-.69-.18-.25,0-.49.07-.69.19-.2-.11-.44-.18-.69-.18Z" style="fill: #4a6c76;"/>
          <path d="M31,26.59c.09,0,1.3.02,1.38,0-6.08,2.43-9.48,15.26-16.6,15.28l.19-.23,2.03-2.45.08-.1-.58-.69,2.75-.25-1.22-2.42,3.11-.24-1.51-2.76h0s0,0,0,0l3.07-.13s-1.08-2.7-1.14-2.77l2.9.24s-.58-2.46-.63-2.54l2.5.4.21-1.51c.2.12.44.18.69.18.25,0,.49-.07.69-.19.2.12.44.18.69.18.25,0,.49-.07.69-.19.2.11.44.18.69.18Z" style="fill: #4a6c76;"/>
        </g>
        <g>
          <g>
            <path d="M20.89,56.64l-.19.97c.06-.03.12-.05.19-.05.25,0,.46.21.46.46,0,.25-.21.46-.46.46-.13,0-.25-.06-.34-.15l-.58,2.92,2.31-2.31,3.7.92,3.69-.93,2.31,2.31-.59-2.92c-.09.09-.21.15-.34.15-.25,0-.46-.21-.46-.46,0-.25.21-.46.46-.46.07,0,.13.01.19.05l-.2-.97c.25,0,.48-.1.65-.27.17-.17.27-.4.27-.65,0-.51-.42-.92-.93-.92l-10.17.02c-.51,0-.92.42-.92.93,0,.51.42.92.93.92ZM27.82,57.55c.25,0,.46.21.46.46,0,.25-.21.46-.46.46s-.46-.21-.46-.46c0-.25.21-.46.46-.46ZM24.12,57.56c.25,0,.46.21.46.46,0,.25-.21.46-.46.46-.25,0-.46-.21-.46-.46,0-.25.21-.46.46-.46Z" style="fill: #f1c256;"/>
            <path d="M21.6,59.62l.67-.67,3.7.92,3.69-.93.68.67c-.62.82-2.34,1.41-4.37,1.41-2.03,0-3.75-.58-4.37-1.4Z" style="fill: #c42c27;"/>
            <path d="M26.83,41.56c2.68-2.05,4.95-5.57,5.57-8.04.46.92,1.44,5.07-2.41,7.89,0,0,0,0,0,0-.81.4-1.74.79-2.81,1.15l-.34-1Z" style="fill: #4a6c76;"/>
            <path d="M32.4,33.52l1.99-2.77c.63,1.78,2.81,7.06-4.4,10.66,3.85-2.82,2.87-6.97,2.41-7.89Z" style="fill: #c42c27;"/>
            <path d="M21.32,41.86c4.31-.8,7.94-9.53,8.76-11.1l2.32,2.77c-.61,2.48-2.89,5.99-5.57,8.04-1.32,1.02-2.75,1.67-4.12,1.67,0-.77-.62-1.38-1.39-1.38Z" style="fill: #c42c27;"/>
            <path d="M30.08,30.75c-.18.35-.51,1.07-.95,1.97l-1.22-2.42,2.75-.25-.58.69Z" style="fill: #f1c256;"/>
            <path d="M26.02,32.96l3.11-.24c-.43.87-.97,1.92-1.59,3l-1.51-2.77Z" style="fill: #f1c256;"/>
            <path d="M27.53,35.73c-.57.99-1.23,1.99-1.93,2.9-.05-.08-1.14-2.77-1.14-2.77l3.07-.13Z" style="fill: #f1c256;"/>
            <path d="M23.33,40.92c-.05-.08-.63-2.54-.63-2.54l2.9.24c-.7.9-1.47,1.7-2.27,2.29Z" style="fill: #f1c256;"/>
            <path d="M20.83,40.53l2.49.4c-.64.47-1.32.8-2.01.93-.25,0-.49.07-.69.19l.21-1.52Z" style="fill: #f1c256;"/>
            <path d="M34.34,35.74c0,.24-.19.43-.43.43-.24,0-.43-.19-.43-.43,0-.24.19-.43.43-.44.24,0,.43.19.44.43Z" style="fill: #f1c256;"/>
            <path d="M33.34,33.74c0-.31.25-.56.56-.56.31,0,.56.25.56.56,0,.31-.25.56-.56.56-.31,0-.57-.25-.57-.56Z" style="fill: #f1c256;"/>
            <path d="M29.66,34.07c0-.42.34-.75.76-.75.42,0,.76.34.76.75,0,.42-.34.76-.76.76-.41,0-.76-.34-.76-.76Z" style="fill: #f1c256;"/>
            <path d="M28.48,36.49c0-.42.34-.76.76-.76.42,0,.75.34.76.76,0,.42-.34.75-.75.75-.42,0-.76-.34-.76-.75Z" style="fill: #f1c256;"/>
            <path d="M27.09,38.54c0-.38.31-.69.69-.69.38,0,.69.31.69.69,0,.38-.31.69-.69.69-.38,0-.69-.31-.69-.69Z" style="fill: #f1c256;"/>
            <path d="M25.48,40.52c0-.31.25-.57.56-.57.31,0,.56.25.56.56,0,.31-.25.56-.56.56-.31,0-.56-.25-.56-.56Z" style="fill: #f1c256;"/>
            <path d="M23.78,41.8c0-.24.19-.43.43-.44.24,0,.43.19.43.43,0,.24-.19.43-.43.43-.24,0-.44-.19-.44-.43Z" style="fill: #f1c256;"/>
            <polygon points="30.66 30.06 30.08 29.37 30.16 29.26 32.38 26.59 34.38 29.36 33.85 30 34.38 30.74 32.4 33.52 30.08 30.75 30.16 30.65 30.66 30.06" style="fill: #f1c256;"/>
            <path d="M31.47,30.75c0-.51.36-.92.82-.93.45,0,.81.41.82.92,0,.51-.36.92-.81.93-.45,0-.82-.41-.82-.92Z" style="fill: #c42c27;"/>
          </g>
          <g>
            <path d="M20.8,56.87c-.6-.04-1.07-.55-1.08-1.15,0-.64.52-1.16,1.15-1.16l10.16-.02c.63,0,1.16.52,1.16,1.15,0,.31-.12.6-.34.82-.21.22-.5.34-.81.34l-10.17.02s-.05,0-.08,0ZM31.1,55.01h-.05s-10.17.02-10.17.02c-.38,0-.69.31-.69.69,0,.36.28.67.64.69h.05s10.16-.02,10.16-.02c.19,0,.36-.07.49-.2.13-.13.21-.3.21-.49,0-.36-.28-.66-.65-.69Z" style="fill: #1e1c1c;"/>
            <path d="M19.95,61.49s-.06-.01-.09-.03c-.09-.05-.14-.15-.12-.25l.92-4.62c.03-.13.15-.2.27-.18.12.03.21.15.18.27l-.77,3.87,1.77-1.77c.06-.06.14-.08.22-.06l3.64.9,3.64-.92c.08-.02.16,0,.22.06l1.77,1.77-.78-3.87c-.03-.13.06-.25.18-.27.13-.03.25.05.27.18l.93,4.62c.02.1-.03.2-.12.25-.09.05-.2.03-.27-.04l-2.22-2.21-3.57.9s-.07.01-.11,0l-3.57-.88-2.21,2.22s-.11.07-.18.07Z" style="fill: #1e1c1c;"/>
            <path d="M25.26,61.23c-1.75-.12-3.24-.68-3.84-1.46-.08-.1-.06-.25.05-.32.1-.08.25-.06.32.04.59.77,2.31,1.31,4.19,1.3,1.88,0,3.6-.54,4.18-1.32.08-.1.22-.12.32-.05.1.08.12.22.05.32-.68.89-2.5,1.5-4.55,1.5-.24,0-.49,0-.72-.03Z" style="fill: #1e1c1c;"/>
            <path d="M27.77,58.71c-.36-.02-.65-.33-.65-.69,0-.38.31-.69.69-.69,0,0,.04,0,.05,0,.36.02.65.33.65.69,0,.38-.31.69-.69.69,0,0-.04,0-.05,0ZM27.83,57.78c-.14,0-.24.1-.25.23,0,.12.1.22.21.23l-.02.23.03-.23c.13,0,.23-.1.23-.23,0-.12-.1-.22-.22-.23Z" style="fill: #1e1c1c;"/>
            <path d="M31.01,58.7c-.36-.02-.65-.32-.65-.69,0-.38.31-.69.69-.69.11,0,.21.03.3.07.11.06.16.2.1.31-.06.11-.2.16-.31.1-.02-.01-.05-.02-.09-.02-.13,0-.23.1-.23.23,0,.13.11.23.23.23.08,0,.14-.04.17-.08.09-.09.23-.09.33,0,.09.09.09.23,0,.33-.13.14-.32.22-.51.22-.02,0-.03,0-.05,0Z" style="fill: #1e1c1c;"/>
            <path d="M20.84,58.72c-.17-.01-.33-.09-.46-.22-.09-.09-.09-.24,0-.33.09-.09.24-.09.33,0,.05.05.11.07.18.08.06,0,.12-.02.16-.07.04-.04.07-.1.07-.16,0-.06-.02-.12-.07-.16-.05-.04-.1-.07-.16-.07-.04,0-.06,0-.09.02-.11.06-.25.02-.31-.09-.06-.11-.02-.25.09-.31.09-.05.19-.08.31-.08.18,0,.36.07.49.2.13.13.2.3.2.49,0,.18-.07.36-.2.49-.13.13-.3.2-.49.2-.02,0-.03,0-.05,0Z" style="fill: #1e1c1c;"/>
            <path d="M24.08,58.71c-.36-.02-.64-.33-.64-.69,0-.19.07-.36.2-.49.13-.13.3-.2.49-.2,0,0,.04,0,.05,0,.36.02.64.33.64.69,0,.19-.07.36-.2.49-.13.13-.3.2-.49.2,0,0-.04,0-.05,0ZM24.14,57.79c-.08,0-.14.02-.18.07-.04.04-.07.1-.07.16,0,.12.1.22.21.23l-.02.23.03-.23c.06,0,.12-.02.16-.07.04-.04.07-.1.07-.16,0-.12-.09-.22-.21-.23Z" style="fill: #1e1c1c;"/>
            <path d="M30.11,55.93c-.12,0-.22-.11-.21-.23,0-.13.1-.23.23-.23h.92c.14,0,.23.1.23.23,0,.13-.1.23-.23.23h-.93s-.01,0-.02,0Z" style="fill: #1e1c1c;"/>
            <path d="M25.49,55.94c-.12,0-.22-.11-.21-.23,0-.13.1-.23.23-.23h.93c.12,0,.23.1.23.23,0,.13-.1.23-.23.23h-.92s-.01,0-.02,0Z" style="fill: #1e1c1c;"/>
            <path d="M20.87,55.95c-.12,0-.21-.11-.21-.23,0-.13.1-.23.23-.23h.92c.12,0,.23.1.23.23,0,.13-.1.23-.23.23h-.92s-.01,0-.02,0Z" style="fill: #1e1c1c;"/>
            <path d="M23.18,55.94c-.12,0-.22-.11-.21-.23,0-.13.1-.23.23-.23h.92c.12,0,.23.1.23.23s-.1.23-.23.23h-.92s-.01,0-.02,0Z" style="fill: #1e1c1c;"/>
            <path d="M27.8,55.93c-.12,0-.22-.11-.22-.23,0-.13.1-.23.23-.23h.92c.12,0,.23.1.23.23,0,.13-.1.23-.23.23h-.92s-.01,0-.02,0Z" style="fill: #1e1c1c;"/>
            <path d="M30.82,54.99s-.03,0-.05,0c-.12-.03-.19-.16-.16-.28l.52-1.89-.44-.72c-.05-.08-.05-.17,0-.25l1.39-2.05-.86-.42c-.11-.05-.16-.18-.11-.29l.29-.77-1.02-.41c-.09-.03-.14-.12-.14-.21,0-.09.05-.18.14-.21l.96-.41-.22-.6s-.01-.04-.01-.06l-.07-1.02-.35-.45-3.13-.49c-.09-.01-.16-.08-.19-.17l-.41-1.64-.34-.98c-.04-.12.02-.25.14-.29.12-.04.25.02.29.14l.34,1,.38,1.51,3.07.48c.06,0,.11.04.15.09l.45.58s.05.08.05.13l.07,1.06.28.78c.04.11-.01.24-.13.29l-.64.27.71.28c.12.05.17.18.13.29l-.29.78.91.44c.06.03.1.08.12.15.02.06,0,.13-.03.19l-1.45,2.15.42.68c.03.05.04.12.03.18l-.55,1.99c-.03.11-.13.18-.24.17Z" style="fill: #1e1c1c;"/>
            <path d="M29.89,53.87s-.05,0-.07-.02c-.12-.05-.17-.18-.12-.3l.25-.61-1.68-.68c-.08-.03-.14-.11-.14-.2,0-.09.04-.17.11-.22l1.7-1c.11-.06.25-.03.32.08.06.11.03.25-.08.32l-1.3.77,1.46.59c.06.02.1.07.13.12.02.06.02.12,0,.18l-.34.82c-.04.09-.13.15-.23.14Z" style="fill: #1e1c1c;"/>
            <path d="M29.79,52.82s-.06-.01-.09-.03c-.11-.06-.16-.2-.1-.31.09-.17.26-.62-.13-1.03-.09-.09-.08-.24,0-.33.09-.09.24-.08.33,0,.41.43.49,1.02.21,1.56-.04.09-.13.13-.22.13Z" style="fill: #1e1c1c;"/>
            <path d="M22.69,43.47c-.12,0-.22-.11-.21-.23,0-.64-.52-1.16-1.16-1.15-.2,0-.4.05-.58.16-.11.06-.25.02-.32-.09-.06-.11-.02-.25.09-.31.25-.14.53-.22.81-.22.89,0,1.62.72,1.62,1.61,0,.13-.1.23-.23.23,0,0-.01,0-.02,0Z" style="fill: #1e1c1c;"/>
            <path d="M21.31,43.47c-.12,0-.21-.11-.21-.23,0-.41-.22-.79-.58-1-.18-.1-.37-.15-.58-.15-.2,0-.4.05-.58.16-.11.06-.25.02-.32-.09-.06-.11-.02-.25.09-.31.25-.14.53-.22.81-.22.28,0,.56.07.81.21.5.29.81.82.81,1.4,0,.13-.1.23-.23.23,0,0,0,0-.02,0Z" style="fill: #1e1c1c;"/>
            <path d="M19.92,43.47c-.12,0-.22-.11-.21-.23,0-.41-.22-.79-.58-1-.18-.1-.37-.15-.58-.15-.2,0-.4.05-.58.16-.11.06-.25.02-.31-.09-.06-.11-.02-.25.09-.31.25-.14.53-.22.81-.22.28,0,.56.07.81.21.5.29.81.83.81,1.4,0,.13-.1.23-.23.23h-.02Z" style="fill: #1e1c1c;"/>
            <path d="M18.54,43.48c-.12,0-.22-.11-.22-.23,0-.41-.22-.79-.58-1-.18-.1-.37-.15-.58-.15-.07,0-.14,0-.21.02-.13.02-.25.07-.37.13-.11.06-.25.02-.31-.09-.06-.11-.02-.25.09-.31.17-.09.33-.15.5-.18.09-.02.19-.03.3-.03.28,0,.56.07.81.21.5.29.81.83.81,1.4,0,.13-.1.23-.23.23,0,0,0,0-.01,0Z" style="fill: #1e1c1c;"/>
            <path d="M15.67,44.86c-.84-.06-1.5-.76-1.5-1.61,0-.89.72-1.62,1.61-1.62.9,0,1.62.73,1.62,1.61,0,.43-.17.84-.47,1.14-.3.31-.71.47-1.14.48-.04,0-.08,0-.11,0ZM15.86,42.1s-.06,0-.08,0c-.64,0-1.15.52-1.15,1.16,0,.63.52,1.15,1.16,1.15.31,0,.6-.12.82-.34s.34-.51.34-.82c0-.6-.47-1.11-1.07-1.15Z" style="fill: #1e1c1c;"/>
            <path d="M24.61,49.45c-.09,0-.18-.07-.21-.16l-1.91-5.98c-.04-.12.03-.25.15-.29.12-.04.25.03.29.15l1.91,5.98c.04.12-.03.25-.15.29-.03.01-.06.01-.08.01Z" style="fill: #1e1c1c;"/>
            <path d="M23,48.78c-.09,0-.17-.07-.21-.16l-1.7-5.31c-.04-.12.03-.25.15-.29.12-.04.25.03.29.15l1.7,5.31c.04.12-.03.25-.15.29-.03,0-.06.01-.09.01Z" style="fill: #1e1c1c;"/>
            <path d="M21.55,48.56c-.09,0-.17-.07-.2-.16l-1.63-5.08c-.04-.12.03-.25.15-.29.12-.04.25.03.29.15l1.63,5.08c.04.12-.03.25-.15.29-.03.01-.06.01-.09.01Z" style="fill: #1e1c1c;"/>
            <path d="M20.19,48.65c-.09,0-.17-.07-.2-.16l-1.66-5.18c-.04-.12.03-.25.15-.29s.25.03.29.15l1.66,5.18c.04.12-.03.25-.15.29-.03,0-.06.01-.09.01Z" style="fill: #1e1c1c;"/>
            <path d="M20.84,55.02c-.09,0-.17-.07-.2-.16l-3.69-11.54c-.04-.12.03-.25.15-.29.12-.04.25.03.29.15l3.69,11.54c.04.12-.03.25-.15.29-.03,0-.06.01-.09,0Z" style="fill: #1e1c1c;"/>
            <path d="M15.32,43.25c0-.25.21-.46.46-.46.26,0,.46.21.46.46,0,.26-.21.46-.46.46-.25,0-.46-.21-.46-.46Z" style="fill: #1e1c1c;"/>
            <path d="M27.8,55.01c-.12,0-.21-.11-.21-.23,0-3.44-2.81-6.23-6.25-6.22-.8,0-1.58.15-2.31.45-.12.05-.25,0-.3-.13-.05-.12,0-.25.13-.3.78-.32,1.62-.48,2.48-.48,3.7,0,6.71,2.99,6.71,6.69,0,.13-.1.23-.23.23,0,0,0,0-.01,0Z" style="fill: #1e1c1c;"/>
            <path d="M26.41,55.01c-.12,0-.22-.11-.21-.23,0-2.67-2.19-4.85-4.86-4.84-.65,0-1.29.13-1.89.38-.12.05-.25,0-.3-.12-.05-.12,0-.25.12-.3.66-.28,1.35-.42,2.07-.42,1.42,0,2.76.55,3.76,1.55s1.56,2.34,1.56,3.76c0,.13-.1.23-.23.23,0,0-.01,0-.02,0Z" style="fill: #1e1c1c;"/>
            <path d="M25.03,55.02c-.12,0-.22-.11-.22-.23,0-1.91-1.56-3.46-3.47-3.46-.5,0-.99.11-1.46.32-.11.05-.25,0-.31-.11-.05-.11,0-.25.11-.31.52-.24,1.08-.37,1.65-.37,2.16,0,3.93,1.76,3.93,3.92,0,.13-.1.23-.23.23,0,0-.01,0-.02,0Z" style="fill: #1e1c1c;"/>
            <path d="M23.64,55.02c-.12,0-.22-.11-.21-.23,0-.56-.22-1.08-.61-1.47-.39-.39-.91-.61-1.47-.61-.35,0-.7.09-1.01.26-.11.06-.25.02-.31-.09s-.02-.25.09-.31c.38-.21.8-.32,1.24-.32.67,0,1.32.26,1.8.74.48.48.75,1.12.75,1.79,0,.13-.1.23-.23.23,0,0-.01,0-.02,0Z" style="fill: #1e1c1c;"/>
            <path d="M22.25,55.02c-.12,0-.22-.11-.21-.23,0-.38-.32-.69-.69-.69-.19,0-.38.08-.51.23-.09.1-.23.1-.33.02-.09-.08-.1-.23-.02-.33.22-.24.53-.38.85-.38.64,0,1.16.51,1.16,1.15,0,.13-.1.23-.23.23,0,0-.01,0-.02,0Z" style="fill: #1e1c1c;"/>
            <path d="M22.69,43.47c-.12,0-.22-.11-.21-.23,0-.13.1-.23.23-.23,1.22,0,2.6-.57,3.98-1.63,2.82-2.16,4.93-5.69,5.48-7.92.02-.09.1-.16.2-.17.1-.01.19.04.23.13.49.98,1.52,5.24-2.47,8.17-.14.12-.39,0-.38-.19,0-.06.03-.11.07-.15,0,0,.02-.01.03-.02,3.15-2.31,2.98-5.48,2.57-6.97-.87,2.59-3.11,5.7-5.45,7.49-1.46,1.12-2.94,1.72-4.26,1.72,0,0-.01,0-.02,0Z" style="fill: #1e1c1c;"/>
            <path d="M32.38,33.75c-.06,0-.12-.03-.16-.08l-2.32-2.77c-.07-.09-.07-.21,0-.29l1.1-1.33s.02-.02.03-.03l1.18-1.42c.04-.06.11-.09.19-.08.07,0,.14.04.18.1l2,2.77c.06.08.06.19,0,.27l-1.99,2.78c-.04.06-.11.09-.18.1,0,0-.02,0-.03,0ZM30.38,30.75l2,2.39,1.72-2.4-1.72-2.39-1.01,1.22s-.02.02-.03.03l-.95,1.15Z" style="fill: #1e1c1c;"/>
            <path d="M30.64,30.29c-.06,0-.12-.03-.16-.08l-.58-.69c-.07-.09-.07-.21,0-.29l.08-.1,2.22-2.68c.05-.06.11-.09.19-.08.07,0,.14.04.18.1l2,2.77c.06.09.06.2,0,.28l-.53.64c-.08.1-.23.11-.32.03-.1-.08-.11-.23-.03-.33l.42-.5-1.72-2.38-1.99,2.4.46.55c.08.1.07.24-.03.33-.05.04-.11.06-.16.05Z" style="fill: #1e1c1c;"/>
            <path d="M27.16,42.79c-.09,0-.17-.07-.2-.16-.04-.12.02-.25.14-.29,1-.34,1.93-.71,2.76-1.13,0,0,.02,0,.02-.01,6.78-3.4,5.02-8.34,4.35-10.2l-.07-.19c-.04-.12.02-.25.14-.3.12-.04.25.02.3.14l.07.19c.7,1.96,2.57,7.18-4.56,10.75,0,0-.01.01-.02.02h0c-.85.42-1.81.81-2.84,1.16-.03.01-.06.01-.09.01Z" style="fill: #1e1c1c;"/>
            <path d="M21.31,42.09c-.1,0-.19-.08-.21-.19-.02-.12.06-.25.18-.27.62-.12,1.27-.42,1.92-.89.73-.53,1.47-1.29,2.22-2.25.64-.83,1.29-1.8,1.91-2.87,0,0,.01-.02.02-.03.52-.89,1.03-1.86,1.57-2.96.22-.45.41-.84.57-1.18.16-.35.3-.62.39-.8.06-.11.2-.16.31-.1.11.06.16.2.1.31-.09.18-.22.45-.38.78-.16.34-.35.74-.57,1.19-.55,1.11-1.07,2.09-1.59,3,0,.02-.02.03-.03.05-.63,1.08-1.28,2.06-1.93,2.9-.78.99-1.56,1.78-2.31,2.34-.71.52-1.41.84-2.1.97-.02,0-.04,0-.06,0Z" style="fill: #1e1c1c;"/>
            <path d="M32.22,31.9c-.55-.04-.98-.54-.98-1.15,0-.3.1-.59.3-.81.2-.23.46-.35.75-.35.57,0,1.05.52,1.05,1.15,0,.64-.47,1.16-1.04,1.16-.02,0-.04,0-.07,0ZM32.32,30.06c-.19,0-.33.07-.44.19-.12.13-.18.31-.18.5,0,.37.24.67.55.69h.04c.32,0,.58-.31.58-.69,0-.37-.24-.67-.55-.69Z" style="fill: #1e1c1c;"/>
            <path d="M30.8,40.94c-.05,0-.11-.03-.15-.07l-1.54-1.54c-.09-.09-.09-.24,0-.33.09-.09.24-.09.33,0l1.54,1.54c.09.09.09.24,0,.33-.05.05-.12.07-.18.07Z" style="fill: #1e1c1c;"/>
            <path d="M29.76,41.74c-.05,0-.11-.03-.15-.07l-1.37-1.36c-.09-.09-.09-.24,0-.33.09-.09.24-.09.33,0l1.37,1.36c.09.09.09.24,0,.33-.05.05-.12.07-.18.07Z" style="fill: #1e1c1c;"/>
            <path d="M28.47,42.31c-.05,0-.11-.03-.15-.07l-1.03-1.03c-.09-.09-.09-.24,0-.33.09-.09.24-.09.33,0l1.03,1.03c.09.09.09.24,0,.33-.05.05-.12.07-.18.07Z" style="fill: #1e1c1c;"/>
            <path d="M31.66,39.95c-.05,0-.11-.03-.15-.07l-1.59-1.59c-.09-.09-.09-.24,0-.33.09-.09.24-.09.33,0l1.59,1.59c.09.09.09.24,0,.33-.05.05-.11.07-.18.07Z" style="fill: #1e1c1c;"/>
            <path d="M32.32,38.76c-.05,0-.11-.03-.15-.07l-1.51-1.51c-.09-.09-.09-.24,0-.33.09-.09.24-.09.33,0l1.51,1.51c.09.09.09.24,0,.33-.05.05-.11.07-.18.07Z" style="fill: #1e1c1c;"/>
            <path d="M32.74,37.34c-.05,0-.11-.03-.15-.07l-1.27-1.26c-.09-.09-.09-.24,0-.33.09-.09.24-.09.33,0l1.27,1.26c.09.09.09.24,0,.33-.05.05-.11.07-.18.07Z" style="fill: #1e1c1c;"/>
            <path d="M32.81,35.57c-.05,0-.11-.03-.15-.07l-.77-.77c-.09-.09-.09-.24,0-.33.09-.09.24-.09.33,0l.77.77c.09.09.09.24,0,.33-.05.05-.11.07-.18.07Z" style="fill: #1e1c1c;"/>
            <path d="M31.17,29.66c-.12,0-.22-.11-.22-.23,0-.13.1-.23.22-.24h0c.12,0,.23.1.24.22,0,.13-.1.23-.23.24h-.02Z" style="fill: #1e1c1c;"/>
            <path d="M29.24,32.69c-.12,0-.21-.1-.21-.22,0-.13.1-.24.22-.24.13,0,.23.09.24.22h0c0,.13-.1.24-.22.24,0,0-.02,0-.02,0Z" style="fill: #1e1c1c;"/>
            <path d="M29.17,37.47c-.51-.04-.92-.46-.92-.98,0-.55.44-.99.99-.99.55,0,.98.45.99.99,0,.54-.44.98-.98.99-.02,0-.05,0-.07,0ZM29.27,35.96c-.33,0-.56.24-.56.53,0,.27.22.5.49.52h.04c.29,0,.52-.23.52-.52,0-.27-.21-.5-.49-.52Z" style="fill: #1e1c1c;"/>
            <path d="M30.35,35.05c-.52-.04-.92-.47-.92-.98,0-.26.1-.51.29-.7.19-.18.43-.29.7-.29.55,0,.99.44.99.98,0,.55-.44.99-.99.99-.02,0-.05,0-.07,0ZM30.46,33.55c-.33,0-.56.23-.56.52,0,.28.22.51.49.52h.04c.29,0,.53-.24.53-.53,0-.27-.21-.5-.49-.52Z" style="fill: #1e1c1c;"/>
            <path d="M27.72,39.46c-.48-.03-.86-.44-.86-.92,0-.51.41-.92.92-.92h.06c.48.04.86.44.86.92,0,.51-.41.92-.92.92h-.06ZM27.81,38.08c-.29,0-.49.2-.49.46,0,.24.19.44.43.45h.03c.25,0,.46-.2.46-.46,0-.24-.19-.44-.43-.45Z" style="fill: #1e1c1c;"/>
            <path d="M25.98,41.3c-.41-.03-.74-.37-.74-.79,0-.21.08-.41.23-.56.15-.15.35-.23.56-.23,0,0,.05,0,.06,0,.41.03.74.38.74.79,0,.21-.08.41-.23.56-.15.15-.35.23-.56.23,0,0-.05,0-.06,0ZM26.06,40.18c-.11,0-.19.03-.26.09-.06.06-.1.15-.1.24,0,.17.13.32.3.33l-.02.23.04-.23c.09,0,.17-.03.23-.1.06-.06.1-.14.1-.23,0-.18-.13-.32-.31-.33Z" style="fill: #1e1c1c;"/>
            <path d="M33.85,34.52c-.41-.03-.74-.37-.74-.79,0-.44.36-.79.79-.79,0,0,.05,0,.06,0,.41.03.74.37.74.79,0,.21-.08.41-.23.56-.15.15-.35.23-.56.23,0,0-.05,0-.06,0ZM33.92,33.41c-.21,0-.36.15-.36.33,0,.17.13.31.31.33l-.02.23.04-.23c.09,0,.17-.03.23-.1.06-.06.1-.14.09-.23,0-.17-.13-.32-.3-.33Z" style="fill: #1e1c1c;"/>
            <path d="M24.17,42.46c-.35-.02-.62-.31-.62-.66,0-.18.07-.35.19-.47.12-.13.29-.2.47-.2,0,0,.04,0,.05,0,.35.02.62.31.62.66,0,.18-.07.35-.19.47-.13.13-.29.2-.47.2,0,0-.04,0-.05,0ZM24.23,41.59c-.07,0-.12.02-.16.06-.04.04-.06.09-.06.14,0,.11.08.2.19.2l-.02.23.03-.23c.06,0,.1-.02.14-.06.04-.04.06-.09.06-.14,0-.11-.08-.2-.19-.2Z" style="fill: #1e1c1c;"/>
            <path d="M33.86,36.4c-.35-.02-.62-.32-.62-.66,0-.37.3-.67.66-.67,0,0,.04,0,.05,0,.35.02.62.31.62.66,0,.37-.3.67-.66.67,0,0-.04,0-.05,0ZM33.92,35.54c-.13,0-.22.09-.22.2,0,.11.08.2.19.2l-.02.23.03-.23c.11,0,.2-.09.2-.2,0-.11-.08-.2-.19-.2Z" style="fill: #1e1c1c;"/>
            <path d="M33.22,37.28c0-.2.17-.37.37-.37.2,0,.37.16.37.37,0,.2-.16.37-.37.37-.2,0-.37-.17-.37-.37Z" style="fill: #1e1c1c;"/>
            <path d="M20.61,42.27h-.02c-.13-.02-.22-.14-.2-.26l.21-1.51c0-.06.04-.12.09-.16.05-.04.11-.05.18-.04l2.49.4c.13.02.21.14.19.26-.02.13-.14.21-.26.19l-2.26-.36-.17,1.28c-.02.12-.12.21-.24.2Z" style="fill: #1e1c1c;"/>
            <path d="M23.33,41.16c-.08,0-.15-.05-.2-.12-.02-.04-.07-.11-.66-2.61-.02-.07,0-.15.05-.2.05-.06.13-.08.2-.08l2.9.24c.13.01.22.12.21.25-.01.13-.1.22-.25.21l-2.58-.22c.21.88.49,2.06.54,2.18.07.11.03.24-.08.3-.04.03-.08.04-.13.03Z" style="fill: #1e1c1c;"/>
            <path d="M25.59,38.87c-.07,0-.14-.04-.18-.1-.02-.03-.07-.1-1.16-2.82-.03-.07-.02-.15.02-.21s.11-.1.18-.11l3.07-.13c.13,0,.24.12.23.25s-.1.22-.23.21l-2.72.11c.4.99.94,2.33,1,2.44.07.11.04.24-.06.31-.04.03-.09.04-.14.04Z" style="fill: #1e1c1c;"/>
            <path d="M27.52,35.96c-.09,0-.17-.06-.2-.14l-1.5-2.74c-.04-.07-.04-.15,0-.22.04-.07.11-.11.19-.12l3.11-.23c.12-.01.24.08.25.21,0,.13-.09.24-.21.25l-2.75.21,1.34,2.45s.03.07.03.11c0,.13-.1.24-.22.24,0,0-.02,0-.02,0Z" style="fill: #1e1c1c;"/>
            <path d="M29.11,32.96c-.08,0-.15-.05-.19-.13l-1.22-2.42c-.03-.07-.03-.15,0-.22.04-.07.1-.11.18-.12l2.75-.24c.12-.01.24.08.25.21.01.13-.08.24-.21.25l-2.41.21,1.07,2.12c.06.11,0,.25-.1.31-.04.02-.08.03-.12.03Z" style="fill: #1e1c1c;"/>
          </g>
        </g>
        <g>
          <g>
            <path d="M27.28,11.81l.19-.97c-.06.03-.12.05-.19.05-.25,0-.46-.21-.46-.46,0-.25.21-.46.46-.46.13,0,.25.05.34.15l.58-2.92-2.3,2.31-3.7-.92-3.69.93-2.31-2.31.59,2.92c.09-.09.21-.15.34-.15.25,0,.46.21.46.46,0,.25-.21.46-.46.46-.07,0-.13-.01-.19-.04l.2.97c-.25,0-.49.1-.65.27-.17.17-.27.4-.27.65,0,.51.42.92.93.92l10.16-.02c.51,0,.92-.42.92-.93,0-.51-.42-.92-.93-.92ZM20.35,10.9c-.25,0-.46-.21-.46-.46,0-.25.21-.46.46-.46.25,0,.46.21.46.46,0,.25-.21.46-.46.46ZM24.04,10.9c-.25,0-.46-.21-.46-.46,0-.25.21-.46.46-.46.25,0,.46.21.46.46,0,.26-.21.46-.46.46Z" style="fill: #f1c256;"/>
            <path d="M26.56,8.83l-.67.68-3.7-.92-3.69.93-.68-.67c.62-.82,2.34-1.41,4.37-1.41,2.03,0,3.75.58,4.37,1.4Z" style="fill: #c42c27;"/>
            <path d="M21.34,26.89c-2.68,2.05-4.95,5.57-5.57,8.04-.46-.92-1.44-5.06,2.41-7.89,0,0,0,0,0,0,.81-.4,1.74-.79,2.81-1.14l.34,1Z" style="fill: #4a6c76;"/>
            <path d="M15.77,34.93l-1.99,2.78c-.63-1.78-2.81-7.06,4.4-10.67-3.85,2.83-2.88,6.97-2.41,7.89Z" style="fill: #c42c27;"/>
            <path d="M26.84,26.6c-4.31.8-7.94,9.53-8.76,11.1l-2.32-2.77c.61-2.48,2.89-5.99,5.57-8.04,1.32-1.01,2.75-1.67,4.12-1.68,0,.77.62,1.38,1.39,1.38Z" style="fill: #c42c27;"/>
            <path d="M18.09,37.7c.18-.35.51-1.07.95-1.97l1.22,2.42-2.75.25.58-.7Z" style="fill: #f1c256;"/>
            <path d="M22.14,35.49l-3.11.24c.43-.87.97-1.92,1.59-3l1.51,2.77Z" style="fill: #f1c256;"/>
            <path d="M20.64,32.72c.57-.98,1.23-1.99,1.93-2.9.06.08,1.14,2.77,1.14,2.77l-3.07.13Z" style="fill: #f1c256;"/>
            <path d="M24.84,27.53c.05.08.63,2.54.63,2.54l-2.9-.24c.7-.9,1.47-1.7,2.27-2.29Z" style="fill: #f1c256;"/>
            <path d="M27.33,27.93l-2.5-.4c.65-.47,1.32-.8,2.01-.93.25,0,.49-.07.69-.19l-.2,1.52Z" style="fill: #f1c256;"/>
            <path d="M13.83,32.72c0-.24.19-.43.43-.44.24,0,.43.19.44.43s-.19.43-.43.44c-.24,0-.43-.19-.43-.43Z" style="fill: #f1c256;"/>
            <path d="M14.83,34.72c0,.31-.25.56-.56.56-.31,0-.56-.25-.56-.56,0-.31.25-.56.56-.56.31,0,.56.25.56.56Z" style="fill: #f1c256;"/>
            <path d="M18.5,34.39c0,.42-.34.75-.76.75-.42,0-.76-.34-.76-.75,0-.42.34-.76.76-.76.42,0,.76.34.76.76Z" style="fill: #f1c256;"/>
            <path d="M19.69,31.97c0,.42-.34.76-.76.76-.42,0-.75-.33-.75-.76,0-.42.34-.75.75-.75.42,0,.76.33.76.75Z" style="fill: #f1c256;"/>
            <path d="M21.07,29.91c0,.38-.31.69-.69.69-.38,0-.69-.31-.69-.69,0-.38.31-.69.69-.69.38,0,.69.31.69.69Z" style="fill: #f1c256;"/>
            <path d="M22.69,27.94c0,.31-.25.56-.56.56-.31,0-.56-.25-.56-.56,0-.31.25-.56.56-.56.31,0,.56.25.56.56Z" style="fill: #f1c256;"/>
            <path d="M24.39,26.66c0,.24-.19.43-.43.44-.24,0-.43-.19-.44-.43,0-.24.19-.43.43-.43.24,0,.43.19.43.43Z" style="fill: #f1c256;"/>
            <polygon points="17.51 38.4 18.09 39.09 18 39.19 15.78 41.87 13.79 39.1 14.32 38.45 13.78 37.71 15.77 34.93 18.09 37.7 18 37.81 17.51 38.4" style="fill: #f1c256;"/>
            <path d="M16.7,37.71c0,.51-.36.92-.82.93-.45,0-.81-.41-.82-.92,0-.51.36-.92.81-.92.45,0,.82.41.82.92Z" style="fill: #c42c27;"/>
          </g>
          <g>
            <path d="M17.04,13.91c-.6-.04-1.07-.55-1.08-1.15,0-.31.12-.6.34-.82.21-.22.5-.34.81-.34l10.16-.02c.63,0,1.16.52,1.16,1.15,0,.64-.52,1.16-1.15,1.16l-10.16.02s-.05,0-.08,0ZM27.33,12.05h-.05s-10.16.02-10.16.02c-.19,0-.36.07-.49.2-.13.13-.21.3-.2.49,0,.36.28.67.65.69h.05s10.16-.02,10.16-.02c.38,0,.69-.31.69-.69,0-.36-.28-.67-.64-.69Z" style="fill: #1e1c1c;"/>
            <path d="M17.1,12.06c-.1,0-.19-.08-.21-.18l-.93-4.62c-.02-.1.03-.2.12-.25.09-.05.2-.03.27.04l2.22,2.21,3.57-.9s.08,0,.11,0l3.57.89,2.21-2.22c.07-.07.18-.09.27-.04.09.05.14.15.12.25l-.92,4.62c-.03.12-.15.2-.27.18-.13-.03-.21-.15-.18-.27l.77-3.87-1.77,1.77c-.06.06-.14.08-.22.06l-3.64-.9-3.64.92c-.08.02-.16,0-.22-.06l-1.77-1.77.78,3.87c.03.13-.05.25-.18.27-.02,0-.04,0-.06,0Z" style="fill: #1e1c1c;"/>
            <path d="M17.8,9.08s-.08-.02-.12-.05c-.1-.08-.12-.22-.04-.32.68-.9,2.5-1.5,4.55-1.5,2.05,0,3.88.59,4.56,1.49.08.1.06.25-.04.32-.1.08-.25.06-.32-.04-.59-.77-2.31-1.31-4.19-1.3-1.88,0-3.6.54-4.18,1.32-.05.06-.13.1-.2.09Z" style="fill: #1e1c1c;"/>
            <path d="M20.3,11.13c-.36-.02-.64-.33-.64-.69,0-.18.07-.36.2-.49.13-.13.3-.2.49-.2,0,0,.04,0,.05,0,.36.02.65.33.65.69,0,.19-.07.36-.2.49-.13.13-.3.2-.49.2,0,0-.04,0-.05,0ZM20.36,10.21c-.08,0-.13.02-.18.07-.04.04-.07.1-.07.16,0,.12.09.22.21.23l-.02.23.03-.23c.06,0,.12-.02.16-.07.04-.04.07-.1.07-.16,0-.12-.1-.22-.22-.23Z" style="fill: #1e1c1c;"/>
            <path d="M17.06,11.14c-.09,0-.18-.03-.25-.07-.11-.06-.15-.2-.09-.31.06-.11.2-.15.31-.09.02.01.05.02.08.02.13,0,.23-.11.23-.23,0-.13-.11-.23-.23-.23-.08,0-.14.04-.17.08-.09.09-.23.1-.33,0-.09-.09-.1-.24,0-.33.13-.14.31-.22.51-.22.39,0,.69.31.69.69,0,.38-.31.69-.69.69-.02,0-.03,0-.05,0Z" style="fill: #1e1c1c;"/>
            <path d="M27.23,11.12c-.16-.01-.32-.08-.44-.2-.13-.13-.2-.31-.2-.49,0-.18.07-.36.2-.49.13-.13.3-.2.49-.2.19,0,.37.08.51.22.09.09.08.24,0,.33-.09.09-.24.08-.33,0-.03-.03-.09-.07-.17-.08-.06,0-.12.02-.16.07-.04.04-.07.1-.07.16,0,.06.02.12.07.16.04.04.1.06.16.07.05,0,.07,0,.08-.02.11-.06.25-.02.31.09.06.11.02.25-.09.31-.09.05-.19.08-.31.08-.02,0-.03,0-.05,0Z" style="fill: #1e1c1c;"/>
            <path d="M23.99,11.13c-.36-.02-.64-.33-.65-.69,0-.18.07-.36.2-.49.13-.13.3-.2.49-.2,0,0,.04,0,.05,0,.36.02.64.33.65.69,0,.19-.07.36-.2.49-.13.13-.3.2-.49.2,0,0-.04,0-.05,0ZM24.06,10.2c-.08,0-.14.02-.18.07-.04.04-.07.1-.07.16,0,.12.09.22.21.23l-.02.23.03-.23c.06,0,.12-.02.16-.07.04-.04.07-.1.07-.16,0-.12-.09-.22-.21-.23Z" style="fill: #1e1c1c;"/>
            <path d="M17.1,12.99c-.12,0-.22-.11-.21-.23,0-.13.1-.23.23-.23h.93c.12,0,.23.1.23.23,0,.13-.1.23-.23.23h-.92s-.01,0-.02,0Z" style="fill: #1e1c1c;"/>
            <path d="M21.72,12.98c-.12,0-.21-.11-.21-.23,0-.13.1-.23.23-.23h.92c.13,0,.23.1.23.23,0,.13-.1.23-.23.23h-.93s0,0-.02,0Z" style="fill: #1e1c1c;"/>
            <path d="M26.34,12.97c-.12,0-.22-.11-.21-.23,0-.13.1-.23.23-.23h.92c.12,0,.23.1.23.23s-.1.23-.23.23h-.92s-.01,0-.02,0Z" style="fill: #1e1c1c;"/>
            <path d="M24.03,12.98c-.12,0-.22-.11-.21-.23,0-.13.1-.23.23-.23h.92c.12,0,.23.1.23.23,0,.13-.1.23-.23.23h-.92s-.01,0-.02,0Z" style="fill: #1e1c1c;"/>
            <path d="M19.41,12.98c-.12,0-.22-.11-.21-.23,0-.13.1-.23.23-.23h.92c.11,0,.23.1.23.23,0,.13-.1.23-.23.23h-.92s-.01,0-.02,0Z" style="fill: #1e1c1c;"/>
            <path d="M21.32,27.12c-.09,0-.17-.06-.2-.16l-.34-1-.38-1.52-3.07-.48c-.06,0-.11-.04-.14-.09l-.45-.58s-.05-.08-.05-.13l-.07-1.06-.28-.78c-.04-.12.01-.24.13-.29l.64-.27-.71-.28c-.12-.05-.17-.18-.13-.3l.29-.78-.91-.44c-.06-.03-.11-.08-.12-.15-.02-.07,0-.13.03-.19l1.45-2.15-.42-.68c-.03-.05-.04-.12-.03-.18l.55-1.99c.03-.12.16-.19.28-.16.12.03.2.16.16.28l-.52,1.89.44.72c.05.08.05.18,0,.25l-1.39,2.05.86.42c.11.05.16.18.12.29l-.29.77,1.02.41c.09.04.14.12.14.21s-.05.18-.14.21l-.96.41.22.6s.01.04.01.06l.07,1.02.35.45,3.12.49c.09.02.17.08.19.17l.41,1.64.34.98c.04.12-.02.25-.14.29-.03.01-.06.01-.09.01Z" style="fill: #1e1c1c;"/>
            <path d="M18.09,17.64c-.07,0-.14-.04-.18-.11-.06-.11-.03-.25.08-.32l1.3-.77-1.46-.59c-.06-.02-.1-.07-.13-.12-.02-.06-.02-.12,0-.18l.34-.82c.05-.12.18-.18.3-.13.12.05.17.18.12.3l-.25.61,1.68.68c.08.03.14.11.14.2,0,.09-.04.17-.11.22l-1.7,1s-.09.04-.13.03Z" style="fill: #1e1c1c;"/>
            <path d="M18.51,17.4c-.06,0-.11-.03-.15-.07-.41-.43-.49-1.02-.21-1.56.06-.11.2-.16.31-.1.11.06.16.2.1.31-.09.17-.26.62.13,1.03.09.09.08.24,0,.33-.05.05-.11.07-.18.06Z" style="fill: #1e1c1c;"/>
            <path d="M26.73,26.83c-.39-.03-.75-.19-1.03-.47-.3-.31-.47-.71-.48-1.14,0-.13.1-.23.23-.23.14,0,.23.1.23.23,0,.31.12.6.34.82.22.22.51.34.82.34.2,0,.4-.05.58-.16.11-.06.25-.02.31.09.06.11.02.25-.09.31-.25.14-.53.21-.81.22-.04,0-.08,0-.11,0Z" style="fill: #1e1c1c;"/>
            <path d="M28.12,26.82c-.24-.02-.48-.09-.7-.21-.5-.29-.81-.83-.81-1.4,0-.13.1-.23.23-.23.13,0,.23.1.23.23,0,.41.22.79.58,1,.18.1.37.15.58.15.2,0,.4-.05.58-.16.11-.06.25-.02.31.09.06.11.02.25-.09.32-.25.14-.53.22-.81.22-.04,0-.08,0-.11,0Z" style="fill: #1e1c1c;"/>
            <path d="M29.5,26.82c-.24-.02-.48-.09-.7-.21-.5-.29-.81-.82-.81-1.4,0-.13.1-.23.23-.23.14,0,.23.1.23.23,0,.41.22.79.58,1,.18.1.37.15.58.15.2,0,.4-.05.58-.16.11-.06.25-.02.31.09s.02.25-.09.31c-.25.14-.53.22-.81.22-.04,0-.08,0-.11,0Z" style="fill: #1e1c1c;"/>
            <path d="M30.89,26.82c-.24-.02-.48-.09-.69-.21-.5-.29-.81-.83-.81-1.4,0-.13.1-.23.23-.23.13,0,.23.1.23.23,0,.41.22.79.58,1,.18.1.37.15.58.15.07,0,.14,0,.21-.02.13-.02.25-.07.37-.13.11-.06.25-.02.31.09.06.11.02.25-.09.31-.17.09-.33.15-.51.18-.09.02-.19.03-.3.03-.04,0-.08,0-.11,0Z" style="fill: #1e1c1c;"/>
            <path d="M32.27,26.82c-.84-.06-1.5-.77-1.51-1.61,0-.43.17-.84.47-1.14.31-.31.71-.47,1.14-.48.9,0,1.62.73,1.62,1.61,0,.89-.72,1.62-1.61,1.62-.04,0-.08,0-.11,0ZM32.47,24.05s-.05,0-.08,0c-.31,0-.6.12-.82.34-.22.22-.34.51-.34.82,0,.63.52,1.15,1.16,1.15.64,0,1.15-.52,1.15-1.16,0-.6-.47-1.11-1.08-1.15Z" style="fill: #1e1c1c;"/>
            <path d="M25.44,25.45c-.09,0-.17-.07-.2-.16l-1.91-5.98c-.04-.12.03-.25.15-.29.12-.04.25.03.29.15l1.91,5.98c.04.12-.03.25-.15.29-.03,0-.06.01-.09.01Z" style="fill: #1e1c1c;"/>
            <path d="M26.82,25.44c-.09,0-.17-.07-.2-.16l-1.7-5.31c-.04-.12.03-.25.15-.29.12-.04.25.03.29.15l1.7,5.31c.04.12-.03.25-.15.29-.03,0-.06.01-.09.01Z" style="fill: #1e1c1c;"/>
            <path d="M28.21,25.44c-.09,0-.17-.07-.21-.16l-1.63-5.08c-.04-.12.03-.25.15-.29.12-.04.25.03.29.15l1.63,5.08c.04.12-.03.25-.15.29-.03,0-.06.01-.09,0Z" style="fill: #1e1c1c;"/>
            <path d="M29.6,25.44c-.09,0-.17-.07-.21-.16l-1.66-5.18c-.04-.12.03-.25.15-.29.12-.04.25.03.29.15l1.66,5.18c.04.12-.03.25-.15.29-.03,0-.06.01-.09,0Z" style="fill: #1e1c1c;"/>
            <path d="M30.98,25.44c-.09,0-.17-.07-.2-.16l-3.69-11.54c-.04-.12.03-.25.15-.29.12-.04.25.03.29.15l3.69,11.54c.04.12-.03.25-.15.29-.03,0-.06.01-.09.01Z" style="fill: #1e1c1c;"/>
            <path d="M32.85,25.2c0,.26-.21.46-.46.46-.26,0-.46-.21-.46-.46,0-.25.21-.46.46-.46.26,0,.46.21.46.46Z" style="fill: #1e1c1c;"/>
            <path d="M26.35,20.35c-1.61-.11-3.11-.79-4.26-1.94-1.27-1.26-1.97-2.94-1.97-4.73,0-.13.1-.23.23-.23.12,0,.23.1.23.23,0,1.67.65,3.23,1.84,4.41,1.18,1.18,2.75,1.82,4.41,1.82.8,0,1.58-.15,2.31-.45.12-.05.25,0,.3.13.05.12,0,.25-.13.3-.78.32-1.62.48-2.48.48-.16,0-.32,0-.48-.02Z" style="fill: #1e1c1c;"/>
            <path d="M26.45,18.96c-1.28-.09-2.47-.62-3.38-1.54-1-1-1.56-2.34-1.56-3.76,0-.13.1-.23.23-.23.12,0,.23.1.23.23,0,1.3.51,2.51,1.43,3.43.92.91,2.14,1.41,3.43,1.41.65,0,1.29-.13,1.89-.38.12-.05.25,0,.3.12.05.12,0,.25-.12.3-.66.28-1.35.42-2.07.42-.13,0-.25,0-.38-.01Z" style="fill: #1e1c1c;"/>
            <path d="M26.55,17.58c-.94-.06-1.82-.46-2.5-1.14-.74-.74-1.15-1.73-1.15-2.77,0-.13.1-.23.23-.23.13,0,.23.1.23.23,0,.93.36,1.8,1.02,2.45.66.65,1.53,1.01,2.45,1.01.5,0,.99-.11,1.45-.32.12-.05.25,0,.31.11.05.12,0,.25-.11.31-.52.24-1.08.37-1.65.37-.09,0-.19,0-.28-.01Z" style="fill: #1e1c1c;"/>
            <path d="M26.64,16.2c-.61-.04-1.18-.3-1.62-.74-.48-.48-.75-1.12-.75-1.79,0-.13.1-.23.23-.23.12,0,.23.1.23.23,0,.56.22,1.08.61,1.47.39.39.91.61,1.47.61.35,0,.71-.09,1.01-.26.11-.06.25-.02.31.09.06.11.02.25-.09.31-.38.21-.8.32-1.24.32-.06,0-.12,0-.18,0Z" style="fill: #1e1c1c;"/>
            <path d="M26.74,14.82c-.28-.02-.54-.14-.74-.33-.22-.22-.34-.51-.34-.82,0-.13.1-.23.23-.23.13,0,.23.1.23.23,0,.19.07.36.2.49.13.13.3.2.49.2.19,0,.38-.09.51-.23.09-.1.23-.1.33-.02.09.08.1.23.02.33-.22.24-.53.38-.85.38-.03,0-.05,0-.08,0Z" style="fill: #1e1c1c;"/>
            <path d="M15.76,35.17c-.08,0-.15-.05-.19-.13-.49-.98-1.52-5.24,2.47-8.17.04-.03.09-.05.14-.06.12,0,.23.1.24.22,0,.07-.03.13-.07.18,0,0-.02.02-.03.02-3.15,2.31-2.98,5.48-2.57,6.97.87-2.59,3.11-5.7,5.45-7.49,1.46-1.12,2.94-1.72,4.26-1.72.13,0,.23.1.23.23,0,.13-.1.23-.23.23-1.22,0-2.6.56-3.98,1.63-2.82,2.16-4.93,5.69-5.48,7.92-.02.09-.1.16-.2.17-.02,0-.03,0-.04,0Z" style="fill: #1e1c1c;"/>
            <path d="M15.76,40.71c-.07,0-.13-.04-.17-.1l-2-2.77c-.06-.08-.06-.19,0-.27l1.99-2.78c.04-.06.11-.09.18-.09.07,0,.14.03.19.08l2.32,2.77c.07.08.07.21,0,.29l-1.1,1.32s-.02.02-.03.03l-1.18,1.42c-.04.05-.11.09-.19.08,0,0,0,0,0,0ZM14.07,37.71l1.72,2.39,1.01-1.22s.02-.02.03-.03l.95-1.14-2-2.39-1.72,2.4Z" style="fill: #1e1c1c;"/>
            <path d="M15.77,42.1c-.07,0-.13-.04-.17-.1l-2-2.77c-.06-.09-.06-.2,0-.28l.53-.64c.08-.1.23-.11.32-.03.1.08.11.23.03.32l-.42.51,1.72,2.38,1.99-2.4-.45-.55c-.08-.1-.07-.24.03-.32.1-.08.24-.07.33.03l.58.69c.07.09.07.21,0,.29l-.08.1-2.22,2.68c-.05.06-.11.09-.19.08,0,0,0,0,0,0Z" style="fill: #1e1c1c;"/>
            <path d="M13.77,37.94c-.09,0-.17-.06-.2-.15l-.07-.18c-.7-1.96-2.57-7.17,4.56-10.76,0,0,.02,0,.02-.01h0c.85-.42,1.81-.81,2.84-1.16.12-.04.25.03.29.15.04.12-.02.25-.15.29-1,.33-1.93.71-2.76,1.12,0,0-.02.01-.02.02-6.78,3.4-5.02,8.33-4.35,10.2l.07.19c.04.12-.02.25-.14.29-.03.01-.06.01-.09.01Z" style="fill: #1e1c1c;"/>
            <path d="M18.07,37.93s-.06-.01-.09-.03c-.11-.06-.16-.2-.1-.31.09-.17.22-.44.38-.77.16-.34.35-.74.57-1.2.54-1.11,1.06-2.09,1.59-3,0-.02.02-.03.03-.05.63-1.09,1.28-2.06,1.93-2.9.78-.99,1.56-1.78,2.31-2.34.71-.51,1.41-.84,2.1-.97.13-.02.25.06.27.18.02.13-.06.25-.18.27-.62.12-1.27.42-1.92.89-.72.53-1.47,1.29-2.22,2.25-.64.83-1.29,1.79-1.91,2.87,0,0-.01.02-.02.02-.52.9-1.04,1.87-1.57,2.97-.22.45-.41.85-.57,1.19-.16.34-.29.61-.38.79-.04.08-.13.13-.22.12Z" style="fill: #1e1c1c;"/>
            <path d="M15.82,38.86c-.55-.04-.98-.54-.98-1.15,0-.64.47-1.15,1.04-1.16.58,0,1.05.52,1.05,1.15,0,.3-.1.59-.29.81-.2.23-.46.35-.75.35-.02,0-.04,0-.07,0ZM15.92,37.02c-.36,0-.62.31-.62.69,0,.37.24.67.55.69h.03c.15,0,.29-.07.4-.19.12-.13.18-.31.18-.5,0-.36-.24-.67-.55-.69Z" style="fill: #1e1c1c;"/>
            <path d="M18.87,29.51c-.05,0-.11-.03-.15-.07l-1.54-1.54c-.09-.09-.09-.24,0-.33.09-.09.24-.09.33,0l1.54,1.54c.09.09.09.24,0,.33-.05.05-.12.07-.18.07Z" style="fill: #1e1c1c;"/>
            <path d="M19.75,28.54c-.05,0-.11-.03-.15-.07l-1.37-1.37c-.09-.09-.09-.24,0-.33.09-.09.24-.09.33,0l1.37,1.37c.09.09.09.24,0,.33-.05.05-.12.07-.18.07Z" style="fill: #1e1c1c;"/>
            <path d="M20.7,27.64c-.05,0-.11-.03-.15-.07l-1.03-1.03c-.09-.09-.09-.24,0-.33.09-.09.24-.09.33,0l1.03,1.03c.09.09.09.24,0,.33-.05.05-.12.07-.18.07Z" style="fill: #1e1c1c;"/>
            <path d="M18.07,30.55c-.05,0-.11-.03-.15-.07l-1.59-1.59c-.09-.09-.09-.24,0-.33.09-.09.24-.09.33,0l1.59,1.59c.09.09.09.24,0,.33-.05.05-.12.07-.18.07Z" style="fill: #1e1c1c;"/>
            <path d="M17.33,31.66c-.05,0-.11-.03-.15-.07l-1.51-1.51c-.09-.09-.09-.24,0-.33.09-.09.24-.09.33,0l1.51,1.51c.09.09.09.24,0,.33-.05.05-.12.07-.18.07Z" style="fill: #1e1c1c;"/>
            <path d="M16.66,32.84c-.05,0-.11-.03-.15-.07l-1.27-1.27c-.09-.09-.09-.23,0-.32.09-.09.24-.09.33,0l1.27,1.27c.09.09.09.24,0,.33-.05.05-.12.07-.18.07Z" style="fill: #1e1c1c;"/>
            <path d="M16.09,34.12c-.05,0-.11-.03-.15-.07l-.77-.77c-.09-.09-.09-.24,0-.33.09-.09.24-.09.33,0l.77.77c.09.09.09.24,0,.33-.05.05-.11.07-.18.07Z" style="fill: #1e1c1c;"/>
            <path d="M16.97,39.26h0c-.13,0-.22-.12-.22-.25s.12-.22.25-.21.23.12.22.25-.12.22-.24.22Z" style="fill: #1e1c1c;"/>
            <path d="M18.89,36.23c-.12,0-.21-.1-.21-.22h0c0-.13.09-.24.22-.24.13,0,.23.1.24.22,0,.13-.1.24-.22.24-.01,0-.02,0-.02,0Z" style="fill: #1e1c1c;"/>
            <path d="M18.86,32.96c-.51-.03-.91-.47-.92-.98,0-.26.1-.51.29-.7.19-.19.43-.29.7-.29.55,0,.99.44.99.98,0,.27-.1.52-.29.7-.19.19-.43.29-.7.29-.02,0-.05,0-.07,0ZM18.97,31.45c-.18,0-.31.05-.41.15-.1.1-.15.23-.15.37,0,.28.21.51.49.52h.04c.14,0,.27-.05.37-.15.1-.1.15-.23.15-.37,0-.27-.22-.5-.49-.52Z" style="fill: #1e1c1c;"/>
            <path d="M17.68,35.37c-.52-.04-.92-.46-.92-.98,0-.26.1-.51.29-.7.19-.19.43-.29.7-.29.56,0,.99.45.99.99,0,.26-.1.51-.29.69-.19.19-.44.29-.7.29-.02,0-.05,0-.07,0ZM17.78,33.86c-.18,0-.31.05-.41.15-.1.1-.16.23-.15.37,0,.27.22.5.49.52h.04c.14,0,.27-.05.37-.16.1-.1.15-.23.15-.37,0-.27-.22-.51-.49-.52Z" style="fill: #1e1c1c;"/>
            <path d="M20.32,30.83c-.48-.03-.86-.44-.86-.92,0-.24.1-.47.27-.65.17-.17.4-.27.65-.27h.07c.48.03.86.44.86.92,0,.51-.41.92-.92.92h-.07ZM20.41,29.46c-.16,0-.27.05-.36.13-.09.09-.13.2-.13.32,0,.24.19.44.42.46h.03c.25,0,.46-.2.46-.46,0-.24-.19-.44-.43-.45Z" style="fill: #1e1c1c;"/>
            <path d="M22.08,28.73c-.41-.03-.74-.38-.73-.79,0-.44.35-.79.79-.79,0,0,.05,0,.06,0,.41.03.74.37.74.79,0,.44-.35.79-.79.8,0,0-.05,0-.06,0ZM22.15,27.61c-.2,0-.35.15-.35.33,0,.18.13.32.31.33l-.02.23.04-.23c.18,0,.33-.15.33-.33,0-.17-.13-.31-.3-.33Z" style="fill: #1e1c1c;"/>
            <path d="M14.21,35.51c-.41-.03-.74-.37-.74-.79,0-.21.08-.41.23-.56.15-.15.35-.23.56-.23,0,0,.05,0,.06,0,.41.03.74.37.74.79,0,.21-.08.41-.23.56-.15.15-.35.23-.56.23,0,0-.05,0-.05,0ZM14.29,34.39c-.11,0-.2.03-.26.09-.06.06-.1.14-.1.23,0,.17.13.32.31.33l-.02.23.04-.23c.09,0,.17-.04.24-.1.06-.06.1-.14.1-.23,0-.17-.14-.32-.31-.33Z" style="fill: #1e1c1c;"/>
            <path d="M23.91,27.32c-.35-.02-.62-.31-.62-.66,0-.37.3-.67.66-.67,0,0,.04,0,.05,0,.35.02.62.31.62.66,0,.37-.3.67-.66.67,0,0-.04,0-.05,0ZM23.97,26.46c-.13,0-.22.09-.22.2,0,.11.08.2.19.2l-.02.23.03-.23c.11,0,.2-.09.2-.2,0-.11-.08-.2-.19-.2Z" style="fill: #1e1c1c;"/>
            <path d="M14.21,33.38c-.35-.02-.62-.31-.62-.66,0-.37.3-.67.66-.67,0,0,.04,0,.05,0,.35.02.62.31.62.66,0,.37-.3.67-.66.67,0,0-.04,0-.05,0ZM14.28,32.51c-.13,0-.22.09-.22.2,0,.11.08.2.19.2l-.02.23.03-.23c.11,0,.2-.09.2-.2,0-.11-.08-.19-.19-.2Z" style="fill: #1e1c1c;"/>
            <path d="M14.94,31.18c0,.2-.16.37-.37.37-.2,0-.37-.16-.37-.37,0-.2.16-.37.37-.37.2,0,.37.16.37.37Z" style="fill: #1e1c1c;"/>
            <path d="M27.32,28.16s-.01,0-.02,0l-2.5-.4c-.13-.02-.21-.14-.19-.26.02-.13.14-.21.26-.19l2.26.36.17-1.28c.02-.13.14-.21.26-.2.13.02.22.13.2.26l-.21,1.51c0,.06-.04.12-.09.16-.04.04-.1.05-.15.05Z" style="fill: #1e1c1c;"/>
            <path d="M25.45,30.3h0s-2.9-.25-2.9-.25c-.13-.01-.22-.12-.21-.25.01-.13.11-.22.25-.21l2.58.22c-.21-.88-.49-2.06-.54-2.18-.07-.11-.03-.23.08-.3.11-.07.26-.02.33.08.03.04.07.11.66,2.61.02.07,0,.15-.05.2-.05.06-.12.09-.19.08Z" style="fill: #1e1c1c;"/>
            <path d="M20.64,32.96l-.02-.46,2.74-.11c-.4-.99-.94-2.33-1-2.44-.07-.1-.04-.24.06-.31.11-.07.25-.04.33.07.02.03.07.1,1.16,2.82.03.07.02.15-.02.21-.04.06-.11.1-.19.11l-3.07.13Z" style="fill: #1e1c1c;"/>
            <path d="M19.02,35.96c-.11,0-.2-.1-.21-.21,0-.13.09-.24.21-.25l2.75-.21-1.34-2.45s-.03-.07-.03-.1c0-.13.1-.24.22-.24.1,0,.19.06.22.15l1.5,2.74c.04.07.04.15,0,.22-.04.07-.11.11-.19.12l-3.1.24s-.02,0-.04,0Z" style="fill: #1e1c1c;"/>
            <path d="M17.49,38.63c-.11,0-.2-.1-.21-.21-.01-.13.08-.24.21-.25l2.41-.22-1.07-2.12c-.06-.11-.01-.25.1-.31.11-.06.25-.01.31.1l1.22,2.42c.03.07.03.15,0,.22-.04.07-.11.11-.18.12l-2.75.24s-.02,0-.04,0Z" style="fill: #1e1c1c;"/>
          </g>
        </g>
      </g>
      <path d="M1.57,6.74c0-2.68.99-3.31,1.76-3.31.77,0,1.76.62,1.77,3.31,0,1.2-.19,1.99-.48,2.5l.53.6-.53.44-.45-.5c-.27.21-.56.28-.83.29-.77,0-1.76-.62-1.77-3.31ZM3.66,9.19l-.69-.78.53-.44.56.63c.15-.4.25-1,.25-1.87,0-1.97-.53-2.56-.98-2.56-.45,0-.98.59-.97,2.56s.53,2.56.98,2.56c.11,0,.21-.03.32-.11Z" style="fill: #c42c27;"/>
      <path d="M46.59,61.72c0,2.68-.99,3.31-1.76,3.31-.77,0-1.76-.62-1.77-3.31,0-1.2.2-1.99.48-2.5l-.53-.6.53-.44.45.5c.27-.21.56-.28.83-.29.77,0,1.76.62,1.77,3.31ZM44.5,59.27l.69.78-.53.44-.56-.63c-.15.4-.25,1-.25,1.87,0,1.97.53,2.56.98,2.56.45,0,.98-.59.97-2.56,0-1.97-.53-2.56-.98-2.56-.11,0-.22.03-.33.11Z" style="fill: #c42c27;"/>
      <path d="M3.25,11.88c.31.29,1.85,2.29,2.15,2.58-.31.29-1.84,2.3-2.14,2.59-.31-.29-1.85-2.29-2.15-2.58.31-.29,1.84-2.3,2.14-2.58Z" style="fill: #c42c27;"/>
      <path d="M44.91,56.57c-.31-.29-1.85-2.29-2.15-2.58.31-.29,1.84-2.3,2.15-2.58.31.29,1.85,2.29,2.15,2.58-.31.29-1.84,2.3-2.15,2.58Z" style="fill: #c42c27;"/>
      <path d="M11.33,9c.46.43,2.77,3.43,3.23,3.86-.46.43-2.76,3.44-3.22,3.88-.46-.43-2.77-3.44-3.23-3.86.46-.43,2.76-3.44,3.22-3.88Z" style="fill: #c42c27;"/>
      <path d="M36.83,59.43c-.46-.43-2.77-3.44-3.23-3.86.46-.43,2.76-3.44,3.22-3.88.46.43,2.77,3.43,3.23,3.86-.46.43-2.76,3.45-3.22,3.88Z" style="fill: #c42c27;"/>
    </g>
  </g>
</svg>