<?xml version="1.0" encoding="UTF-8"?>
<svg id="Layer_2" data-name="Layer 2" xmlns="http://www.w3.org/2000/svg" width="48.18" height="68.47" viewBox="0 0 48.18 68.47">
  <g id="Layer_1-2" data-name="Layer 1">
    <g>
      <path d="M48.05,66.16c0,1.27-1.05,2.31-2.32,2.31l-25.04-.05-18.39-.04C1.03,68.37,0,67.33,0,66.06L.13,2.31C.13,1.03,1.18,0,2.44,0h6.59s23.21.06,23.21.06l13.63.03c1.25,0,2.27,1.01,2.3,2.24,0,.02,0,.05,0,.08l-.13,63.75Z" style="fill: #fafafa;"/>
      <path d="M6.46,62.15c-.12,0-.21-.11-.21-.23l.11-55.44c0-.06.02-.12.07-.16.04-.04.1-.07.16-.07l35.11.07c.12,0,.23.1.23.23l-.11,55.44c0,.06-.03.12-.07.16-.04.05-.1.07-.16.07l-35.11-.07s-.01,0-.02,0ZM6.82,6.71l-.11,54.98,34.65.07.11-54.98-34.65-.07Z" style="fill: #1e1c1c;"/>
      <path d="M31.73,26.44c-.2.12-.44.18-.69.18-.25,0-.49-.07-.69-.19-.2.12-.44.18-.69.18-.25,0-.49-.07-.69-.19-.2.11-.44.19-.69.18-.25,0-.49-.07-.69-.19-.2.11-.44.18-.69.18-4.32.79-7.98,9.5-8.8,11.07l-.58.69.58.69-2.32,2.77c7.41.02,9.99-13.63,16.67-15.21l-.7-.19ZM19.56,38.64c-.28,0-.5-.23-.5-.5,0-.28.23-.5.5-.5.28,0,.5.22.5.5,0,.28-.23.5-.5.5ZM20.97,36.66c-.49,0-.88-.4-.88-.88s.4-.88.88-.88c.49,0,.88.4.88.88,0,.49-.4.88-.88.88ZM22.9,33.73c-.49,0-.88-.4-.88-.88s.4-.88.88-.88c.49,0,.88.4.88.88,0,.49-.4.88-.88.88ZM24.79,30.89c-.49,0-.88-.4-.88-.88,0-.49.4-.88.88-.88.49,0,.88.4.88.88,0,.48-.4.88-.88.88ZM26.9,28.61c-.28,0-.5-.23-.5-.5,0-.28.22-.5.5-.5.28,0,.5.23.5.5,0,.28-.22.5-.5.5Z" style="fill: #c42c27;"/>
      <path d="M16.45,42.03c.2-.11.44-.18.69-.18s.49.07.69.19c.2-.12.44-.18.69-.18.25,0,.49.07.69.19.2-.12.44-.18.69-.18s.49.07.69.19c.2-.11.44-.18.69-.18,4.32-.79,7.98-9.5,8.8-11.07l.58-.69-.58-.69,2.32-2.77c-7.41-.02-9.99,13.63-16.66,15.21l.69.19ZM28.62,29.83c.28,0,.5.23.5.5,0,.28-.23.5-.5.5-.28,0-.5-.23-.5-.5,0-.27.23-.5.5-.5ZM27.21,31.81c.49,0,.88.4.88.88,0,.49-.4.88-.88.88-.49,0-.88-.4-.88-.88,0-.49.4-.88.88-.88ZM25.28,34.73c.49,0,.88.4.88.88,0,.49-.4.88-.88.88-.49,0-.88-.4-.88-.88,0-.49.4-.88.88-.88ZM23.39,37.57c.49,0,.88.4.88.88,0,.49-.4.88-.88.88-.49,0-.88-.4-.88-.88,0-.49.4-.88.88-.88ZM21.28,39.86c.28,0,.5.22.5.5,0,.28-.22.5-.5.5-.28,0-.5-.22-.5-.5,0-.28.23-.5.5-.5Z" style="fill: #c42c27;"/>
      <path d="M20.81,56.63l-.2.97c.06-.03.12-.05.19-.05.25,0,.46.21.46.46,0,.25-.21.46-.46.46-.14,0-.26-.06-.34-.15l-.59,2.92,2.31-2.31,1.85.93,1.85-.92,1.85.93,1.85-.92,2.3,2.31-.58-2.92c-.09.09-.21.15-.34.15-.25,0-.46-.21-.46-.46,0-.25.21-.46.46-.46.07,0,.13.01.19.04l-.19-.97c.25,0,.48-.1.65-.27.17-.17.27-.4.27-.65,0-.51-.41-.93-.92-.93l-10.16-.02c-.51,0-.93.41-.93.92,0,.51.41.93.92.93ZM27.74,57.57c.26,0,.46.21.46.46,0,.25-.21.46-.46.46-.26,0-.46-.21-.46-.46,0-.25.21-.46.46-.46ZM24.04,57.56c.25,0,.46.21.46.46,0,.26-.21.46-.46.46-.26,0-.46-.21-.46-.46,0-.25.21-.46.46-.46Z" style="fill: #f1c256;"/>
      <path d="M21.52,59.62l.68-.67,1.85.93,1.85-.92,1.85.93,1.85-.92.67.68c-.62.82-2.34,1.4-4.37,1.4-2.03,0-3.75-.59-4.37-1.41Z" style="fill: #c42c27;"/>
      <path d="M22.69,43.24c4.16,0,8.79-5.99,9.72-9.68.46.92,1.6,6.24-.23,8.79h-4.44s-4.15,3.7-4.15,3.7l-.89-2.81Z" style="fill: #4a6c76;"/>
      <path d="M21.3,41.85c4.32-.79,7.98-9.5,8.8-11.07l.58-.69-.58-.69,2.32-2.77,2.31,2.78-.58.69.58.69c.86,1.74,1.76,9.15-2.56,11.56,1.83-2.55.69-7.87.23-8.79-.93,3.69-5.56,9.69-9.72,9.68,0-.77-.62-1.39-1.38-1.39Z" style="fill: #f1c256;"/>
      <path d="M31.49,30.78c0-.51.42-.92.93-.92.51,0,.92.42.92.92,0,.51-.42.92-.93.92-.51,0-.92-.42-.92-.93Z" style="fill: #c42c27;"/>
      <path d="M20.73,56.86c-.6-.04-1.07-.55-1.07-1.15,0-.64.52-1.15,1.16-1.15l10.16.02c.64,0,1.15.53,1.15,1.16,0,.31-.12.6-.34.82-.21.22-.5.34-.81.34l-10.16-.02s-.05,0-.08,0ZM31.03,55.04h-.05s-10.16-.02-10.16-.02c-.38,0-.69.31-.69.69,0,.36.28.67.64.69h.05s10.16.02,10.16.02c.19,0,.36-.07.49-.2.13-.13.21-.3.21-.49,0-.36-.28-.67-.64-.69Z" style="fill: #1e1c1c;"/>
      <path d="M30.75,55.02s-.03,0-.05,0c-.12-.04-.19-.16-.16-.29l.53-1.89-.44-.72c-.05-.08-.05-.18,0-.25l1.6-2.29-.3-.29-.67-.12c-.07-.01-.12-.05-.16-.11-.03-.06-.04-.13-.02-.19l.28-.77-1-.57c-.08-.04-.12-.13-.12-.22s.06-.16.14-.2l1.15-.46.36-4.05h-4.1s-4.09,3.64-4.09,3.64c-.1.09-.24.08-.33-.02-.09-.1-.08-.24.02-.33l4.15-3.71s.1-.06.15-.06h4.44c.07,0,.13.04.17.09.04.05.06.11.06.17l-.39,4.44c0,.09-.06.16-.14.2l-.84.34.76.43c.1.06.14.17.1.28l-.25.7.47.09s.09.03.12.06l.49.47c.08.08.1.21.03.3l-1.63,2.33.41.68c.03.05.04.12.03.18l-.56,1.99c-.03.11-.13.17-.24.17Z" style="fill: #1e1c1c;"/>
      <path d="M31.3,49.17s-.02,0-.04,0l-2.32-.56c-.05-.01-.1-.04-.13-.08l-1.14-1.5c-.08-.1-.06-.25.04-.32.1-.08.24-.06.32.04l1.09,1.43,2.24.53c.12.03.2.15.17.28-.03.11-.13.18-.24.18Z" style="fill: #1e1c1c;"/>
      <path d="M29.83,53.9s-.05,0-.07-.02c-.12-.05-.17-.18-.12-.3l.25-.6-1.67-.69c-.08-.03-.14-.11-.14-.2,0-.09.04-.17.11-.22l1.71-1c.11-.06.25-.03.32.08.07.11.03.25-.08.32l-1.3.76,1.46.6c.06.02.1.07.13.12.02.06.02.12,0,.18l-.34.82c-.04.09-.14.15-.23.14Z" style="fill: #1e1c1c;"/>
      <path d="M29.73,52.84s-.06-.01-.09-.03c-.11-.06-.16-.2-.1-.31.09-.17.26-.62-.13-1.03-.09-.09-.08-.24,0-.33.09-.09.24-.08.33.01.41.43.48,1.02.2,1.56-.05.09-.13.13-.22.13Z" style="fill: #1e1c1c;"/>
      <path d="M29.83,53.9s-.05,0-.07-.02c-.12-.05-.17-.18-.12-.3l.25-.6-1.67-.69c-.08-.03-.14-.11-.14-.2,0-.09.04-.17.11-.22l1.71-1c.11-.06.25-.03.32.08.07.11.03.25-.08.32l-1.3.76,1.46.6c.06.02.1.07.13.12.02.06.02.12,0,.18l-.34.82c-.04.09-.14.15-.23.14Z" style="fill: #1e1c1c;"/>
      <path d="M29.73,52.84s-.06-.01-.09-.03c-.11-.06-.16-.2-.1-.31.09-.17.26-.62-.13-1.03-.09-.09-.08-.24,0-.33.09-.09.24-.08.33.01.41.43.48,1.02.2,1.56-.05.09-.13.13-.22.13Z" style="fill: #1e1c1c;"/>
      <path d="M22.67,43.47c-.12,0-.21-.11-.21-.23,0-.32-.13-.63-.36-.84-.21-.21-.49-.32-.79-.32-.2,0-.4.05-.58.15-.11.06-.25.02-.32-.09-.06-.11-.02-.25.09-.31.25-.14.53-.21.81-.21.42,0,.81.16,1.11.45.32.29.51.73.51,1.18,0,.13-.1.23-.23.23,0,0-.01,0-.02,0Z" style="fill: #1e1c1c;"/>
      <path d="M21.28,43.47c-.12,0-.21-.11-.21-.23,0-.32-.13-.63-.36-.84-.06-.06-.13-.11-.22-.17-.17-.1-.38-.15-.57-.15-.2,0-.4.05-.58.15-.11.06-.25.02-.31-.09-.06-.11-.02-.25.09-.32.25-.14.53-.21.81-.21.28,0,.56.08.81.22.12.08.22.15.3.23.32.29.51.72.5,1.17,0,.13-.1.23-.23.23,0,0-.01,0-.02,0Z" style="fill: #1e1c1c;"/>
      <path d="M19.9,43.46c-.12,0-.21-.11-.22-.23,0-.32-.13-.63-.36-.84-.06-.06-.13-.11-.22-.17-.17-.1-.37-.15-.57-.15-.2,0-.4.05-.58.15-.11.06-.25.02-.31-.09-.06-.11-.02-.25.09-.31.25-.14.53-.21.81-.21.28,0,.56.08.81.22.13.08.22.15.3.23.32.29.51.72.51,1.17,0,.13-.1.23-.23.23h-.01Z" style="fill: #1e1c1c;"/>
      <path d="M18.51,43.46c-.12,0-.21-.11-.21-.23,0-.32-.13-.62-.36-.84-.06-.06-.13-.11-.22-.17-.17-.1-.38-.15-.57-.15-.2,0-.4.05-.58.15-.11.06-.25.03-.31-.09-.06-.11-.02-.25.09-.31.25-.14.53-.21.81-.21.28,0,.56.07.81.22.13.07.22.15.3.23.32.29.51.72.51,1.17,0,.13-.1.23-.23.23,0,0,0,0-.02,0Z" style="fill: #1e1c1c;"/>
      <path d="M15.64,44.84c-.84-.06-1.5-.77-1.5-1.62,0-.45.19-.88.52-1.18.05-.05.12-.11.19-.15.27-.18.59-.28.92-.28.2,0,.39.04.57.11.07.02.16.06.23.11.12.07.22.15.3.23.32.29.51.72.51,1.17,0,.89-.73,1.62-1.62,1.61-.04,0-.08,0-.12,0ZM15.84,42.07s-.05,0-.08,0c-.23,0-.46.07-.65.2-.05.03-.09.07-.13.11-.24.22-.37.52-.37.84,0,.63.51,1.15,1.15,1.16.64,0,1.16-.52,1.16-1.15,0-.32-.13-.62-.36-.84-.06-.06-.13-.12-.22-.17-.05-.03-.1-.05-.16-.07-.11-.04-.22-.07-.34-.08Z" style="fill: #1e1c1c;"/>
      <path d="M26.32,55.03c-.09,0-.17-.07-.2-.16l-3.65-11.56c-.04-.12.03-.25.15-.29.12-.04.25.03.29.15l3.65,11.56c.04.12-.03.25-.15.29-.03,0-.06.01-.09.01Z" style="fill: #1e1c1c;"/>
      <path d="M24.93,55.02c-.09,0-.17-.07-.2-.16l-3.65-11.56c-.04-.12.03-.25.15-.29.12-.04.25.03.29.15l3.65,11.56c.04.12-.03.25-.15.29-.03,0-.06.01-.09.01Z" style="fill: #1e1c1c;"/>
      <path d="M23.55,55.02c-.09,0-.17-.07-.2-.16l-3.65-11.56c-.04-.12.03-.25.15-.29.12-.04.25.03.29.15l3.65,11.56c.04.12-.03.25-.15.29-.03,0-.06.01-.09,0Z" style="fill: #1e1c1c;"/>
      <path d="M22.16,55.02c-.09,0-.17-.07-.2-.16l-3.65-11.56c-.04-.12.03-.25.15-.29s.25.03.29.15l3.65,11.56c.04.12-.03.25-.15.29-.03.01-.06.01-.09,0Z" style="fill: #1e1c1c;"/>
      <path d="M20.77,55.02c-.09,0-.17-.07-.2-.16l-3.65-11.56c-.04-.12.03-.25.15-.29.12-.04.25.03.29.15l3.65,11.56c.04.12-.03.25-.15.29-.03,0-.06.01-.09.01Z" style="fill: #1e1c1c;"/>
      <path d="M15.29,43.22c0-.25.21-.46.46-.46.25,0,.46.21.46.46,0,.26-.21.46-.46.46-.25,0-.46-.21-.46-.46Z" style="fill: #1e1c1c;"/>
      <path d="M25.58,52.69s-.03,0-.05,0c-.12-.04-.19-.16-.16-.29l.93-3.24c.02-.06.05-.1.1-.13l2.12-1.31c.11-.07.25-.04.32.08.07.11.03.25-.08.32l-2.04,1.27-.9,3.16c-.03.11-.13.17-.24.17Z" style="fill: #1e1c1c;"/>
      <path d="M30.85,44.91h0c-.13-.01-.22-.12-.21-.25l.21-2.34c.01-.13.12-.21.25-.21.13.01.22.12.21.25l-.21,2.34c-.01.13-.12.22-.25.21Z" style="fill: #1e1c1c;"/>
      <path d="M29.75,44.91h0c-.13-.01-.22-.12-.21-.25l.2-2.34c.01-.13.12-.22.25-.21.13.01.22.12.21.25l-.21,2.34c-.01.13-.12.22-.25.21Z" style="fill: #1e1c1c;"/>
      <path d="M28.64,44.92h0c-.13-.01-.22-.12-.21-.25l.21-2.35c.01-.13.12-.22.25-.21.13.01.22.12.21.25l-.21,2.35c-.01.13-.12.22-.25.21Z" style="fill: #1e1c1c;"/>
      <path d="M27.54,44.92h0c-.13-.01-.22-.12-.21-.25l.21-2.35c.01-.13.12-.21.25-.21.13.01.22.12.21.25l-.21,2.35c-.01.12-.12.22-.25.21Z" style="fill: #1e1c1c;"/>
      <path d="M19.86,61.48s-.06-.01-.09-.03c-.09-.05-.14-.15-.12-.25l.93-4.62c.03-.12.15-.2.27-.18.12.03.21.15.18.27l-.78,3.87,1.78-1.77c.07-.07.18-.09.27-.04l1.74.88,1.75-.87c.07-.03.14-.03.21,0l1.74.88,1.75-.87c.09-.04.2-.03.27.04l1.77,1.77-.77-3.87c-.03-.13.06-.25.18-.27.13-.02.25.06.27.18l.91,4.62c.02.1-.03.2-.12.25-.09.05-.2.03-.27-.04l-2.19-2.2-1.7.85c-.07.03-.14.03-.21,0l-1.74-.88-1.75.87c-.07.03-.14.03-.21,0l-1.7-.85-2.2,2.19s-.11.07-.18.06Z" style="fill: #1e1c1c;"/>
      <path d="M25.17,61.24c-1.75-.13-3.24-.69-3.83-1.48-.08-.1-.06-.25.05-.32.1-.08.25-.06.32.05.58.77,2.31,1.32,4.18,1.32,1.88,0,3.6-.53,4.19-1.3.08-.1.22-.12.32-.04.1.08.12.22.04.32-.68.89-2.51,1.49-4.56,1.49-.24,0-.48-.01-.72-.03Z" style="fill: #1e1c1c;"/>
      <path d="M27.69,58.72c-.36-.03-.64-.33-.64-.69,0-.38.31-.69.69-.69,0,0,.04,0,.05,0,.36.03.64.33.64.69,0,.38-.31.69-.69.69,0,0-.04,0-.05,0ZM27.76,57.8c-.14,0-.25.1-.25.23,0,.12.09.22.21.23l-.02.23.03-.23c.13,0,.23-.1.23-.23,0-.12-.09-.22-.22-.23Z" style="fill: #1e1c1c;"/>
      <path d="M30.92,58.73c-.36-.03-.65-.33-.64-.69,0-.38.31-.69.69-.69.11,0,.21.03.3.08.11.06.16.2.09.31-.06.11-.2.16-.31.09-.02-.01-.05-.02-.09-.02-.13,0-.23.1-.23.23,0,.13.11.24.23.23.08,0,.14-.04.18-.08.09-.09.24-.09.33,0,.09.09.09.24,0,.33-.14.14-.32.22-.51.22-.02,0-.03,0-.05,0Z" style="fill: #1e1c1c;"/>
      <path d="M20.76,58.71c-.17-.01-.34-.09-.46-.22-.09-.09-.08-.24.01-.33.09-.09.24-.08.33.01.03.03.09.07.17.08.06,0,.12-.02.16-.07.04-.04.07-.1.07-.16,0-.06-.02-.12-.07-.16-.04-.04-.1-.07-.16-.07-.04,0-.06,0-.08.02-.11.06-.25.02-.31-.09-.06-.11-.02-.25.09-.31.09-.05.19-.08.31-.08.18,0,.36.07.49.2.13.13.2.31.2.49,0,.19-.07.36-.21.49-.13.13-.31.2-.49.2-.02,0-.03,0-.05,0Z" style="fill: #1e1c1c;"/>
      <path d="M23.99,58.72c-.36-.03-.64-.33-.64-.69,0-.38.31-.69.7-.69,0,0,.04,0,.05,0,.36.03.64.33.64.69,0,.19-.07.36-.2.49-.13.13-.31.2-.49.2,0,0-.05,0-.05,0ZM24.06,57.8c-.14,0-.25.1-.25.23,0,.12.09.22.21.23l-.02.23.03-.23c.06,0,.12-.02.16-.07.04-.04.07-.1.07-.16,0-.12-.09-.22-.21-.23Z" style="fill: #1e1c1c;"/>
      <path d="M30.04,55.96c-.12,0-.21-.11-.21-.23,0-.13.1-.23.23-.23h.92c.12,0,.23.11.23.23,0,.13-.1.23-.23.23h-.92s-.01,0-.02,0Z" style="fill: #1e1c1c;"/>
      <path d="M20.8,55.94c-.12,0-.21-.11-.21-.23,0-.13.1-.23.23-.23h.92c.12,0,.23.11.23.23,0,.13-.1.23-.23.23h-.93s-.01,0-.02,0Z" style="fill: #1e1c1c;"/>
      <path d="M25.42,55.95c-.12,0-.21-.11-.21-.23,0-.13.1-.23.23-.23h.92c.12,0,.23.11.23.23,0,.13-.1.23-.23.23h-.92s-.01,0-.02,0Z" style="fill: #1e1c1c;"/>
      <path d="M27.73,55.95c-.12,0-.21-.11-.21-.23,0-.13.1-.23.23-.23h.93c.13,0,.23.11.23.23s-.1.23-.23.23h-.92s-.01,0-.02,0Z" style="fill: #1e1c1c;"/>
      <path d="M23.11,55.94c-.12,0-.21-.11-.21-.23,0-.13.1-.23.23-.23h.92c.12,0,.23.11.23.24,0,.13-.11.23-.23.23h-.92s-.01,0-.02,0Z" style="fill: #1e1c1c;"/>
      <path d="M22.67,43.47c-.12,0-.21-.11-.21-.23,0-.13.1-.23.23-.23,3.92,0,8.55-5.75,9.5-9.51.02-.09.1-.16.2-.17.1-.01.19.04.23.13.5,1.01,1.65,6.38-.25,9.03-.07.1-.22.13-.32.05-.1-.07-.13-.22-.05-.32,1.51-2.1.93-6.2.44-7.91-1.31,3.86-5.73,9.18-9.74,9.17,0,0,0,0-.01,0Z" style="fill: #1e1c1c;"/>
      <path d="M32.25,42.44c-.05,0-.11-.03-.15-.07l-3-3.01c-.09-.09-.09-.24,0-.33s.24-.09.33,0l3,3.01c.09.09.09.24,0,.33-.05.05-.12.07-.18.07Z" style="fill: #1e1c1c;"/>
      <path d="M30.54,42.57c-.05,0-.11-.03-.15-.07l-2.17-2.18c-.09-.09-.09-.24,0-.33.09-.09.24-.09.33,0l2.17,2.18c.09.09.09.24,0,.33-.05.05-.12.07-.18.07Z" style="fill: #1e1c1c;"/>
      <path d="M28.69,42.57c-.05,0-.1-.03-.15-.07l-1.27-1.27c-.09-.09-.09-.24,0-.33.09-.09.24-.09.33,0l1.27,1.27c.09.09.09.24,0,.33-.05.05-.11.07-.18.07Z" style="fill: #1e1c1c;"/>
      <path d="M27.26,42.98c-.05,0-.11-.03-.15-.07l-.87-.88c-.09-.09-.09-.24,0-.33.09-.09.24-.09.33,0l.87.88c.09.09.09.24,0,.33-.05.05-.11.07-.18.07Z" style="fill: #1e1c1c;"/>
      <path d="M26.28,43.85c-.05,0-.11-.03-.15-.07l-1.05-1.06c-.09-.09-.09-.24,0-.33.09-.09.24-.09.33,0l1.05,1.06c.09.09.09.24,0,.33-.05.05-.12.07-.18.07Z" style="fill: #1e1c1c;"/>
      <path d="M25.3,44.72c-.05,0-.11-.03-.15-.07l-1.41-1.42c-.09-.09-.09-.24,0-.33.09-.09.24-.09.33,0l1.41,1.42c.09.09.09.24,0,.33-.05.05-.12.07-.18.07Z" style="fill: #1e1c1c;"/>
      <path d="M24.18,45.53l-1.44-1.45c-.09-.09-.09-.24,0-.33.09-.09.24-.09.33,0l1.44,1.44-.33.33Z" style="fill: #1e1c1c;"/>
      <path d="M32.83,41.17c-.05,0-.11-.03-.15-.07l-2.76-2.77c-.09-.09-.09-.24,0-.33.09-.09.24-.09.33,0l2.76,2.77c.09.09.09.24,0,.33-.05.05-.12.07-.18.07Z" style="fill: #1e1c1c;"/>
      <path d="M33.12,39.61c-.05,0-.11-.03-.15-.07l-2.32-2.32c-.09-.09-.09-.24,0-.33.09-.09.24-.09.33,0l2.32,2.32c.09.09.09.24,0,.33-.05.05-.12.07-.18.07Z" style="fill: #1e1c1c;"/>
      <path d="M33.15,37.79c-.05,0-.11-.03-.15-.07l-1.67-1.68c-.09-.09-.09-.24,0-.33.09-.09.24-.09.32,0l1.67,1.68c.09.09.09.24,0,.33-.05.05-.11.07-.18.07Z" style="fill: #1e1c1c;"/>
      <path d="M32.91,35.69c-.05,0-.11-.03-.15-.07l-.85-.86c-.09-.09-.09-.24,0-.33.09-.09.24-.09.33,0l.85.86c.09.09.09.24,0,.33-.05.05-.12.07-.18.07Z" style="fill: #1e1c1c;"/>
      <path d="M32.39,33.79c-.06,0-.12-.03-.16-.08l-1.89-2.27s-.02-.02-.02-.03l-.4-.48c-.07-.09-.07-.21,0-.3l1.68-2.01s.01-.02.02-.02l.62-.74c.04-.05.11-.08.18-.08.06,0,.13.03.18.08l2.31,2.77c.07.09.07.21,0,.3l-2.32,2.77c-.04.05-.11.08-.18.08,0,0,0,0-.02,0ZM30.72,31.17l1.69,2.03,2.02-2.41-2.01-2.42-.43.51s-.01.02-.02.02l-1.57,1.87.3.36s.02.02.02.03Z" style="fill: #1e1c1c;"/>
      <path d="M30.67,30.32c-.06,0-.12-.03-.16-.08l-.58-.69c-.07-.09-.07-.21,0-.3l2.32-2.77c.04-.05.11-.08.18-.08.07,0,.13.03.18.08l2.31,2.77c.07.09.07.21,0,.3l-.58.69c-.08.1-.23.11-.32.03-.1-.08-.11-.23-.03-.33l.45-.54-2.01-2.42-2.01,2.41.45.55c.08.1.07.24-.03.32-.05.04-.11.06-.16.05Z" style="fill: #1e1c1c;"/>
      <path d="M32.16,42.58c-.07,0-.14-.05-.19-.12-.06-.11-.02-.25.09-.31,4.27-2.38,3.22-9.72,2.46-11.25-.06-.11,0-.25.1-.31.11-.06.25,0,.31.1,1,2.02,1.66,9.46-2.65,11.86-.04.02-.09.03-.13.03Z" style="fill: #1e1c1c;"/>
      <path d="M21.29,42.08c-.1,0-.19-.08-.21-.19-.02-.13.06-.25.19-.27,3.7-.67,6.99-7.54,8.23-10.13.17-.36.31-.64.4-.82.06-.11.2-.16.31-.1.11.06.16.2.1.31-.1.18-.23.46-.4.81-1.27,2.64-4.64,9.67-8.57,10.38-.02,0-.04,0-.06,0Z" style="fill: #1e1c1c;"/>
      <path d="M32.33,31.94c-.6-.04-1.07-.55-1.07-1.15,0-.31.12-.6.34-.82.22-.22.51-.34.82-.34.65,0,1.16.53,1.15,1.16,0,.64-.52,1.15-1.16,1.15-.03,0-.06,0-.08,0ZM32.47,30.09h-.05c-.19,0-.36.07-.49.2-.13.13-.2.3-.2.49,0,.36.28.67.64.69h.05c.38,0,.69-.31.7-.69,0-.36-.28-.67-.64-.69Z" style="fill: #1e1c1c;"/>
      <path d="M30.01,34.96s-.08-.01-.11-.04c-.07-.04-.11-.12-.1-.2l.07-2.1c0-.13.11-.23.24-.22.13,0,.23.11.22.24l-.06,1.72,1.11-.55c.11-.05.25,0,.31.11.06.12,0,.25-.11.31l-1.46.71s-.08.02-.12.02Z" style="fill: #1e1c1c;"/>
      <path d="M34.14,34.63s-.07-.02-.11-.04l-.84-.54c-.11-.07-.14-.21-.07-.32.07-.11.21-.14.32-.07l.56.35.25-1.3c.02-.13.15-.21.27-.18.13.02.21.14.18.27l-.32,1.63c-.01.07-.07.14-.14.17-.04.02-.07.02-.11.02Z" style="fill: #1e1c1c;"/>
      <path d="M34.23,36.56c-.07,0-.13-.04-.17-.09l-.57-.78c-.08-.1-.05-.25.05-.32.1-.08.25-.05.32.05l.35.48.3-.59c.06-.12.2-.16.31-.1.11.06.16.2.1.31l-.46.92c-.04.07-.11.12-.19.13-.01,0-.02,0-.04,0Z" style="fill: #1e1c1c;"/>
      <path d="M34.19,38.25c-.06,0-.12-.03-.16-.08l-.45-.53c-.08-.1-.07-.24.03-.33.1-.08.24-.07.32.03l.26.31.28-.38c.07-.1.22-.13.32-.05.1.08.13.22.05.32l-.45.62c-.04.06-.11.09-.18.09,0,0-.02,0-.02,0Z" style="fill: #1e1c1c;"/>
      <path d="M28.88,37.04s-.07-.01-.1-.03c-.07-.04-.11-.12-.11-.2l.06-1.97c0-.13.11-.23.24-.22.12,0,.23.11.22.24l-.05,1.57,1.22-.65c.11-.06.25-.02.31.09.06.11.02.25-.09.31l-1.58.84s-.08.03-.13.03Z" style="fill: #1e1c1c;"/>
      <path d="M27.51,39s-.08-.02-.12-.04c-.06-.04-.1-.11-.1-.19v-1.54c0-.13.11-.23.23-.23.12,0,.23.1.23.23v1.21s1.33-.49,1.33-.49c.12-.05.25.02.3.14.04.12-.02.25-.14.29l-1.64.6s-.07.02-.1.01Z" style="fill: #1e1c1c;"/>
      <path d="M34.03,39.58c-.07,0-.14-.05-.18-.11l-.18-.3c-.06-.11-.03-.25.08-.32.1-.06.22-.04.29.04.07-.1.2-.14.31-.08.11.06.15.2.09.31l-.18.34c-.04.07-.12.12-.2.12h-.02Z" style="fill: #1e1c1c;"/>
      <path d="M25.9,40.82c-.06,0-.11-.03-.15-.07-.06-.06-.08-.15-.05-.24l.44-1.27c.04-.12.17-.18.29-.14.12.04.19.17.14.29l-.29.83,1.03-.32c.12-.04.25.03.29.15.04.12-.03.25-.15.29l-1.46.46s-.06.01-.09.01Z" style="fill: #1e1c1c;"/>
      <path d="M23.97,42.19c-.07,0-.14-.05-.18-.11-.05-.08-.05-.18,0-.26l.73-1.05c.07-.1.22-.13.32-.06.1.07.13.22.06.32l-.41.58.71-.14c.13-.02.25.06.27.18.02.12-.06.25-.18.27l-1.27.24s-.04,0-.06,0Z" style="fill: #1e1c1c;"/>
      <path d="M25.2,36.72c-.58-.04-1.03-.53-1.03-1.11,0-.3.12-.58.33-.79.21-.21.49-.33.79-.33.61,0,1.11.51,1.11,1.12,0,.3-.12.58-.33.79-.21.21-.49.32-.79.32-.03,0-.05,0-.08,0ZM25.33,34.96c-.4,0-.7.29-.7.65,0,.34.26.62.6.65h.05c.17,0,.34-.06.46-.19.12-.12.19-.29.19-.46,0-.34-.26-.63-.6-.65Z" style="fill: #1e1c1c;"/>
      <path d="M23.31,39.57c-.58-.04-1.03-.53-1.03-1.11,0-.3.12-.58.33-.78.21-.21.49-.33.79-.33.61,0,1.11.51,1.11,1.12,0,.3-.12.58-.33.79s-.49.32-.79.32c-.03,0-.05,0-.08,0ZM23.44,37.81h-.05c-.18,0-.34.07-.46.19-.12.12-.19.29-.19.46,0,.34.26.62.6.65h.05c.18,0,.34-.06.46-.19.12-.12.19-.29.19-.46,0-.34-.26-.63-.6-.65Z" style="fill: #1e1c1c;"/>
      <path d="M27.13,33.8c-.58-.04-1.03-.53-1.03-1.11,0-.3.12-.58.33-.79.21-.21.49-.32.79-.32.62,0,1.11.51,1.11,1.12,0,.61-.5,1.11-1.12,1.11-.03,0-.05,0-.08,0ZM27.26,32.04c-.22,0-.38.06-.51.19-.12.12-.19.29-.19.46,0,.34.26.62.6.65h.05c.36,0,.65-.29.65-.65,0-.34-.26-.63-.6-.65Z" style="fill: #1e1c1c;"/>
      <path d="M21.23,41.09c-.38-.03-.68-.35-.68-.73,0-.2.08-.38.22-.52.14-.14.32-.21.52-.21,0,0,.05,0,.05,0,.38.03.68.35.68.73,0,.2-.08.38-.22.52-.14.14-.32.21-.52.21,0,0-.05,0-.05,0ZM21.3,40.09c-.09,0-.16.03-.21.08-.05.05-.08.12-.08.19,0,.14.11.26.25.27l-.02.23.04-.23c.07,0,.14-.03.19-.08.05-.05.08-.12.08-.19,0-.14-.11-.26-.25-.27Z" style="fill: #1e1c1c;"/>
      <path d="M28.56,31.06c-.38-.03-.68-.35-.68-.73,0-.19.08-.38.22-.52s.32-.21.52-.21c0,0,.05,0,.05,0,.38.03.68.35.68.73,0,.2-.08.38-.22.52-.14.14-.32.21-.52.21,0,0-.05,0-.05,0ZM28.64,30.06c-.09,0-.16.03-.21.08-.05.05-.08.12-.08.19,0,.14.11.26.25.27l-.02.23.04-.23c.07,0,.14-.03.19-.08.05-.05.08-.12.08-.19,0-.14-.11-.26-.25-.27Z" style="fill: #1e1c1c;"/>
      <path d="M27.37,11.83l.2-.97c-.06.03-.13.05-.19.05-.25,0-.46-.21-.46-.46,0-.25.21-.46.46-.46.13,0,.25.06.34.15l.59-2.92-2.31,2.3-1.85-.93-1.85.92-1.85-.93-1.85.92-2.3-2.31.57,2.92c.09-.09.21-.15.34-.15.25,0,.46.21.46.46,0,.25-.21.46-.46.46-.07,0-.13-.02-.19-.05l.19.97c-.25,0-.48.1-.65.27-.17.17-.27.4-.27.65,0,.51.41.92.92.92l10.16.02c.51,0,.93-.41.93-.92,0-.51-.41-.93-.92-.93ZM20.44,10.89c-.25,0-.46-.21-.46-.46,0-.26.21-.46.46-.46.25,0,.46.21.46.46,0,.25-.21.46-.46.46ZM24.13,10.9c-.26,0-.46-.21-.46-.46,0-.25.21-.46.46-.46.26,0,.46.21.46.46,0,.25-.21.46-.46.46Z" style="fill: #f1c256;"/>
      <path d="M26.66,8.85l-.68.67-1.85-.93-1.85.92-1.85-.93-1.85.92-.67-.68c.62-.82,2.34-1.4,4.37-1.4s3.75.59,4.37,1.41Z" style="fill: #c42c27;"/>
      <path d="M25.49,25.23c-4.16,0-8.79,5.99-9.72,9.68-.46-.92-1.6-6.24.24-8.79h4.44s4.15-3.7,4.15-3.7l.89,2.81Z" style="fill: #4a6c76;"/>
      <path d="M26.87,26.61c-4.32.79-7.98,9.5-8.8,11.07l-.58.69.58.69-2.32,2.77-2.31-2.77.58-.69-.58-.69c-.86-1.74-1.76-9.15,2.56-11.56-1.83,2.55-.7,7.87-.24,8.79.93-3.69,5.56-9.69,9.72-9.68,0,.77.62,1.39,1.38,1.39Z" style="fill: #f1c256;"/>
      <path d="M16.69,37.68c0,.51-.42.92-.93.92-.51,0-.92-.42-.92-.93,0-.51.42-.92.93-.92.51,0,.92.42.92.93Z" style="fill: #c42c27;"/>
      <path d="M17.12,13.89c-.6-.04-1.07-.55-1.07-1.16,0-.31.12-.6.34-.81.21-.22.5-.34.81-.34l10.16.02c.63,0,1.15.53,1.15,1.16,0,.31-.12.6-.34.82-.22.22-.51.34-.82.34l-10.16-.02s-.05,0-.08,0ZM27.41,12.07h-.05s-10.16-.02-10.16-.02c-.19,0-.36.07-.49.2-.14.13-.21.3-.21.49,0,.36.28.67.64.69h.05s10.16.02,10.16.02c.18,0,.36-.07.49-.2s.21-.3.2-.49c0-.36-.28-.67-.64-.69Z" style="fill: #1e1c1c;"/>
      <path d="M15.99,26.35c-.06,0-.11-.03-.15-.07-.04-.05-.07-.11-.06-.18l.39-4.44c0-.09.06-.16.14-.19l.84-.34-.76-.44c-.1-.06-.14-.17-.1-.28l.25-.7-.47-.09s-.09-.03-.12-.06l-.49-.47c-.08-.08-.09-.21-.03-.3l1.63-2.33-.42-.68c-.03-.06-.04-.12-.02-.18l.56-1.99c.03-.12.16-.19.29-.16.12.03.19.16.16.29l-.53,1.89.44.72c.05.08.05.18,0,.25l-1.6,2.29.3.29.67.12c.07.01.13.05.16.11.03.06.04.13.02.19l-.28.77,1,.58c.08.04.12.13.11.22s-.06.16-.14.2l-1.15.46-.36,4.05h4.11s4.09-3.64,4.09-3.64c.1-.08.24-.08.33.02.08.1.08.24-.02.33l-4.15,3.71s-.1.06-.15.06h-4.45s-.01,0-.02,0Z" style="fill: #1e1c1c;"/>
      <path d="M20.3,21.81c-.06,0-.12-.04-.17-.09l-1.09-1.43-2.24-.53c-.12-.03-.2-.15-.17-.28.03-.13.16-.2.28-.17l2.32.56c.05.01.1.04.13.08l1.14,1.5c.08.1.06.25-.04.32-.05.04-.1.05-.16.05Z" style="fill: #1e1c1c;"/>
      <path d="M18.16,17.62c-.07,0-.14-.05-.18-.11-.06-.11-.03-.25.08-.32l1.3-.76-1.46-.6c-.06-.02-.1-.07-.13-.12-.02-.06-.02-.12,0-.18l.34-.82c.05-.12.18-.17.3-.12.12.05.17.19.12.3l-.25.61,1.67.69c.08.03.14.11.14.2,0,.09-.04.17-.11.21l-1.71,1s-.09.03-.13.03Z" style="fill: #1e1c1c;"/>
      <path d="M18.58,17.38c-.06,0-.11-.03-.15-.07-.41-.43-.49-1.02-.2-1.56.06-.11.2-.16.31-.1.11.06.16.2.1.31-.09.17-.26.62.13,1.03.09.09.08.24,0,.33-.05.05-.11.07-.18.06Z" style="fill: #1e1c1c;"/>
      <path d="M18.16,17.62c-.07,0-.14-.05-.18-.11-.06-.11-.03-.25.08-.32l1.3-.76-1.46-.6c-.06-.02-.1-.07-.13-.12-.02-.06-.02-.12,0-.18l.34-.82c.05-.12.18-.17.3-.12.12.05.17.19.12.3l-.25.61,1.67.69c.08.03.14.11.14.2,0,.09-.04.17-.11.21l-1.71,1s-.09.03-.13.03Z" style="fill: #1e1c1c;"/>
      <path d="M18.58,17.38c-.06,0-.11-.03-.15-.07-.41-.43-.49-1.02-.2-1.56.06-.11.2-.16.31-.1.11.06.16.2.1.31-.09.17-.26.62.13,1.03.09.09.08.24,0,.33-.05.05-.11.07-.18.06Z" style="fill: #1e1c1c;"/>
      <path d="M26.76,26.84c-.37-.03-.72-.18-.99-.44-.32-.3-.51-.73-.51-1.18,0-.13.1-.23.23-.23.12,0,.23.1.23.23,0,.32.13.63.36.84.21.21.5.32.79.32.2,0,.4-.05.58-.15.11-.06.25-.03.31.09.06.11.02.25-.09.31-.25.14-.53.21-.81.21-.04,0-.08,0-.11,0Z" style="fill: #1e1c1c;"/>
      <path d="M28.15,26.84c-.24-.02-.48-.09-.69-.21-.12-.07-.22-.14-.3-.23-.32-.29-.51-.72-.51-1.17,0-.13.1-.23.23-.23.12,0,.23.1.23.23,0,.32.13.63.36.84.06.07.13.11.22.17.18.1.37.15.57.15.2,0,.4-.05.58-.15.11-.06.25-.02.31.09.06.11.02.25-.09.32-.25.14-.53.21-.81.21-.04,0-.08,0-.11,0Z" style="fill: #1e1c1c;"/>
      <path d="M29.53,26.85c-.24-.02-.48-.09-.69-.21-.13-.07-.22-.15-.3-.23-.32-.29-.51-.72-.5-1.17,0-.13.1-.23.23-.23.12,0,.23.1.23.23,0,.32.13.63.36.84.06.06.13.11.22.17.17.1.37.15.57.15.2,0,.4-.05.58-.15.11-.06.25-.02.31.09.06.11.02.25-.09.31-.25.14-.53.21-.81.21-.04,0-.08,0-.11,0Z" style="fill: #1e1c1c;"/>
      <path d="M30.92,26.85c-.24-.02-.48-.09-.7-.21-.12-.07-.22-.15-.3-.23-.32-.29-.51-.72-.51-1.17,0-.13.1-.23.23-.23.13,0,.23.1.23.23,0,.32.13.63.36.84.06.06.13.11.22.16.18.1.37.15.57.15.21,0,.4-.05.58-.15.11-.06.25-.03.31.09.06.11.02.25-.09.31-.25.14-.53.21-.81.21-.04,0-.07,0-.11,0Z" style="fill: #1e1c1c;"/>
      <path d="M32.31,26.85c-.16-.01-.32-.05-.47-.11-.07-.03-.16-.06-.23-.11-.12-.07-.22-.15-.3-.23-.32-.29-.51-.72-.5-1.17,0-.89.73-1.61,1.62-1.61.89,0,1.62.74,1.62,1.62,0,.45-.19.88-.52,1.18-.05.05-.12.11-.19.15-.27.19-.59.28-.92.28-.04,0-.07,0-.11,0ZM32.51,24.09s-.05,0-.08,0c-.64,0-1.15.52-1.16,1.15,0,.32.13.62.36.84.06.06.13.12.22.17.05.03.1.05.16.07.14.06.27.08.42.08.23,0,.46-.07.65-.2.04-.03.09-.07.13-.11.24-.22.37-.52.37-.84,0-.6-.47-1.11-1.07-1.15Z" style="fill: #1e1c1c;"/>
      <path d="M25.48,25.46c-.09,0-.18-.07-.2-.16l-3.65-11.56c-.04-.12.03-.25.15-.29.12-.04.25.03.29.15l3.65,11.55c.04.12-.03.25-.15.29-.03,0-.06.01-.09.01Z" style="fill: #1e1c1c;"/>
      <path d="M26.86,25.46c-.09,0-.17-.07-.2-.16l-3.65-11.56c-.04-.12.03-.25.15-.29.12-.04.25.03.29.15l3.65,11.56c.04.12-.03.25-.15.29-.03,0-.06.01-.09.01Z" style="fill: #1e1c1c;"/>
      <path d="M28.25,25.46c-.09,0-.18-.07-.2-.16l-3.65-11.56c-.04-.12.03-.25.15-.29.12-.04.25.03.29.15l3.65,11.56c.04.12-.03.25-.15.29-.03,0-.06.01-.09,0Z" style="fill: #1e1c1c;"/>
      <path d="M29.63,25.47c-.09,0-.17-.07-.2-.16l-3.65-11.56c-.04-.12.03-.25.15-.29s.25.03.29.15l3.65,11.56c.04.12-.03.25-.15.29-.03,0-.06.01-.09,0Z" style="fill: #1e1c1c;"/>
      <path d="M31.02,25.47c-.09,0-.17-.07-.2-.16l-3.65-11.56c-.04-.12.03-.25.15-.29.12-.04.25.03.29.15l3.65,11.56c.04.12-.03.25-.15.29-.03,0-.06.01-.09,0Z" style="fill: #1e1c1c;"/>
      <path d="M32.88,25.24c0,.26-.21.46-.46.46-.26,0-.46-.21-.46-.46,0-.25.21-.46.46-.46.25,0,.46.21.46.46Z" style="fill: #1e1c1c;"/>
      <path d="M19.52,20.79c-.07,0-.14-.04-.18-.11-.07-.11-.03-.25.07-.32l2.04-1.27.9-3.15c.03-.12.16-.19.29-.16.12.03.19.16.16.28l-.93,3.24c-.02.06-.05.1-.1.13l-2.12,1.31s-.09.04-.14.04Z" style="fill: #1e1c1c;"/>
      <path d="M17.09,26.35h0c-.13-.01-.22-.12-.21-.25l.21-2.34c.01-.13.13-.22.25-.21.13.01.22.12.21.25l-.21,2.34c-.01.13-.12.22-.24.21Z" style="fill: #1e1c1c;"/>
      <path d="M18.19,26.35h0c-.13-.01-.22-.12-.21-.25l.2-2.34c.01-.13.13-.22.25-.21.13.01.22.12.21.25l-.21,2.34c-.01.13-.12.22-.25.21Z" style="fill: #1e1c1c;"/>
      <path d="M19.29,26.36h0c-.13-.01-.22-.12-.21-.25l.21-2.35c.01-.13.13-.21.25-.21.13.01.22.12.21.25l-.21,2.35c-.01.12-.12.22-.25.21Z" style="fill: #1e1c1c;"/>
      <path d="M20.4,26.36h0c-.13-.01-.22-.12-.21-.25l.21-2.35c.01-.13.13-.21.25-.21.13.01.22.12.21.25l-.21,2.35c-.01.13-.12.22-.25.21Z" style="fill: #1e1c1c;"/>
      <path d="M17.19,12.04c-.1,0-.19-.08-.21-.19l-.92-4.62c-.02-.1.03-.2.12-.25.09-.05.2-.03.27.04l2.19,2.2,1.7-.85c.07-.03.14-.03.21,0l1.74.88,1.75-.87c.07-.03.14-.03.21,0l1.7.85,2.2-2.19c.07-.07.18-.09.27-.04.09.05.14.15.12.25l-.93,4.62c-.02.12-.15.2-.27.18-.12-.03-.21-.15-.18-.27l.78-3.87-1.78,1.77c-.07.07-.18.09-.27.04l-1.74-.88-1.75.87c-.07.03-.14.03-.21,0l-1.74-.88-1.75.87c-.09.05-.2.03-.27-.04l-1.77-1.77.77,3.87c.02.13-.06.25-.18.27-.02,0-.04,0-.06,0Z" style="fill: #1e1c1c;"/>
      <path d="M17.9,9.06s-.09-.02-.12-.05c-.1-.08-.12-.22-.04-.32.68-.89,2.51-1.49,4.56-1.49,2.04,0,3.88.61,4.55,1.5.08.1.06.25-.05.32-.1.08-.25.06-.32-.04-.58-.77-2.31-1.32-4.18-1.32-1.88,0-3.6.53-4.19,1.31-.05.06-.13.1-.2.09Z" style="fill: #1e1c1c;"/>
      <path d="M20.39,11.12c-.36-.03-.64-.33-.64-.69,0-.18.07-.36.2-.49.13-.13.31-.2.49-.2,0,0,.04,0,.05,0,.36.03.64.33.64.69,0,.38-.31.69-.69.69,0,0-.04,0-.05,0ZM20.45,10.2c-.08,0-.13.02-.18.07-.04.04-.07.1-.07.16,0,.12.09.22.21.23l-.02.23.03-.23c.13,0,.23-.1.23-.23,0-.12-.1-.22-.22-.23Z" style="fill: #1e1c1c;"/>
      <path d="M17.16,11.12c-.09,0-.18-.03-.25-.07-.11-.06-.15-.2-.09-.31.06-.11.2-.16.31-.09.02.01.05.02.09.02.13,0,.23-.1.23-.23,0-.06-.02-.12-.07-.16-.04-.04-.11-.07-.16-.07-.09,0-.14.04-.17.07-.09.09-.24.1-.33,0-.09-.09-.09-.23,0-.33.14-.14.32-.22.51-.22.18,0,.36.07.49.2s.2.31.2.49c0,.38-.31.69-.7.69-.02,0-.03,0-.05,0Z" style="fill: #1e1c1c;"/>
      <path d="M27.32,11.14c-.16-.01-.32-.08-.44-.2-.13-.13-.2-.31-.2-.49,0-.19.07-.36.21-.49.13-.13.3-.2.49-.2.2,0,.37.08.51.22.09.09.08.24,0,.33-.09.09-.24.08-.33-.01-.03-.03-.09-.07-.17-.08-.06,0-.12.02-.16.07-.04.04-.07.1-.07.16,0,.06.02.12.07.16.04.04.1.07.16.07.04,0,.06,0,.08-.02.11-.06.25-.02.31.09.06.11.02.25-.09.31-.09.05-.19.07-.3.07-.02,0-.03,0-.05,0Z" style="fill: #1e1c1c;"/>
      <path d="M24.09,11.13c-.36-.03-.64-.33-.64-.69,0-.18.07-.36.2-.49.13-.13.31-.2.49-.2,0,0,.04,0,.05,0,.36.03.64.33.64.69,0,.38-.31.69-.7.69,0,0-.04,0-.05,0ZM24.15,10.21c-.08,0-.14.02-.18.07-.04.04-.07.1-.07.16,0,.12.09.22.21.23l-.02.23.03-.23c.13,0,.23-.1.23-.23,0-.12-.09-.22-.21-.23Z" style="fill: #1e1c1c;"/>
      <path d="M17.18,12.97c-.12,0-.21-.11-.21-.23,0-.13.1-.23.23-.23h.92c.12,0,.23.11.23.23,0,.13-.1.23-.23.23h-.92s-.01,0-.02,0Z" style="fill: #1e1c1c;"/>
      <path d="M26.42,12.98c-.12,0-.21-.11-.21-.23,0-.13.1-.23.23-.23h.92c.12,0,.23.11.23.23,0,.13-.1.23-.23.23h-.92s-.01,0-.02,0Z" style="fill: #1e1c1c;"/>
      <path d="M21.8,12.98c-.12,0-.21-.11-.21-.23,0-.13.1-.23.23-.23h.92c.12,0,.23.1.23.23,0,.13-.1.23-.23.23h-.93s-.01,0-.02,0Z" style="fill: #1e1c1c;"/>
      <path d="M19.49,12.97c-.12,0-.21-.11-.21-.23,0-.13.1-.23.23-.23h.92c.12,0,.23.11.23.24,0,.13-.1.23-.23.23h-.92s-.01,0-.02,0Z" style="fill: #1e1c1c;"/>
      <path d="M24.11,12.98c-.12,0-.22-.11-.21-.23,0-.13.1-.23.23-.23h.92c.13,0,.23.11.23.23,0,.13-.1.23-.23.23h-.92s-.01,0-.02,0Z" style="fill: #1e1c1c;"/>
      <path d="M15.75,35.14c-.08,0-.15-.05-.19-.13-.5-1.01-1.65-6.38.25-9.03.07-.1.22-.13.32-.05.1.07.13.22.05.32-1.51,2.1-.93,6.2-.44,7.91,1.31-3.86,5.73-9.18,9.74-9.17.12,0,.23.1.23.23,0,.13-.1.23-.23.23-3.92,0-8.55,5.75-9.5,9.51-.02.09-.1.16-.2.17-.01,0-.03,0-.04,0Z" style="fill: #1e1c1c;"/>
      <path d="M18.89,29.49c-.05,0-.11-.03-.15-.07l-3-3.01c-.09-.09-.09-.24,0-.33.09-.09.24-.09.33,0l3,3.01c.09.09.09.24,0,.33-.05.05-.11.07-.18.07Z" style="fill: #1e1c1c;"/>
      <path d="M19.77,28.53c-.05,0-.11-.03-.15-.07l-2.17-2.18c-.09-.09-.09-.24,0-.33s.24-.09.33,0l2.17,2.18c.09.09.09.24,0,.33-.05.05-.12.07-.18.07Z" style="fill: #1e1c1c;"/>
      <path d="M20.72,27.63c-.05,0-.11-.03-.15-.07l-1.27-1.27c-.09-.09-.09-.24,0-.33.09-.09.24-.09.33,0l1.27,1.27c.09.09.09.24,0,.33-.05.05-.12.07-.18.07Z" style="fill: #1e1c1c;"/>
      <path d="M21.76,26.82c-.05,0-.11-.03-.15-.07l-.87-.87c-.09-.09-.09-.24,0-.33.09-.09.24-.09.33,0l.87.87c.09.09.09.24,0,.33-.05.05-.12.07-.18.07Z" style="fill: #1e1c1c;"/>
      <path d="M22.92,26.13c-.05,0-.11-.02-.15-.07l-1.05-1.06c-.09-.09-.09-.24,0-.33.09-.09.24-.09.33,0l1.05,1.06c.09.09.09.24,0,.33-.05.05-.11.07-.18.07Z" style="fill: #1e1c1c;"/>
      <path d="M24.26,25.62c-.05,0-.11-.03-.15-.07l-1.41-1.42c-.09-.09-.09-.24,0-.33.09-.09.24-.09.33,0l1.41,1.42c.09.09.09.24,0,.33-.05.05-.12.07-.18.07Z" style="fill: #1e1c1c;"/>
      <path d="M25.26,24.78c-.05,0-.11-.03-.15-.07l-1.44-1.45c-.09-.09-.09-.23,0-.32.09-.09.22-.1.32-.02l1.46,1.46c.09.09.09.24,0,.33-.05.05-.11.07-.18.07Z" style="fill: #1e1c1c;"/>
      <path d="M18.08,30.53c-.05,0-.11-.03-.15-.07l-2.76-2.77c-.09-.09-.09-.24,0-.33.09-.09.24-.09.33,0l2.76,2.77c.09.09.09.24,0,.33-.05.05-.12.07-.18.07Z" style="fill: #1e1c1c;"/>
      <path d="M17.34,31.64c-.05,0-.11-.03-.15-.07l-2.32-2.32c-.09-.09-.09-.24,0-.33.09-.09.24-.09.33,0l2.31,2.32c.09.09.09.24,0,.33-.05.05-.11.07-.18.07Z" style="fill: #1e1c1c;"/>
      <path d="M16.67,32.82c-.05,0-.11-.03-.15-.07l-1.67-1.68c-.09-.09-.09-.24,0-.33.09-.09.23-.09.32,0l1.67,1.68c.09.09.09.24,0,.33-.05.05-.12.07-.18.07Z" style="fill: #1e1c1c;"/>
      <path d="M16.09,34.09c-.05,0-.11-.03-.15-.07l-.85-.86c-.09-.09-.09-.24,0-.33.09-.09.23-.09.33,0l.85.86c.09.09.09.24,0,.33-.05.05-.11.07-.18.07Z" style="fill: #1e1c1c;"/>
      <path d="M15.74,40.68c-.06,0-.12-.03-.16-.08l-2.31-2.78c-.07-.09-.07-.21,0-.3l2.32-2.77c.04-.05.11-.08.18-.08.07,0,.13.03.18.08l1.89,2.27s.02.02.02.03l.4.48c.07.09.07.21,0,.3l-2.31,2.77c-.04.05-.11.08-.18.08,0,0-.01,0-.02,0ZM13.75,37.68l2.01,2.42.43-.51s.01-.02.02-.02l1.57-1.87-.3-.36s-.02-.02-.02-.03l-1.69-2.03-2.02,2.41Z" style="fill: #1e1c1c;"/>
      <path d="M15.74,42.07c-.06,0-.12-.03-.16-.08l-2.31-2.78c-.07-.09-.07-.21,0-.3l.58-.69c.08-.1.23-.11.33-.03.1.08.11.23.03.32l-.45.55,2.01,2.41,2.01-2.41-.45-.55c-.08-.1-.07-.24.03-.32.1-.08.24-.07.32.03l.58.69c.07.09.07.21,0,.29l-2.31,2.77c-.04.05-.11.08-.18.08h-.02Z" style="fill: #1e1c1c;"/>
      <path d="M13.43,37.9c-.08,0-.15-.05-.19-.13-1-2.02-1.67-9.45,2.65-11.86.11-.06.25-.02.31.09.06.11.02.25-.09.31-4.27,2.39-3.22,9.72-2.46,11.25.06.11,0,.25-.1.31-.04.02-.08.03-.12.02Z" style="fill: #1e1c1c;"/>
      <path d="M18.06,37.92s-.06-.01-.09-.02c-.11-.06-.16-.2-.1-.31.09-.18.23-.46.39-.81,1.27-2.64,4.64-9.67,8.57-10.39.13-.02.25.06.27.19.02.13-.06.25-.18.27-3.7.67-7,7.54-8.24,10.13-.17.35-.31.63-.4.82-.04.09-.13.13-.22.12Z" style="fill: #1e1c1c;"/>
      <path d="M15.68,38.83c-.6-.04-1.07-.55-1.07-1.15,0-.31.12-.6.34-.82.22-.22.51-.34.82-.34.63,0,1.15.53,1.15,1.16,0,.31-.12.6-.34.82-.22.22-.51.34-.82.34-.03,0-.05,0-.08,0ZM15.81,36.99h-.05c-.19,0-.36.07-.49.2-.13.13-.2.31-.2.49,0,.36.28.67.64.69h.05c.19,0,.36-.07.49-.2.13-.13.2-.31.2-.49,0-.36-.28-.67-.64-.69Z" style="fill: #1e1c1c;"/>
      <path d="M18.06,36.07c-.12,0-.22-.11-.21-.24l.06-1.72-1.11.54c-.11.06-.25,0-.31-.11-.06-.11,0-.25.11-.31l1.45-.71c.07-.03.16-.03.23.01.07.04.11.12.1.2l-.07,2.1c0,.13-.11.23-.24.22,0,0,0,0,0,0Z" style="fill: #1e1c1c;"/>
      <path d="M13.69,35.92s-.02,0-.03,0c-.13-.02-.21-.14-.18-.27l.32-1.63c.01-.07.07-.14.14-.17.07-.03.15-.02.22.02l.84.54c.11.07.14.21.07.32-.07.11-.21.14-.32.07l-.56-.35-.25,1.3c-.02.12-.13.19-.24.19Z" style="fill: #1e1c1c;"/>
      <path d="M13.45,33.29s-.06-.01-.09-.02c-.11-.06-.16-.2-.1-.31l.46-.92c.04-.07.11-.12.19-.13.08,0,.16.03.2.09l.57.78c.08.1.05.25-.05.32-.1.07-.25.05-.32-.05l-.35-.48-.29.59c-.04.09-.13.13-.22.13Z" style="fill: #1e1c1c;"/>
      <path d="M13.5,31.29s-.08-.02-.12-.04c-.1-.08-.13-.22-.05-.32l.45-.62c.04-.06.11-.09.18-.09.07,0,.14.03.18.08l.45.53c.08.1.07.24-.03.33s-.24.07-.33-.03l-.26-.31-.28.38c-.05.07-.13.1-.2.09Z" style="fill: #1e1c1c;"/>
      <path d="M19.2,33.85c-.12,0-.22-.11-.21-.24l.05-1.57-1.22.65c-.11.06-.25.02-.31-.09-.06-.11-.02-.25.09-.31l1.58-.84c.07-.04.16-.04.23,0,.07.04.11.12.11.2l-.06,1.96c0,.13-.11.23-.24.22h0Z" style="fill: #1e1c1c;"/>
      <path d="M20.64,31.47c-.12,0-.21-.11-.21-.23v-1.21s-1.33.49-1.33.49c-.12.04-.25-.02-.3-.14-.04-.12.02-.25.14-.3l1.64-.6c.07-.03.15-.02.21.03.06.04.1.11.1.19v1.54c0,.13-.11.23-.24.23,0,0,0,0-.01,0Z" style="fill: #1e1c1c;"/>
      <path d="M13.93,29.68s-.06-.01-.09-.03c-.11-.06-.15-.2-.09-.31l.18-.33c.04-.07.11-.12.2-.12.08,0,.16.04.2.11l.18.3c.07.11.03.25-.08.32-.09.06-.22.04-.29-.04-.05.07-.13.11-.21.1Z" style="fill: #1e1c1c;"/>
      <path d="M21.81,29.37s-.04,0-.06-.01c-.12-.04-.18-.17-.14-.29l.29-.84-1.03.32c-.12.04-.25-.03-.29-.15-.04-.12.03-.25.15-.29l1.47-.46c.08-.03.17,0,.24.06.06.06.08.15.05.24l-.44,1.27c-.03.1-.13.16-.23.16Z" style="fill: #1e1c1c;"/>
      <path d="M23.44,27.79s-.08-.02-.12-.04c-.1-.07-.13-.22-.06-.32l.41-.58-.71.14c-.13.02-.25-.06-.27-.18-.02-.13.06-.25.18-.27l1.27-.24c.09-.02.19.02.24.1.05.08.05.18,0,.26l-.73,1.05c-.05.07-.13.1-.21.1Z" style="fill: #1e1c1c;"/>
      <path d="M22.82,33.96c-.58-.04-1.03-.53-1.03-1.11,0-.61.5-1.11,1.12-1.11.62,0,1.11.51,1.11,1.12,0,.61-.5,1.11-1.12,1.11-.03,0-.05,0-.08,0ZM22.95,32.2c-.4,0-.7.29-.7.65,0,.34.26.62.6.65h.05c.36,0,.65-.29.65-.65,0-.34-.26-.62-.6-.65Z" style="fill: #1e1c1c;"/>
      <path d="M24.71,31.12c-.58-.04-1.03-.53-1.03-1.11,0-.3.12-.58.33-.79.21-.21.49-.33.79-.33.62,0,1.11.51,1.11,1.12,0,.61-.5,1.11-1.12,1.11-.03,0-.05,0-.08,0ZM24.84,29.36h-.05c-.17,0-.34.06-.46.19-.12.12-.19.29-.19.46,0,.34.26.63.6.65h.05c.36,0,.65-.29.65-.65,0-.34-.26-.63-.6-.65Z" style="fill: #1e1c1c;"/>
      <path d="M20.89,36.88c-.58-.04-1.03-.53-1.03-1.11,0-.61.5-1.11,1.11-1.11.62,0,1.11.51,1.11,1.12,0,.3-.12.58-.33.79-.21.21-.49.32-.79.32-.03,0-.05,0-.08,0ZM21.02,35.12h-.05c-.36,0-.65.29-.65.65,0,.34.26.62.6.65h.05c.17,0,.34-.06.46-.19.12-.12.19-.29.19-.46,0-.34-.26-.62-.6-.65Z" style="fill: #1e1c1c;"/>
      <path d="M26.85,28.84c-.38-.03-.68-.35-.68-.73,0-.19.08-.38.21-.52.14-.14.32-.21.52-.21,0,0,.05,0,.05,0,.38.03.68.35.68.73,0,.4-.33.73-.74.73,0,0-.05,0-.05,0ZM26.92,27.84c-.09,0-.16.03-.21.08-.05.05-.08.12-.08.19,0,.14.11.26.25.27l-.02.23.03-.23c.15,0,.27-.12.27-.27,0-.14-.11-.26-.25-.27Z" style="fill: #1e1c1c;"/>
      <path d="M19.51,38.87c-.38-.03-.68-.35-.68-.73,0-.2.08-.38.22-.52.14-.14.32-.21.52-.21,0,0,.05,0,.05,0,.38.03.68.35.68.73,0,.19-.08.38-.22.52-.14.14-.32.21-.52.21,0,0-.05,0-.05,0ZM19.58,37.87c-.09,0-.16.03-.21.08-.05.05-.08.12-.08.19,0,.14.11.26.25.27l-.02.23.04-.23c.07,0,.14-.03.19-.08.05-.05.08-.12.08-.19,0-.14-.11-.26-.25-.27Z" style="fill: #1e1c1c;"/>
      <path d="M1.84,3.53h.76s0,3.18,0,3.18l1.57-3.18h.81s-1.68,3.39-1.68,3.39l1.81,3.08h-.87s-1.63-2.8-1.63-2.8v2.79s-.76,0-.76,0V3.53Z" style="fill: #191818;"/>
      <path d="M4.37,15.93c.63,0,1.15-.57,1.15-1.28h0c0-1.28-1.6-1.03-2.17-2.57-.58,1.54-2.18,1.28-2.19,2.56,0,.71.51,1.28,1.14,1.28.36,0,.68-.19.89-.49-.49,1-.48,1.02-1.02,1.25h2.31c-.54-.23-.52-.25-1.01-1.25.21.3.53.49.89.49Z" style="fill: #191818;"/>
      <path d="M46.34,65.05h-.76s0-3.18,0-3.18l-1.57,3.18h-.81s1.68-3.39,1.68-3.39l-1.81-3.08h.87s1.63,2.79,1.63,2.79v-2.79s.76,0,.76,0v6.47Z" style="fill: #191818;"/>
      <path d="M43.81,52.66c-.63,0-1.15.57-1.15,1.28h0c0,1.28,1.6,1.03,2.17,2.57.58-1.54,2.18-1.28,2.18-2.56,0-.71-.51-1.28-1.14-1.28-.36,0-.68.19-.89.49.5-1,.48-1.02,1.02-1.25h-2.31c.54.23.52.25,1.01,1.25-.21-.3-.53-.49-.89-.49Z" style="fill: #191818;"/>
      <path d="M12.97,15.14c.95,0,1.72-.86,1.72-1.92h0c0-1.92-2.4-1.54-3.26-3.85-.86,2.3-3.27,1.92-3.28,3.84,0,1.06.77,1.92,1.72,1.93.54,0,1.03-.29,1.34-.73-.74,1.5-.71,1.53-1.52,1.88h3.46c-.81-.35-.78-.38-1.52-1.88.31.44.79.73,1.34.73Z" style="fill: #191818;"/>
      <path d="M35.21,53.3c-.95,0-1.72.86-1.72,1.92h0c0,1.92,2.4,1.54,3.26,3.85.86-2.3,3.27-1.92,3.27-3.84,0-1.06-.77-1.92-1.72-1.92-.54,0-1.03.29-1.34.73.74-1.5.71-1.53,1.52-1.88h-3.46c.81.35.78.38,1.52,1.88-.31-.44-.79-.73-1.33-.73Z" style="fill: #191818;"/>
    </g>
  </g>
</svg>