<?xml version="1.0" encoding="UTF-8"?>
<svg id="Layer_2" data-name="Layer 2" xmlns="http://www.w3.org/2000/svg" width="48.05" height="68.38" viewBox="0 0 48.05 68.38">
  <g id="Layer_1-2" data-name="Layer 1">
    <g>
      <path d="M2.31,68.38c-1.27,0-2.31-1.04-2.31-2.31V2.31C0,1.04,1.04,0,2.31,0h43.43c1.27,0,2.31,1.04,2.31,2.31v63.76c0,1.27-1.04,2.31-2.31,2.31H2.31Z" style="fill: #fafafa;"/>
      <path d="M27.12,38.8c1.9,0,3.44-1.72,3.44-3.84h0c0-3.84-4.82-3.08-6.54-7.69-1.72,4.61-6.53,3.85-6.54,7.69,0,2.12,1.54,3.84,3.44,3.84,1.09,0,2.05-.58,2.68-1.46-1.48,2.99-1.42,3.06-3.04,3.77h6.92c-1.62-.71-1.57-.77-3.04-3.77.63.89,1.59,1.46,2.68,1.46Z" style="fill: #191818;"/>
      <path d="M3.35,3.44l1.88,6.67h-.81l-.29-1.08h-1.57l-.28,1.08h-.81l1.88-6.67ZM3.95,8.31l-.43-1.67-.17-.77-.16.77-.44,1.67h1.2Z" style="fill: #191818;"/>
      <path d="M44.7,64.94l-1.88-6.67h.81l.28,1.08h1.57l.28-1.08h.81l-1.88,6.67ZM44.1,60.07l.43,1.67.17.77.16-.77.44-1.67h-1.2Z" style="fill: #191818;"/>
      <path d="M4.27,15.92c.63,0,1.15-.57,1.15-1.28h0c0-1.28-1.6-1.03-2.18-2.56-.57,1.54-2.18,1.28-2.18,2.56,0,.71.51,1.28,1.15,1.28.36,0,.68-.19.89-.49-.49,1-.48,1.02-1.01,1.26h2.31c-.54-.23-.52-.26-1.01-1.26.21.3.53.49.89.49Z" style="fill: #191818;"/>
      <path d="M43.78,52.57c-.63,0-1.15.57-1.15,1.28h0c0,1.28,1.6,1.03,2.18,2.56.57-1.54,2.18-1.28,2.18-2.56,0-.71-.51-1.28-1.15-1.28-.36,0-.68.19-.89.49.49-1,.48-1.02,1.02-1.26h-2.31c.54.23.52.26,1.01,1.26-.21-.3-.53-.49-.89-.49Z" style="fill: #191818;"/>
    </g>
  </g>
</svg>