<?xml version="1.0" encoding="UTF-8"?>
<svg id="Layer_2" data-name="Layer 2" xmlns="http://www.w3.org/2000/svg" width="48.4" height="68.62" viewBox="0 0 48.4 68.62">
  <g id="Layer_1-2" data-name="Layer 1">
    <g>
      <path d="M48.39,2.49s0,.05,0,.07l-.35,63.75c0,1.27-1.05,2.3-2.32,2.3l-25.05-.14-18.38-.1c-1.27,0-2.31-1.05-2.3-2.32L.35,2.3C.35,1.03,1.4,0,2.67,0l6.59.04,23.22.12,13.61.08c1.25,0,2.26,1.01,2.29,2.25Z" style="fill: #fafafa;"/>
      <path d="M25.84,16.63c.95,0,1.72-.85,1.73-1.91h0c.01-1.92-2.4-1.55-3.25-3.86-.87,2.3-3.28,1.9-3.29,3.83,0,1.06.76,1.93,1.71,1.93.54,0,1.02-.28,1.34-.72-.75,1.49-.72,1.53-1.53,1.88l3.46.02c-.81-.36-.78-.39-1.51-1.89.31.45.79.73,1.33.74Z" style="fill: #191818;"/>
      <path d="M22.55,51.99c-.95,0-1.72.85-1.73,1.91h0c-.01,1.92,2.4,1.55,3.25,3.86.87-2.3,3.28-1.91,3.29-3.83,0-1.06-.76-1.93-1.71-1.93-.55,0-1.03.28-1.34.72.75-1.49.72-1.53,1.53-1.87l-3.46-.02c.81.36.78.39,1.51,1.89-.31-.45-.79-.74-1.33-.74Z" style="fill: #191818;"/>
      <path d="M4.54,15.94c.63,0,1.15-.57,1.15-1.27h0c0-1.28-1.6-1.03-2.16-2.58-.58,1.53-2.19,1.27-2.19,2.55,0,.71.51,1.28,1.14,1.29.36,0,.68-.19.89-.48-.5.99-.48,1.02-1.02,1.25h2.31c-.54-.23-.52-.25-1.01-1.25.21.3.53.49.89.49Z" style="fill: #191818;"/>
      <path d="M43.85,52.8c-.63,0-1.15.57-1.15,1.27h0c0,1.28,1.6,1.03,2.16,2.58.58-1.53,2.19-1.27,2.19-2.55,0-.71-.51-1.28-1.14-1.29-.36,0-.68.19-.89.48.5-.99.48-1.02,1.02-1.25h-2.31c.54.23.52.25,1.01,1.25-.21-.3-.53-.49-.89-.49Z" style="fill: #191818;"/>
      <path d="M3.59,6.68c.35-.73.53-1.27.53-1.63,0-.41-.24-.84-.77-.85-.24,0-.56.09-.88.33l-.36-.6c.36-.31.83-.44,1.26-.44.97,0,1.53.67,1.53,1.6,0,.61-.25,1.12-.76,2.18l-1.01,2.06h1.82s0,.72,0,.72l-2.99-.02,1.63-3.36Z"/>
      <path d="M44.81,61.94c-.35.73-.53,1.27-.53,1.62,0,.41.24.84.77.85.24,0,.56-.09.88-.32l.36.59c-.36.31-.83.44-1.26.44-.97,0-1.53-.67-1.53-1.6,0-.61.24-1.12.76-2.18l1.01-2.06h-1.82s0-.72,0-.72l2.99.02-1.63,3.36Z"/>
    </g>
  </g>
</svg>