<?xml version="1.0" encoding="UTF-8"?>
<svg id="Layer_2" data-name="Layer 2" xmlns="http://www.w3.org/2000/svg" width="48.07" height="68.39" viewBox="0 0 48.07 68.39">
  <g id="Layer_1-2" data-name="Layer 1">
    <g>
      <path d="M2.31,68.37C1.04,68.37,0,67.33,0,66.06L.02,2.31C.02,1.04,1.07,0,2.34,0h43.43c1.27.02,2.31,1.06,2.31,2.33l-.02,63.76c0,1.27-1.04,2.31-2.31,2.31l-43.43-.02Z" style="fill: #fafafa;"/>
      <g>
        <path d="M1.49,4.23l.76-.82v6.62s-.76,0-.76,0v-5.8Z" style="fill: #191818;"/>
        <path d="M3.64,6.81c0-2.53.79-3.31,1.69-3.31.91,0,1.69.78,1.69,3.31,0,2.53-.78,3.31-1.69,3.31-.91,0-1.69-.78-1.69-3.31ZM6.25,6.81c0-2.11-.45-2.6-.91-2.6-.45,0-.91.49-.91,2.6,0,2.11.45,2.6.91,2.6s.91-.49.91-2.6Z" style="fill: #191818;"/>
      </g>
      <g>
        <path d="M46.58,64.16l-.76.82v-6.62s.76,0,.76,0v5.81Z" style="fill: #191818;"/>
        <path d="M44.43,61.58c0,2.52-.78,3.31-1.7,3.31-.91,0-1.69-.78-1.69-3.31,0-2.53.79-3.31,1.7-3.31.91,0,1.69.78,1.69,3.31ZM41.83,61.58c0,2.11.45,2.6.91,2.6.46,0,.91-.49.91-2.6,0-2.11-.45-2.6-.91-2.6-.46,0-.91.49-.91,2.6Z" style="fill: #191818;"/>
      </g>
      <path d="M15.34,16.5c.95,0,1.72-.86,1.72-1.92h0c0-1.92-2.41-1.54-3.27-3.85-.86,2.31-3.27,1.92-3.27,3.85,0,1.06.77,1.92,1.72,1.92.54,0,1.02-.29,1.34-.73-.74,1.49-.71,1.53-1.52,1.88h3.46c-.81-.35-.78-.38-1.52-1.88.31.44.79.73,1.34.73Z" style="fill: #191818;"/>
      <path d="M35.85,16.51c.95,0,1.72-.86,1.72-1.92h0c0-1.92-2.41-1.54-3.27-3.85-.86,2.31-3.27,1.92-3.27,3.84,0,1.06.77,1.92,1.72,1.92.55,0,1.03-.29,1.34-.73-.74,1.5-.71,1.53-1.52,1.88h3.46c-.81-.35-.78-.39-1.52-1.88.31.44.79.73,1.34.73Z" style="fill: #191818;"/>
      <path d="M25.59,22.72c.95,0,1.72-.86,1.72-1.92h0c0-1.92-2.41-1.54-3.27-3.85-.86,2.31-3.27,1.92-3.27,3.84,0,1.06.77,1.92,1.72,1.92.55,0,1.03-.29,1.34-.73-.74,1.5-.71,1.53-1.52,1.88h3.46c-.81-.35-.78-.39-1.52-1.88.31.44.79.73,1.34.73Z" style="fill: #191818;"/>
      <path d="M35.84,28.94c.95,0,1.72-.86,1.72-1.92h0c0-1.92-2.41-1.54-3.27-3.85-.86,2.31-3.27,1.92-3.27,3.84,0,1.06.77,1.92,1.72,1.92.55,0,1.03-.29,1.34-.73-.74,1.5-.71,1.53-1.52,1.88h3.46c-.81-.35-.78-.39-1.52-1.88.31.44.79.73,1.34.73Z" style="fill: #191818;"/>
      <path d="M15.33,28.93c.95,0,1.72-.86,1.72-1.92h0c0-1.92-2.41-1.54-3.27-3.85-.86,2.31-3.27,1.92-3.27,3.84,0,1.06.77,1.92,1.72,1.92.54,0,1.02-.29,1.34-.73-.74,1.5-.71,1.53-1.52,1.88h3.46c-.81-.35-.78-.39-1.52-1.88.31.44.79.73,1.34.73Z" style="fill: #191818;"/>
      <path d="M12.23,39.45c-.95,0-1.72.86-1.72,1.92h0c0,1.92,2.41,1.54,3.27,3.85.86-2.31,3.27-1.92,3.27-3.85,0-1.06-.77-1.92-1.72-1.92-.55,0-1.02.29-1.34.73.74-1.5.71-1.53,1.52-1.88h-3.46c.81.35.78.39,1.52,1.88-.31-.44-.79-.73-1.34-.73Z" style="fill: #191818;"/>
      <path d="M22.48,45.67c-.95,0-1.72.86-1.72,1.92h0c0,1.92,2.41,1.54,3.27,3.85.86-2.31,3.27-1.92,3.27-3.84,0-1.06-.77-1.92-1.72-1.92-.54,0-1.03.29-1.34.73.74-1.5.71-1.53,1.52-1.88h-3.46c.81.35.78.39,1.52,1.88-.31-.44-.79-.73-1.34-.73Z" style="fill: #191818;"/>
      <path d="M32.74,39.46c-.95,0-1.72.86-1.72,1.92h0c0,1.92,2.41,1.54,3.27,3.85.86-2.31,3.27-1.92,3.27-3.84,0-1.06-.77-1.92-1.72-1.92-.55,0-1.03.29-1.34.73.74-1.5.71-1.53,1.52-1.88h-3.46c.81.35.78.39,1.52,1.88-.31-.44-.79-.73-1.34-.73Z" style="fill: #191818;"/>
      <path d="M32.73,51.89c-.95,0-1.72.86-1.72,1.92h0c0,1.92,2.41,1.54,3.27,3.85.86-2.31,3.27-1.92,3.27-3.84,0-1.06-.77-1.92-1.72-1.92-.54,0-1.02.29-1.34.73.74-1.5.71-1.53,1.52-1.88h-3.46c.81.35.78.39,1.52,1.88-.31-.45-.79-.73-1.34-.73Z" style="fill: #191818;"/>
      <path d="M12.23,51.88c-.95,0-1.72.86-1.72,1.92h0c0,1.92,2.41,1.54,3.27,3.85.86-2.31,3.27-1.92,3.27-3.84,0-1.06-.77-1.92-1.72-1.92-.54,0-1.02.29-1.34.73.74-1.5.71-1.53,1.52-1.88h-3.46c.81.35.78.38,1.52,1.88-.31-.44-.79-.73-1.34-.73Z" style="fill: #191818;"/>
      <path d="M4.29,15.92c.63,0,1.15-.57,1.15-1.28h0c0-1.28-1.6-1.03-2.18-2.56-.57,1.54-2.18,1.28-2.18,2.56,0,.71.51,1.28,1.14,1.28.36,0,.68-.19.89-.49-.49,1-.47,1.02-1.01,1.26h2.31c-.54-.23-.52-.26-1.01-1.26.21.3.53.49.89.49Z" style="fill: #191818;"/>
      <path d="M43.79,52.59c-.64,0-1.15.57-1.15,1.28h0c0,1.28,1.61,1.03,2.18,2.56.57-1.54,2.18-1.28,2.18-2.56,0-.71-.51-1.28-1.15-1.28-.36,0-.68.19-.89.49.49-1,.48-1.02,1.01-1.25h-2.31c.54.23.52.26,1.01,1.26-.21-.3-.53-.49-.89-.49Z" style="fill: #191818;"/>
    </g>
  </g>
</svg>