<?xml version="1.0" encoding="UTF-8"?>
<svg id="Layer_2" data-name="Layer 2" xmlns="http://www.w3.org/2000/svg" width="48.06" height="68.39" viewBox="0 0 48.06 68.39">
  <g id="Layer_1-2" data-name="Layer 1">
    <g>
      <path d="M48.06,66.06c0,1.27-1.04,2.31-2.31,2.31h-25.04s-18.39,0-18.39,0c-1.27,0-2.31-1.04-2.31-2.31V2.32C0,1.05,1.04,0,2.31,0h6.6s23.23,0,23.23,0h13.61c1.25,0,2.27,1,2.31,2.23,0,.02,0,.05,0,.07v63.75Z" style="fill: #fafafa;"/>
      <path d="M4.27,12.32c-.46,0-.85.27-1.04.66-.19-.39-.58-.66-1.04-.66-.64,0-1.15.52-1.15,1.15h0c0,1.38,2.19,2.99,2.19,2.99,0,0,2.18-1.61,2.19-2.99,0-.64-.52-1.15-1.15-1.15Z" style="fill: #c42c27;"/>
      <path d="M43.79,56.06c.46,0,.85-.27,1.04-.66.18.39.58.66,1.03.66.63,0,1.15-.52,1.15-1.15h0c0-1.38-2.19-2.99-2.19-2.99,0,0-2.19,1.61-2.19,2.99,0,.64.52,1.15,1.15,1.15Z" style="fill: #c42c27;"/>
      <path d="M25.58,11.09c-.69,0-1.28.41-1.55.99-.28-.58-.87-.99-1.55-.98-.95,0-1.73.77-1.73,1.73h0c0,2.07,3.28,4.49,3.28,4.49,0,0,3.28-2.42,3.28-4.49,0-.95-.77-1.73-1.73-1.73Z" style="fill: #c42c27;"/>
      <path d="M22.48,57.29c.69,0,1.28-.4,1.55-.99.28.58.87.99,1.55.99.95,0,1.73-.77,1.73-1.73h0c0-2.07-3.28-4.49-3.28-4.49,0,0-3.28,2.42-3.28,4.49,0,.95.77,1.73,1.73,1.73Z" style="fill: #c42c27;"/>
      <path d="M3.26,6.68c.35-.73.52-1.27.52-1.63,0-.41-.24-.84-.77-.84-.24,0-.56.09-.88.33l-.36-.59c.36-.32.83-.45,1.26-.45.97,0,1.54.67,1.54,1.59,0,.6-.24,1.12-.75,2.18l-1,2.06h1.82s0,.71,0,.71H1.65s1.61-3.37,1.61-3.37Z" style="fill: #c42c27;"/>
      <path d="M44.79,61.7c-.35.73-.52,1.27-.52,1.63,0,.41.24.84.77.84.24,0,.57-.09.88-.33l.36.59c-.36.32-.83.45-1.26.45-.98,0-1.54-.67-1.54-1.59,0-.6.24-1.12.75-2.18l1-2.06h-1.82s0-.71,0-.71h2.99s-1.61,3.37-1.61,3.37Z" style="fill: #c42c27;"/>
    </g>
  </g>
</svg>