<?xml version="1.0" encoding="UTF-8"?>
<svg id="Layer_2" data-name="Layer 2" xmlns="http://www.w3.org/2000/svg" width="48.2" height="68.48" viewBox="0 0 48.2 68.48">
  <g id="Layer_1-2" data-name="Layer 1">
    <g>
      <path d="M48.2,66.06c0,1.27-1.04,2.31-2.3,2.32l-25.04.06-18.39.04c-1.27,0-2.31-1.04-2.32-2.3L0,2.42C0,1.15,1.04.1,2.31.1l6.59-.02,23.23-.05L45.73,0c1.25,0,2.27,1,2.31,2.23,0,.02,0,.05,0,.08l.15,63.75Z" style="fill: #fafafa;"/>
      <g>
        <path d="M1.47,4.34l.75-.82.02,6.62h-.75s-.01-5.81-.01-5.81Z" style="fill: #c42c27;"/>
        <path d="M3.63,6.91c0-2.53.77-3.31,1.68-3.31.91,0,1.7.78,1.7,3.31,0,2.52-.77,3.31-1.69,3.31-.91,0-1.7-.78-1.7-3.31ZM6.24,6.9c0-2.11-.46-2.6-.92-2.6-.46,0-.91.49-.9,2.6,0,2.11.46,2.6.91,2.6.46,0,.91-.49.9-2.6Z" style="fill: #c42c27;"/>
      </g>
      <g>
        <path d="M46.72,64.14l-.75.82-.02-6.62h.75s.01,5.81.01,5.81Z" style="fill: #c42c27;"/>
        <path d="M44.57,61.57c0,2.52-.77,3.31-1.69,3.31-.91,0-1.69-.78-1.7-3.31,0-2.53.78-3.31,1.69-3.31.91,0,1.69.78,1.7,3.31ZM41.96,61.58c0,2.11.46,2.6.92,2.6.46,0,.91-.49.9-2.6,0-2.11-.46-2.6-.92-2.6-.46,0-.91.49-.9,2.6Z" style="fill: #c42c27;"/>
      </g>
      <path d="M4.29,12.41c-.46,0-.85.27-1.03.66-.19-.39-.58-.66-1.04-.66-.63,0-1.15.52-1.15,1.15h0c0,1.38,2.19,2.99,2.19,2.99,0,0,2.18-1.62,2.18-3,0-.64-.52-1.15-1.16-1.15Z" style="fill: #c42c27;"/>
      <path d="M43.9,56.07c.46,0,.85-.27,1.03-.66.19.39.58.66,1.04.65.64,0,1.15-.52,1.15-1.15h0c0-1.38-2.19-2.99-2.19-2.99,0,0-2.18,1.62-2.18,3,0,.64.52,1.15,1.15,1.15Z" style="fill: #c42c27;"/>
      <path d="M25.61,17.35c-.69,0-1.27.41-1.55.99-.28-.58-.87-.98-1.56-.98-.95,0-1.72.78-1.72,1.73h0c0,2.07,3.29,4.48,3.29,4.48,0,0,3.27-2.42,3.27-4.49,0-.95-.78-1.72-1.73-1.72Z" style="fill: #c42c27;"/>
      <path d="M15.34,11.16c-.69,0-1.27.41-1.55.99-.28-.58-.87-.98-1.56-.98-.95,0-1.72.78-1.72,1.73h0c0,2.07,3.29,4.48,3.29,4.48,0,0,3.27-2.42,3.27-4.49,0-.95-.78-1.72-1.73-1.72Z" style="fill: #c42c27;"/>
      <path d="M35.85,11.11c-.69,0-1.27.41-1.55.99-.28-.58-.87-.98-1.55-.98-.95,0-1.72.78-1.72,1.73h0c0,2.07,3.29,4.48,3.29,4.48,0,0,3.27-2.42,3.27-4.5,0-.95-.78-1.72-1.73-1.72Z" style="fill: #c42c27;"/>
      <path d="M15.37,23.58c-.69,0-1.28.41-1.55.99-.28-.58-.87-.98-1.55-.98-.95,0-1.73.78-1.72,1.73h0c0,2.07,3.29,4.48,3.29,4.48,0,0,3.27-2.42,3.27-4.49,0-.96-.78-1.72-1.73-1.72Z" style="fill: #c42c27;"/>
      <path d="M35.88,23.54c-.69,0-1.27.41-1.55.99-.28-.58-.87-.98-1.55-.98-.95,0-1.72.78-1.72,1.73h0c0,2.07,3.29,4.48,3.29,4.48,0,0,3.27-2.42,3.27-4.5,0-.95-.78-1.72-1.73-1.72Z" style="fill: #c42c27;"/>
      <path d="M22.59,51.13c.69,0,1.27-.41,1.55-.99.28.58.87.98,1.56.98.95,0,1.73-.78,1.72-1.73h0c0-2.07-3.29-4.48-3.29-4.48,0,0-3.27,2.42-3.27,4.49,0,.95.78,1.72,1.73,1.72Z" style="fill: #c42c27;"/>
      <path d="M32.85,57.32c.69,0,1.28-.41,1.55-.99.28.58.87.98,1.56.98.95,0,1.72-.78,1.72-1.73h0c0-2.07-3.29-4.48-3.29-4.48,0,0-3.27,2.42-3.27,4.49,0,.95.78,1.72,1.73,1.72Z" style="fill: #c42c27;"/>
      <path d="M12.35,57.37c.69,0,1.27-.41,1.55-.99.28.58.87.98,1.56.98.95,0,1.72-.78,1.72-1.73h0c0-2.07-3.29-4.48-3.29-4.48,0,0-3.27,2.42-3.27,4.49,0,.95.78,1.72,1.73,1.72Z" style="fill: #c42c27;"/>
      <path d="M32.82,44.89c.69,0,1.27-.41,1.55-.99.28.58.87.98,1.56.98.95,0,1.72-.78,1.72-1.73h0c0-2.07-3.29-4.48-3.29-4.48,0,0-3.27,2.42-3.27,4.49,0,.95.78,1.72,1.73,1.72Z" style="fill: #c42c27;"/>
      <path d="M12.32,44.94c.69,0,1.28-.41,1.55-.99.28.58.87.98,1.55.98.95,0,1.72-.78,1.72-1.73h0c0-2.07-3.29-4.48-3.29-4.48,0,0-3.27,2.42-3.27,4.49,0,.95.78,1.72,1.73,1.72Z" style="fill: #c42c27;"/>
    </g>
  </g>
</svg>