<?xml version="1.0" encoding="UTF-8"?>
<svg id="Layer_2" data-name="Layer 2" xmlns="http://www.w3.org/2000/svg" width="48.09" height="68.4" viewBox="0 0 48.09 68.4">
  <g id="Layer_1-2" data-name="Layer 1">
    <g>
      <path d="M2.35,68.4c-1.27,0-2.31-1.04-2.31-2.31L0,2.34C0,1.07,1.04.03,2.31.03L45.74,0c1.27,0,2.31,1.04,2.31,2.31l.04,63.76c0,1.27-1.04,2.31-2.31,2.31l-43.43.03Z" style="fill: #fafafa;"/>
      <path d="M4.27,12.34c-.46,0-.85.27-1.03.66-.18-.39-.58-.66-1.04-.66-.63,0-1.15.52-1.15,1.15h0c0,1.38,2.19,2.99,2.19,2.99,0,0,2.18-1.61,2.18-2.99,0-.64-.52-1.15-1.15-1.15Z" style="fill: #c42c27;"/>
      <path d="M43.81,56.06c.46,0,.85-.27,1.03-.66.19.39.58.66,1.04.66.64,0,1.15-.52,1.15-1.15h0c0-1.38-2.19-2.99-2.19-2.99,0,0-2.19,1.61-2.18,2.99,0,.63.52,1.15,1.15,1.15Z" style="fill: #c42c27;"/>
      <path d="M15.33,11.11c-.69,0-1.27.41-1.55.99-.28-.58-.87-.99-1.55-.98-.95,0-1.73.77-1.73,1.73h0c0,2.07,3.28,4.48,3.28,4.48,0,0,3.28-2.42,3.28-4.49,0-.95-.77-1.73-1.73-1.72Z" style="fill: #c42c27;"/>
      <path d="M35.84,11.09c-.69,0-1.28.41-1.55.99-.28-.58-.87-.99-1.55-.98-.95,0-1.73.77-1.72,1.73h0c0,2.07,3.28,4.48,3.28,4.48,0,0,3.28-2.42,3.28-4.49,0-.95-.77-1.73-1.73-1.72Z" style="fill: #c42c27;"/>
      <path d="M32.76,57.3c.69,0,1.28-.41,1.55-.99.28.58.87.99,1.55.98.95,0,1.72-.77,1.72-1.73h0c0-2.07-3.28-4.48-3.28-4.48,0,0-3.28,2.42-3.28,4.49,0,.95.77,1.73,1.73,1.73Z" style="fill: #c42c27;"/>
      <path d="M12.25,57.31c.69,0,1.28-.4,1.55-.99.28.58.87.99,1.55.98.95,0,1.73-.77,1.72-1.73h0c0-2.07-3.28-4.48-3.28-4.48,0,0-3.28,2.42-3.28,4.49,0,.95.78,1.73,1.73,1.72Z" style="fill: #c42c27;"/>
      <path d="M2.73,3.56h.76s-1.11,4.39-1.11,4.39h1.13s0-1.5,0-1.5l.75-.82v2.31s.6,0,.6,0v.71s-.59,0-.59,0v1.36s-.75,0-.75,0v-1.36s-2.05,0-2.05,0l1.27-5.1Z" style="fill: #c42c27;"/>
      <path d="M45.36,64.84h-.76s1.11-4.39,1.11-4.39h-1.12s0,1.5,0,1.5l-.75.82v-2.31s-.59,0-.59,0v-.71s.59,0,.59,0v-1.36s.75,0,.75,0v1.37s2.05,0,2.05,0l-1.27,5.1Z" style="fill: #c42c27;"/>
    </g>
  </g>
</svg>