<?xml version="1.0" encoding="UTF-8"?>
<svg id="Layer_2" data-name="Layer 2" xmlns="http://www.w3.org/2000/svg" width="48.11" height="68.42" viewBox="0 0 48.11 68.42">
  <g id="Layer_1-2" data-name="Layer 1">
    <g>
      <path d="M2.37,68.42c-1.27,0-2.31-1.04-2.31-2.31L0,2.35C0,1.08,1.04.04,2.31.04L45.74,0c1.27,0,2.31,1.04,2.31,2.31l.06,63.76c0,1.27-1.04,2.31-2.31,2.31l-43.43.04Z" style="fill: #fafafa;"/>
      <path d="M4.28,12.35c-.46,0-.85.27-1.03.66-.19-.39-.58-.66-1.04-.66-.63,0-1.15.52-1.15,1.15h0c0,1.38,2.19,2.99,2.19,2.99,0,0,2.19-1.61,2.18-2.99,0-.64-.52-1.15-1.15-1.15Z" style="fill: #c42c27;"/>
      <path d="M43.83,56.06c.46,0,.85-.27,1.04-.66.19.39.58.66,1.04.66.63,0,1.15-.52,1.15-1.15h0c0-1.38-2.19-2.99-2.19-2.99,0,0-2.19,1.61-2.18,2.99,0,.63.52,1.15,1.15,1.15Z" style="fill: #c42c27;"/>
      <path d="M25.59,11.11c-.69,0-1.28.41-1.55.99-.28-.58-.87-.98-1.55-.98-.95,0-1.73.77-1.72,1.73h0c0,2.07,3.28,4.48,3.28,4.48,0,0,3.28-2.42,3.28-4.49,0-.95-.77-1.73-1.73-1.72Z" style="fill: #c42c27;"/>
      <path d="M22.52,57.31c.69,0,1.27-.41,1.55-.99.28.58.87.99,1.55.98.95,0,1.73-.77,1.72-1.73h0c0-2.07-3.28-4.48-3.28-4.48,0,0-3.28,2.42-3.28,4.49,0,.95.78,1.73,1.73,1.73Z" style="fill: #c42c27;"/>
      <path d="M25.6,31.1c-.69,0-1.27.41-1.55.99-.28-.58-.87-.99-1.55-.98-.95,0-1.72.77-1.72,1.73h0c0,2.07,3.28,4.48,3.28,4.48,0,0,3.28-2.42,3.28-4.49,0-.95-.77-1.73-1.73-1.73Z" style="fill: #c42c27;"/>
      <path d="M1.95,9.14c.27.16.58.24.84.23.67,0,1.13-.49,1.13-1.25,0-.81-.52-1.26-1.18-1.26-.17,0-.34.03-.56.14l.15-.29,1.14-2.46h-1.58s0-.71,0-.71h2.7s-1.23,2.69-1.23,2.69c.91.31,1.35,1,1.35,1.88,0,1.16-.76,1.98-1.89,1.98-.49,0-.96-.15-1.22-.32l.36-.62Z" style="fill: #c42c27;"/>
      <path d="M46.15,59.28c-.27-.16-.58-.23-.84-.23-.67,0-1.13.49-1.13,1.25,0,.81.52,1.26,1.18,1.26.17,0,.34-.03.56-.13l-.15.29-1.14,2.46h1.58s0,.71,0,.71h-2.7s1.23-2.69,1.23-2.69c-.91-.31-1.35-1-1.35-1.88,0-1.16.76-1.98,1.9-1.98.49,0,.96.15,1.22.32l-.36.62Z" style="fill: #c42c27;"/>
    </g>
  </g>
</svg>